<svg width="400" height="400" viewBox="0 0 400 400" fill="none" xmlns="http://www.w3.org/2000/svg">
<g clip-path="url(#clip0_5_25)">
<path fill-rule="evenodd" clip-rule="evenodd" d="M68.986 96.5011C68.882 96.7761 68.843 148.93 68.899 212.4L69 327.8H184.8H300.6V212V96.2001L184.887 96.1011C92.784 96.0231 69.135 96.1051 68.986 96.5011ZM294.295 102.561C294.457 102.724 294.428 321.305 294.265 321.468C294.087 321.647 75.508 321.641 75.33 321.463C75.225 321.358 75.174 239.199 75.199 109.701L75.2 102.402L177.1 102.301C270.644 102.208 293.993 102.26 294.295 102.561ZM95.838 208.107C92.876 209.8 92.6 210.535 92.6 216.729C92.6 222.967 93.03 224.085 96.018 225.609C100.273 227.78 107.548 224.92 107.121 221.244C106.937 219.659 103.791 219.446 103.208 220.979C102.205 223.617 97.474 223.486 96.749 220.8C96.391 219.469 96.335 214.826 96.658 213.209C97.206 210.47 100.619 209.71 102.836 211.834C104.123 213.068 106.896 213.112 107.126 211.902C107.785 208.424 99.912 205.777 95.838 208.107ZM114.332 208.011C111.431 209.543 111 210.681 111 216.8C111 224.25 112.673 226.408 118.435 226.393C124.22 226.379 125.8 224.32 125.8 216.802C125.8 210.529 125.53 209.803 122.562 208.107C120.5 206.927 116.472 206.88 114.332 208.011ZM135.919 207.7C135.57 207.975 134.349 210.72 133.206 213.8C132.063 216.88 130.599 220.803 129.952 222.519C128.702 225.832 128.727 226.403 130.124 226.395C131.96 226.383 132.784 225.901 133.27 224.556L133.761 223.2H137.649H141.538L141.996 224.587C142.473 226.032 144.318 226.824 145.842 226.239C146.545 225.97 146.522 225.823 145.256 222.4C144.808 221.19 143.447 217.501 142.232 214.202C139.678 207.275 138.282 205.837 135.919 207.7ZM152.394 208.116C147.43 210.741 147.456 222.928 152.431 225.473C157.021 227.82 164.477 224.927 163.917 221.016C163.704 219.528 160.655 219.645 159.751 221.176C158.461 223.359 154.676 223.61 153.592 221.584C153.08 220.628 153.084 212.964 153.597 212.006C154.598 210.135 158.128 210.152 159.833 212.037C160.579 212.861 163.359 213.114 163.801 212.398C163.938 212.177 163.648 211.283 163.158 210.411C161.407 207.296 156.089 206.162 152.394 208.116ZM168.5 207.465C168.121 207.618 168 209.866 168 216.79V225.913L169 226.164C171.505 226.793 171.959 226.248 172.085 222.46L172.2 219H175.6H179L179.115 222.46C179.241 226.248 179.695 226.793 182.2 226.164L183.2 225.913V216.764V207.615L182.2 207.364C179.689 206.734 179.242 207.276 179.116 211.104L179 214.6H175.6H172.2L172.082 211.213C172.01 209.123 171.78 207.708 171.482 207.519C170.95 207.18 169.28 207.15 168.5 207.465ZM187.9 207.632C186.591 208.394 186.996 210.355 188.6 211.026L190 211.611V216.8V221.989L188.6 222.574C186.945 223.266 186.583 225.242 187.974 225.986C189.106 226.592 195.294 226.512 196.158 225.88C197.371 224.993 196.867 223.079 195.3 222.617L194 222.235V216.923V211.611L195.4 211.026C197.055 210.334 197.417 208.358 196.026 207.614C195.034 207.083 188.819 207.097 187.9 207.632ZM201.429 207.829C200.897 208.36 200.8 209.749 200.8 216.8C200.8 225.831 200.93 226.4 203 226.4C204.871 226.4 205.2 225.529 205.2 220.571C205.2 214.743 205.435 214.749 208.981 220.656C212.055 225.774 212.931 226.611 214.791 226.202L216.015 225.933L215.907 216.667L215.8 207.4L214.72 207.275C212.265 206.992 212 207.534 212 212.847C212 218.727 211.928 218.731 208.391 213.073C204.575 206.966 203.272 205.985 201.429 207.829ZM223.838 208.107C220.752 209.871 219.596 214.442 220.578 220.992C221.861 229.545 235.4 227.974 235.4 219.272V216.2H231.8H228.2V217.6C228.2 218.895 228.305 219.015 229.6 219.2C232.407 219.601 231.185 222.96 228.232 222.96C225.265 222.96 224.8 222.152 224.8 216.991C224.8 212.953 224.895 212.305 225.59 211.61C227.252 209.948 230.173 210.271 231.477 212.261C232.243 213.431 235.6 213.674 235.6 212.56C235.6 208.355 228.263 205.576 223.838 208.107ZM120.999 211.62C123.059 213.679 122.195 221.539 119.78 222.69C116.693 224.162 114.947 222.131 114.847 216.95C114.736 211.183 117.855 208.48 120.999 211.62ZM139.006 215.7C139.436 217.075 139.849 218.425 139.924 218.7C140.021 219.06 139.378 219.2 137.629 219.2C136.293 219.2 135.2 219.117 135.2 219.015C135.2 218.913 135.574 217.788 136.031 216.515C136.488 215.242 136.932 213.975 137.018 213.7C137.396 212.493 138.28 213.383 139.006 215.7ZM95.353 248.612C93.317 249.505 92 251.385 92 253.4C92 256.365 93.587 257.626 99.8 259.595C101.944 260.274 102.4 260.696 102.4 262C102.4 264.545 97.308 264.464 96.082 261.9C95.036 259.712 91.341 260.503 91.993 262.776C93.794 269.054 105.445 268.706 106.608 262.339C107.177 259.222 105.673 257.609 100.697 256.002C96.454 254.631 95.327 253.473 96.8 252C98.018 250.782 100.087 250.949 101.739 252.4C104.331 254.676 107.018 253.929 105.729 251.291C104.352 248.473 98.887 247.062 95.353 248.612ZM109.763 248.552C108.939 250.698 109.713 251.793 112.2 252L114.6 252.2L114.709 259.495L114.818 266.789L115.809 267.038C116.354 267.175 117.246 267.175 117.791 267.038L118.782 266.789L118.891 259.495L119 252.2L121.4 252L123.8 251.8V250V248.2L116.891 248.091C111.2 248 109.944 248.082 109.763 248.552ZM127.7 248.265C126.772 248.639 127.017 262.073 127.987 263.974C130.216 268.343 138.817 268.36 141.378 264C142.099 262.772 142.217 261.786 142.339 255.968C142.492 248.653 142.305 248 140.051 248C138.142 248 138 248.487 138 255.054C138 262.059 137.781 262.946 135.901 263.567C132.112 264.817 131.2 263.121 131.2 254.824C131.2 249.413 131.107 248.45 130.567 248.243C129.835 247.962 128.424 247.973 127.7 248.265ZM147.28 248.48C146.6 249.16 146.6 266.04 147.28 266.72C148.381 267.821 156.325 266.99 158.712 265.525C162.652 263.107 162.835 252.276 158.979 249.75C156.69 248.249 148.409 247.351 147.28 248.48ZM165.7 248.265C164.5 248.749 165.116 251.555 166.5 251.914L167.8 252.251V257.597V262.942L166.634 263.254C164.786 263.748 164.205 265.348 165.429 266.571C166.078 267.221 171.532 267.475 173.5 266.948C175.032 266.537 174.797 263.751 173.2 263.4L172 263.136V257.618V252.1L173.2 251.86C174.598 251.58 175.045 248.733 173.767 248.243C173.018 247.955 166.422 247.973 165.7 248.265ZM182.193 248.557C181.528 248.847 180.403 249.746 179.693 250.556L178.4 252.028V257.24C178.4 263.575 179.117 265.281 182.349 266.635C188.903 269.381 193.4 265.705 193.4 257.6C193.4 249.485 188.724 245.712 182.193 248.557ZM187.601 251.801C189.452 252.757 190.233 257.505 189.17 261.332C188.427 264.009 184.643 264.722 182.958 262.502C182.225 261.536 182.218 253.674 182.949 252.711C184.029 251.289 185.903 250.923 187.601 251.801ZM156.771 253.054C157.996 254.612 157.987 260.6 156.757 262.164C155.983 263.148 155.713 263.226 153.457 263.118L151 263L150.887 258.022C150.745 251.771 150.644 252 153.558 252C155.657 252 156.041 252.126 156.771 253.054ZM197.485 262.648C196.627 263.506 197.202 266.785 198.256 267.05C200.41 267.59 201.4 266.815 201.4 264.59V262.6L199.585 262.482C198.587 262.416 197.642 262.491 197.485 262.648Z" fill="#070707"/>
<path fill-rule="evenodd" clip-rule="evenodd" d="M0 220V420H200H400V220V20H200H0V220ZM301 212V328.2H184.8H68.6L68.498 212.4C68.441 148.71 68.481 96.375 68.585 96.099C68.737 95.7 92.208 95.619 184.888 95.699L301 95.8V212ZM75.865 113.1C75.72 118.545 75.602 163.05 75.602 212C75.602 260.95 75.72 305.455 75.865 310.9L76.128 320.8H184.8H293.472L293.736 310.535C294.08 297.165 294.08 126.835 293.736 113.465L293.472 103.2H184.8H76.128L75.865 113.1ZM113.881 122.056C116.859 123.27 117.707 123.728 119.472 125.076C122.467 127.362 124.764 130.598 125.633 133.755C126.134 135.579 126.689 135.249 127.577 132.6C128.874 128.73 132.681 124.741 136.8 122.938C139.514 121.749 140.33 121.6 144.124 121.6C164.64 121.6 169.17 149.51 149.749 156.253C141.277 159.195 130.338 154.037 127.577 145.8C126.689 143.151 126.134 142.821 125.633 144.645C123.877 151.029 117.434 156.243 110.4 156.972C89.409 159.149 82.913 129.499 102.778 122.18C104.561 121.523 112.361 121.436 113.881 122.056ZM104.6 132.898C101.59 135.088 100.442 137.823 101.225 140.935C103.311 149.218 116 147.728 116 139.2C116 133.669 108.92 129.756 104.6 132.898ZM141 132.466C133.851 136.41 136.297 146.4 144.412 146.4C149.374 146.4 152.795 141.928 151.373 137.3C150.031 132.932 144.677 130.437 141 132.466ZM174.311 155.023L175.2 155.645V170.794V185.942L174.146 186.771C172.357 188.178 171.972 188.042 163 182.818C158.432 180.158 158.813 181.257 158.806 170.727L158.8 161.654L159.962 160.827C160.601 160.372 161.221 160 161.341 160C161.461 160 163.683 158.741 166.279 157.201C171.227 154.268 172.674 153.876 174.311 155.023ZM133.719 156.39C139.48 160.043 148.346 160.201 154.188 156.754C156.877 155.167 156.8 154.75 156.798 170.887C156.795 185.84 156.599 188.051 155.209 188.795C154.192 189.339 99.432 189.352 98.416 188.808C96.96 188.029 96.8 186.318 96.806 171.64C96.813 155.621 96.774 155.846 99.33 157.122C105.407 160.157 111.595 160.045 118 156.783L121 155.255L126.422 155.227C131.769 155.2 131.869 155.216 133.719 156.39ZM102.911 206.824C105.94 207.665 108.84 211.505 107.587 213.015C106.713 214.069 104.074 213.748 102.539 212.4C100.927 210.985 99.17 210.83 98 212C97.109 212.891 96.804 219.713 97.589 221.18C98.533 222.944 101.579 222.58 102.77 220.561C104.237 218.075 108.399 218.903 107.865 221.574C106.42 228.798 93.991 228.976 92.039 221.8C89.344 211.886 94.678 204.538 102.911 206.824ZM121.328 206.829C125.218 207.909 126.8 210.817 126.8 216.887C126.8 224.204 124.502 226.961 118.4 226.961C112.074 226.961 110.187 224.526 110.217 216.4C110.246 208.343 114.277 204.871 121.328 206.829ZM160.693 207.382C163.637 208.753 165.311 211.729 163.92 213.12C162.988 214.052 160.528 213.688 159.061 212.4C156.036 209.744 153.86 211.222 153.667 216.065C153.44 221.765 156.79 224.895 158.959 221.009C160.543 218.171 164.4 218.553 164.4 221.549C164.4 227.254 153.189 229.034 149.534 223.909C148.256 222.118 147.907 212.961 149.026 210.602C150.822 206.818 156.258 205.317 160.693 207.382ZM232.678 207.538C236.762 209.621 237.523 214 233.802 214C232.088 214 231.723 213.8 230.685 212.291C229.815 211.026 227.422 210.942 226.229 212.134C225.014 213.35 224.687 219.89 225.77 221.318C226.648 222.476 228.945 222.655 229.955 221.645C231.156 220.444 231.012 220.066 229.3 219.924C227.675 219.79 226.868 217.164 228.025 215.77C228.726 214.926 234.915 214.972 235.771 215.829C238.349 218.406 235.395 225.207 231.076 226.641C222.956 229.338 217.665 222.477 219.959 212.227C221.079 207.223 227.453 204.872 232.678 207.538ZM140.103 207.5C141.35 208.893 147.381 226.04 146.762 226.432C145.03 227.529 142.15 226.732 141.406 224.951L140.841 223.6H137.653H134.466L133.733 225.1C132.928 226.747 129.513 227.542 128.499 226.319C128.045 225.771 134.027 208.806 135.149 207.459C135.921 206.532 139.26 206.559 140.103 207.5ZM172.32 207.28C172.611 207.571 172.8 208.987 172.8 210.88V214H175.6H178.4V210.88C178.4 207.199 178.68 206.8 181.266 206.8C183.954 206.8 184 206.969 184 216.8C184 226.65 183.959 226.8 181.235 226.8C178.729 226.8 178.461 226.413 178.318 222.581L178.2 219.4H175.6H173L172.882 222.581C172.742 226.347 172.452 226.8 170.18 226.8C167.223 226.8 167.2 226.723 167.2 216.945C167.2 211.783 167.365 208.038 167.614 207.574C168.097 206.671 171.499 206.459 172.32 207.28ZM196.72 207.28C197.927 208.487 197.062 211.6 195.52 211.6C194.864 211.6 194.8 212.057 194.8 216.75V221.9L196 222.14C197.415 222.423 197.882 226.053 196.567 226.557C195.671 226.901 187.891 226.848 187.354 226.494C185.872 225.517 186.357 222.469 188.048 222.13L189.2 221.9V216.8V211.7L188 211.46C186.692 211.198 186.11 207.545 187.3 207.065C188.391 206.625 196.244 206.804 196.72 207.28ZM205.514 207.514C205.907 207.907 207.295 209.977 208.6 212.114C211.554 216.956 211.6 216.949 211.6 211.643C211.6 206.814 211.608 206.8 214.353 206.8C216.792 206.8 216.8 206.835 216.8 216.8C216.8 226.765 216.792 226.8 214.353 226.8C212.019 226.8 211.774 226.581 208.958 221.96C205.681 216.584 205.6 216.584 205.6 221.957C205.6 226.786 205.592 226.8 202.847 226.8C202.029 226.8 201.144 226.584 200.88 226.32C200.199 225.639 200.199 207.961 200.88 207.28C201.631 206.529 204.683 206.683 205.514 207.514ZM116.4 212C115.361 213.039 115.229 220.076 116.223 221.391C117.044 222.477 119.851 222.492 120.639 221.414C122.634 218.686 120.993 211.2 118.4 211.2C117.733 211.2 116.844 211.556 116.4 212ZM137.054 215.749C136.012 218.217 136.16 218.8 137.827 218.8C139.393 218.8 139.374 218.969 138.196 215.6L137.707 214.2L137.054 215.749ZM102.517 247.834C105.703 248.919 107.863 252.377 106.32 253.92C105.374 254.866 102.921 254.492 101.6 253.2C100.209 251.84 98.057 251.567 97.169 252.638C96.415 253.546 97.729 254.442 101.397 255.521C107.346 257.272 109.337 261.908 105.748 265.654C101.556 270.03 90.836 267.378 91.277 262.074L91.4 260.6L93.666 260.481C95.82 260.368 95.968 260.422 96.651 261.579C97.484 262.989 99.484 263.564 101.059 262.846C102.918 261.999 102.071 261.094 98.195 259.788C93.706 258.275 92.972 257.8 91.989 255.774C89.296 250.222 95.591 245.474 102.517 247.834ZM190.173 248.214C193.315 249.705 193.8 250.961 193.8 257.6C193.8 263.349 193.779 263.49 192.723 264.875C189.353 269.293 180.904 268.783 178.5 264.015C177.268 261.571 177.193 253.936 178.375 251.331C180.041 247.662 185.802 246.14 190.173 248.214ZM124.167 247.843C124.622 248.017 124.8 248.623 124.8 250C124.8 252.203 124.534 252.4 121.567 252.4H119.6V259.371C119.6 267.251 119.481 267.6 116.8 267.6C114.119 267.6 114 267.251 114 259.371V252.4H112.033C109.063 252.4 108.8 252.204 108.8 249.991C108.8 248.826 108.997 247.987 109.3 247.865C110.021 247.574 123.414 247.554 124.167 247.843ZM131.52 248.08C131.854 248.414 132 250.542 132 255.08C132 262.186 132.314 263.2 134.511 263.2C136.931 263.2 137.136 262.605 137.274 255.18C137.415 247.57 137.396 247.617 140.251 247.606C142.808 247.597 142.866 247.797 142.725 256.143C142.611 262.916 142.529 263.64 141.763 264.672C137.988 269.761 128.427 268.686 126.847 262.995C126.285 260.97 126.259 249.411 126.814 248.374C127.297 247.471 130.699 247.259 131.52 248.08ZM156.995 248.179C161.156 249.431 162.699 252.59 162.298 259.036C161.891 265.574 159.255 267.6 151.156 267.6C145.678 267.6 146 268.224 146 257.6C146 250.185 146.095 248.762 146.629 248.229C147.465 247.392 154.273 247.359 156.995 248.179ZM174.968 248.9C175.548 250.551 174.851 252.169 173.493 252.327L172.4 252.453V257.627C172.4 262.758 172.407 262.8 173.32 262.8C175.043 262.8 176.021 265.819 174.72 267.12C174.06 267.78 165.54 267.78 164.88 267.12C163.579 265.819 164.557 262.8 166.28 262.8C167.193 262.8 167.2 262.759 167.2 257.6C167.2 252.441 167.193 252.4 166.28 252.4C164.977 252.4 164.4 251.663 164.4 250C164.4 247.735 164.817 247.562 169.983 247.688L174.582 247.8L174.968 248.9ZM183.944 252.765C181.445 254.789 182.941 263.2 185.8 263.2C188.016 263.2 188.6 262.032 188.6 257.6C188.6 253.168 188.016 252 185.8 252C185.299 252 184.464 252.344 183.944 252.765ZM151.6 257.6V262.8H153.026C156.174 262.8 156.788 261.952 156.788 257.6C156.788 253.248 156.174 252.4 153.026 252.4H151.6V257.6ZM202.042 263.1C202.544 264.406 202.24 266.801 201.514 267.262C200.726 267.762 197.421 267.661 196.88 267.12C196.258 266.498 196.258 263.102 196.88 262.48C197.916 261.444 201.575 261.883 202.042 263.1ZM278.711 310.333L278.822 316L277.111 316.08C273.746 316.237 273.031 316.084 272.106 315.008C269.714 312.228 272.184 307.45 275.623 308.205C276.789 308.461 276.8 308.447 276.8 306.665C276.8 304.959 277.224 304.323 278.2 304.566C278.436 304.625 278.645 306.982 278.711 310.333ZM193.381 305.264C194.615 305.827 194.767 307.2 193.595 307.2C193.152 307.2 192.459 306.994 192.055 306.741C191.099 306.145 189.437 306.579 188.396 307.697C185.296 311.024 188.819 315.859 192.832 313.784C194.805 312.763 195.672 314.136 193.821 315.35C191.917 316.597 188.887 316.376 187.277 314.872C182.51 310.419 187.49 302.58 193.381 305.264ZM226.267 305.431C226.4 305.778 226.217 306.355 225.859 306.713C225.034 307.538 223.733 306.204 224.482 305.301C225.058 304.607 225.977 304.674 226.267 305.431ZM254.95 305.394C255.997 306.186 255.508 307.391 254.295 307.008C252.285 306.373 251.342 306.347 250.87 306.915C250.132 307.805 250.712 308.713 252.335 309.209C256.312 310.423 257.515 312.659 255.469 315.038C253.863 316.904 248.8 316.334 248.8 314.286C248.8 313.636 248.982 313.552 249.9 313.782C252.622 314.463 253.447 314.467 253.999 313.801C254.806 312.829 254.084 311.94 251.838 311.136C249.186 310.187 248.8 309.76 248.8 307.774C248.8 305.1 252.614 303.624 254.95 305.394ZM282.321 305.853C282.465 306.854 281.447 307.379 280.822 306.627C280.238 305.923 280.737 304.73 281.55 304.884C281.908 304.952 282.255 305.388 282.321 305.853ZM221.324 307.23C221.443 307.686 221.914 308.157 222.37 308.276C223.471 308.564 223.429 309.71 222.3 310.205C220.859 310.837 220.837 313.302 222.261 314.621C223.176 315.47 223.267 315.713 222.784 316.018C220.799 317.274 219.2 315.417 219.2 311.854C219.2 310.922 219.024 309.984 218.809 309.769C218.243 309.203 219.597 306.4 220.437 306.4C220.805 306.4 221.204 306.773 221.324 307.23ZM260 307.21C260 307.706 260.388 308.167 261 308.4C261.55 308.609 262 308.969 262 309.2C262 309.431 261.55 309.791 261 310C259.479 310.578 259.542 313.589 261.1 314.759C262.026 315.454 262.105 315.648 261.6 315.986C259.755 317.221 258.4 315.915 258.4 312.903C258.4 311.402 258.187 310.427 257.754 309.949C257.159 309.292 257.159 309.184 257.754 308.589C258.109 308.234 258.4 307.596 258.4 307.171C258.4 306.667 258.677 306.4 259.2 306.4C259.737 306.4 260 306.667 260 307.21ZM200.785 308.582C201.379 309.298 201.003 310 200.025 310C198.877 310 198.454 310.847 198.323 313.414C198.207 315.66 198.141 315.8 197.2 315.8C196.228 315.8 196.197 315.711 196.082 312.662C195.959 309.371 196.377 308.215 197.556 308.582C197.91 308.692 198.47 308.609 198.8 308.397C199.646 307.854 200.226 307.909 200.785 308.582ZM206.962 308.455C207.947 308.904 209.2 310.954 209.2 312.118C209.2 312.916 208.339 313.2 205.918 313.2C204.149 313.2 203.965 313.275 204.413 313.815C204.754 314.227 205.496 314.401 206.654 314.341C208.723 314.234 209.195 314.577 208.262 315.51C206.434 317.337 202.464 315.789 201.758 312.973C201.047 310.143 204.358 307.269 206.962 308.455ZM216.3 308.448L217.6 308.4V312.149V315.898L215.515 316.099C212.563 316.382 211.26 315.82 210.396 313.891C209.102 311.002 211.485 307.477 214.2 308.263C214.64 308.39 215.585 308.473 216.3 308.448ZM241.489 308.789C242.776 309.574 243.395 310.885 243.132 312.268C243.019 312.86 242.546 313.023 240.67 313.121C237.877 313.266 237.678 314.194 240.437 314.21C243.591 314.228 243.977 315.615 240.985 316.176C236.147 317.084 234.008 310.229 238.555 308.392C239.8 307.889 240.074 307.926 241.489 308.789ZM289.032 308.754C292.514 310.877 291.206 316.182 287.202 316.182C282.971 316.182 281.772 310.656 285.557 308.599C286.956 307.838 287.575 307.866 289.032 308.754ZM226.2 312.205C226.2 315.629 226.157 315.806 225.3 315.928C224.392 316.057 223.834 309.499 224.68 308.653C225.732 307.601 226.2 308.695 226.2 312.205ZM229.095 308.9C229.311 309.175 229.807 310.255 230.198 311.3C231.01 313.471 231.444 313.662 232.036 312.106C233.268 308.864 235.2 306.9 235.2 308.889C235.2 311.281 232.54 316.024 231.26 315.915C229.269 315.744 226.254 308.4 228.175 308.4C228.465 308.4 228.879 308.625 229.095 308.9ZM264.8 310.951C264.8 315.678 267.666 316.08 268 311.4C268.176 308.933 268.295 308.6 269 308.6C269.734 308.6 269.809 308.905 269.915 312.3L270.03 316L268.315 316.073C263.882 316.263 263.2 315.669 263.2 311.622C263.2 308.854 263.35 308.4 264.267 308.4C264.655 308.4 264.8 309.092 264.8 310.951ZM282.315 312.305C282.424 315.794 282.385 316 281.615 316C280.852 316 280.8 315.757 280.8 312.171C280.8 308.739 280.873 308.355 281.5 308.475C282.096 308.589 282.217 309.157 282.315 312.305ZM204.416 310.581C203.968 311.121 204.092 311.2 205.384 311.2C206.391 311.2 206.814 311.04 206.702 310.7C206.455 309.951 205.002 309.875 204.416 310.581ZM212.7 310.424C211.886 310.908 211.743 313.183 212.48 313.92C213.302 314.742 214.736 314.47 215.467 313.354C216.714 311.451 214.65 309.265 212.7 310.424ZM238.9 310.265C237.912 310.664 238.428 311.2 239.8 311.2C241.249 311.2 241.675 310.668 240.567 310.243C239.859 309.971 239.621 309.974 238.9 310.265ZM273.423 310.889C272.603 312.059 272.636 312.928 273.531 313.738C275.088 315.147 276.8 314.306 276.8 312.134C276.8 310.054 274.58 309.236 273.423 310.889ZM285.878 310.714C284.531 312.203 285.333 314.4 287.224 314.4C288.158 314.4 288.513 314.16 288.846 313.3C289.707 311.08 287.381 309.053 285.878 310.714Z" fill="white"/>
<path fill-rule="evenodd" clip-rule="evenodd" d="M103.957 122.18C86.683 126.943 86.816 151.629 104.14 156.242C113.207 158.656 123.11 152.847 125.583 143.664C126.068 141.862 127.2 141.87 127.2 143.674C127.2 148.027 133.917 154.684 139.875 156.236C156.784 160.641 169.066 139.284 156.746 126.899C149.83 119.946 139.119 119.842 131.975 126.657C129.673 128.852 127.2 133.031 127.2 134.726C127.2 136.53 126.068 136.538 125.583 134.736C123.102 125.523 113.034 119.677 103.957 122.18ZM111.365 131.987C114.218 133.072 116.128 135.963 116.131 139.202C116.139 147.191 105.849 149.946 101.802 143.039C98.117 136.752 104.499 129.376 111.365 131.987ZM146.335 131.777C154.168 134.541 153.782 144.473 145.749 146.816C142.931 147.638 139.728 146.218 137.591 143.2C133.714 137.724 139.982 129.535 146.335 131.777ZM171.6 154.691C171.27 154.817 168.345 156.437 165.1 158.292L159.2 161.665V170.984V180.302L165.252 183.751C175.496 189.589 175.204 189.965 175.187 170.974C175.178 160.306 175.049 156.436 174.687 155.965C174.249 155.395 172.644 154.352 172.326 154.432C172.257 154.449 171.93 154.566 171.6 154.691ZM118.6 156.939C112.272 160.372 102.371 160.47 98.62 157.138C98.411 156.952 98.096 156.8 97.92 156.8C97.367 156.8 97.525 187.765 98.08 188.32C98.966 189.206 154.766 188.992 155.443 188.1C155.937 187.45 156.33 156.4 155.845 156.4C155.76 156.4 154.506 156.954 153.06 157.631C146.676 160.618 138.563 160.174 133.207 156.544C130.8 154.913 121.892 155.154 118.6 156.939Z" fill="#06C4CC"/>
<path fill-rule="evenodd" clip-rule="evenodd" d="M68.585 96.0989C68.481 96.3749 68.441 148.71 68.498 212.4L68.6 328.2H184.8H301V212V95.7999L184.888 95.6989C92.208 95.6189 68.737 95.6999 68.585 96.0989ZM300.8 212V328H184.8H68.8V212V95.9999H184.8H300.8V212ZM177.346 102.701L75.693 102.802L75.41 116.501C75.082 132.394 75.286 320.62 75.632 320.965C75.938 321.271 293.656 321.277 293.963 320.971C294.253 320.68 294.283 103.35 293.993 103.06C293.584 102.651 277.526 102.601 177.346 102.701ZM293.736 113.465C294.08 126.835 294.08 297.165 293.736 310.535L293.472 320.8H184.8H76.128L75.865 310.9C75.72 305.455 75.602 260.95 75.602 212C75.602 163.05 75.72 118.545 75.865 113.1L76.128 103.2H184.8H293.472L293.736 113.465ZM103.4 122C102.381 122.438 103.432 122.438 104.8 122C105.604 121.743 105.643 121.677 105 121.668C104.56 121.662 103.84 121.811 103.4 122ZM112.2 122C113.396 122.514 114.395 122.514 113.6 122C113.27 121.787 112.64 121.622 112.2 121.634L111.4 121.656L112.2 122ZM139.2 122C138.405 122.514 139.404 122.514 140.6 122L141.4 121.656L140.6 121.634C140.16 121.622 139.53 121.787 139.2 122ZM147.8 122C148.996 122.514 149.995 122.514 149.2 122C148.87 121.787 148.24 121.622 147.8 121.634L147 121.656L147.8 122ZM99.974 123.389C98.969 123.912 97.889 124.669 97.574 125.07C97.058 125.726 97.066 125.749 97.65 125.292C98.008 125.013 99.268 124.251 100.45 123.599C103.002 122.193 102.605 122.018 99.974 123.389ZM150.433 122.549C150.845 122.917 153.2 124 153.2 123.821C153.2 123.59 150.982 122.4 150.553 122.4C150.396 122.4 150.342 122.467 150.433 122.549ZM116.4 123.333C116.4 123.406 117.293 124.044 118.385 124.751C120.956 126.418 123.01 128.805 124.447 131.8C125.081 133.12 125.6 133.955 125.6 133.656C125.6 132.664 123.184 128.561 121.7 127.032C119.799 125.075 116.4 122.703 116.4 123.333ZM153.8 124.257C155.837 126.064 156.587 126.591 155.802 125.663C155.366 125.148 154.647 124.541 154.204 124.314C153.762 124.087 153.58 124.062 153.8 124.257ZM131.978 126.1C131.22 126.815 130.339 127.76 130.021 128.2C129.703 128.64 130.378 128.107 131.521 127.015C132.664 125.923 133.6 124.978 133.6 124.915C133.6 124.64 133.274 124.878 131.978 126.1ZM95.555 126.7C94.21 128.187 93.46 129.2 93.703 129.2C93.813 129.2 94.567 128.39 95.379 127.4C97.006 125.414 97.117 124.972 95.555 126.7ZM156.809 126.578C156.804 126.786 157.224 127.416 157.743 127.978C158.262 128.54 159.16 129.81 159.739 130.8C160.319 131.79 160.794 132.41 160.796 132.178C160.8 131.72 158.95 128.805 157.636 127.2C157.186 126.65 156.814 126.37 156.809 126.578ZM92.581 130.837C92.229 131.518 92.012 132.145 92.099 132.232C92.186 132.319 92.556 131.762 92.922 130.995C93.744 129.27 93.459 129.138 92.581 130.837ZM107 131.6C106.439 131.841 106.916 131.94 108.6 131.932C110.38 131.923 110.741 131.837 110 131.6C108.691 131.181 107.975 131.181 107 131.6ZM142.6 131.6C142.036 131.842 142.508 131.944 144.2 131.944C145.892 131.944 146.364 131.842 145.8 131.6C145.36 131.411 144.64 131.256 144.2 131.256C143.76 131.256 143.04 131.411 142.6 131.6ZM103.585 133.184C102.823 133.835 102.333 134.375 102.495 134.384C102.658 134.393 103.108 134.133 103.495 133.808C103.883 133.482 104.56 132.947 105 132.62C105.44 132.293 105.613 132.02 105.385 132.013C105.157 132.006 104.347 132.533 103.585 133.184ZM139.733 132.892C139.043 133.383 138.258 134.148 137.99 134.592C137.692 135.088 138.024 134.918 138.852 134.153C139.593 133.467 140.56 132.707 141 132.465C141.44 132.223 141.617 132.019 141.394 132.012C141.171 132.005 140.424 132.401 139.733 132.892ZM113.879 134.074C114.567 134.884 115.252 135.933 115.401 136.404C115.551 136.875 115.76 137.173 115.866 137.067C116.199 136.734 114.925 134.644 113.753 133.6C112.699 132.662 112.707 132.691 113.879 134.074ZM149.609 133.737C149.604 133.922 149.96 134.531 150.4 135.091C150.84 135.65 151.196 135.949 151.191 135.754C151.179 135.287 149.62 133.3 149.609 133.737ZM125.632 134.667C125.614 134.924 125.711 135.424 125.847 135.777C126.145 136.555 127.2 135.873 127.2 134.902C127.2 134.433 127.078 134.403 126.639 134.768C126.208 135.125 126.03 135.113 125.87 134.717C125.735 134.379 125.652 134.362 125.632 134.667ZM90.944 139.2C90.944 141.29 91.012 142.145 91.094 141.1C91.176 140.055 91.176 138.345 91.094 137.3C91.012 136.255 90.944 137.11 90.944 139.2ZM161.68 139.2C161.68 141.669 161.792 142.65 162 142C162.176 141.45 162.32 140.19 162.32 139.2C162.32 138.21 162.176 136.95 162 136.4C161.792 135.75 161.68 136.731 161.68 139.2ZM101.049 136.615C100.912 136.973 100.815 137.566 100.834 137.933C100.853 138.3 101.027 138.069 101.221 137.42C101.598 136.158 101.465 135.533 101.049 136.615ZM151.444 137.4C151.773 138.871 152.002 139.19 151.994 138.167C151.991 137.745 151.805 137.13 151.582 136.8C151.285 136.362 151.248 136.524 151.444 137.4ZM136.509 139.2C136.509 140.19 136.587 140.595 136.682 140.1C136.778 139.605 136.778 138.795 136.682 138.3C136.587 137.805 136.509 138.21 136.509 139.2ZM151.646 140.067C151.621 140.434 151.496 141.064 151.37 141.467C151.152 142.162 151.163 142.163 151.597 141.487C151.848 141.096 151.973 140.466 151.873 140.087C151.711 139.468 151.688 139.466 151.646 140.067ZM100.806 140.633C100.809 141.055 100.995 141.67 101.218 142C101.515 142.438 101.552 142.276 101.356 141.4C101.027 139.929 100.798 139.61 100.806 140.633ZM115.225 142.34C114.722 143.553 113.178 145.174 111.8 145.934C111.36 146.177 111.219 146.381 111.486 146.388C112.648 146.417 116.517 141.984 115.883 141.35C115.787 141.253 115.49 141.699 115.225 142.34ZM125.797 142.809C125.649 143.277 125.633 143.767 125.763 143.897C125.894 144.027 126 143.901 126 143.618C126 143.205 126.119 143.201 126.6 143.6C127.088 144.005 127.2 143.986 127.2 143.498C127.2 142.385 126.103 141.846 125.797 142.809ZM150.261 143.467C149.854 144.01 149.605 144.538 149.707 144.64C149.808 144.742 150.2 144.354 150.578 143.778C151.467 142.421 151.222 142.181 150.261 143.467ZM137.987 143.827C138.631 144.862 141.13 146.604 141.476 146.258C141.617 146.116 141.524 146 141.268 146C141.012 146 140.053 145.325 139.138 144.5C138.222 143.675 137.705 143.372 137.987 143.827ZM103.585 145.216C104.347 145.867 105.157 146.394 105.385 146.387C105.613 146.38 105.44 146.107 105 145.78C104.56 145.453 103.883 144.918 103.495 144.592C103.108 144.267 102.658 144.007 102.495 144.016C102.333 144.025 102.823 144.565 103.585 145.216ZM124.494 146.53C123.331 149.187 120.902 152.017 118.385 153.648C117.294 154.355 116.478 155.011 116.572 155.106C117.726 156.26 126.163 146.571 125.53 144.819C125.458 144.622 124.992 145.392 124.494 146.53ZM92 146.153C92 146.582 93.19 148.8 93.421 148.8C93.531 148.8 93.323 148.215 92.959 147.5C92.217 146.04 92 145.736 92 146.153ZM107.46 146.887C108.319 147.164 109.084 147.161 109.86 146.878C110.866 146.512 110.718 146.464 108.6 146.472C106.41 146.481 106.31 146.517 107.46 146.887ZM143.06 146.887C143.919 147.164 144.684 147.161 145.46 146.878C146.466 146.512 146.318 146.464 144.2 146.472C142.01 146.481 141.91 146.517 143.06 146.887ZM159.033 148.736C158.71 149.36 157.315 150.918 155.933 152.198C154.551 153.478 153.791 154.326 154.244 154.083C155.259 153.54 160 148.517 160 147.985C160 147.293 159.632 147.579 159.033 148.736ZM94.33 150.3C94.761 150.905 95.529 151.76 96.037 152.2C96.545 152.64 96.272 152.145 95.432 151.1C93.774 149.039 93.063 148.522 94.33 150.3ZM130.051 150.293C130.84 151.289 132.091 152.51 133.007 153.179C133.443 153.497 132.907 152.822 131.815 151.679C129.86 149.631 128.977 148.937 130.051 150.293ZM97.625 153.431C98.288 154.229 102.003 156.13 102.306 155.827C102.431 155.702 102.358 155.6 102.143 155.6C101.929 155.6 100.706 154.97 99.427 154.199C98.148 153.429 97.337 153.083 97.625 153.431ZM135.2 154.596C135.2 154.87 137.649 156.084 137.832 155.901C137.919 155.814 137.362 155.444 136.595 155.078C135.828 154.712 135.2 154.495 135.2 154.596ZM151.6 155.2C150.83 155.622 150.344 155.974 150.52 155.983C150.944 156.005 153.2 154.832 153.2 154.59C153.2 154.328 153.177 154.337 151.6 155.2ZM167.9 156.221C166.195 157.214 164.8 158.128 164.8 158.252C164.8 158.375 165.565 158.028 166.5 157.48C167.435 156.932 169.082 156.015 170.16 155.442C171.237 154.869 171.867 154.403 171.56 154.407C171.252 154.411 169.605 155.227 167.9 156.221ZM173.4 154.883C173.84 155.135 174.419 155.625 174.687 155.971C174.985 156.355 175.18 156.414 175.187 156.123C175.201 155.599 173.666 154.393 173.011 154.412C172.785 154.419 172.96 154.631 173.4 154.883ZM119 156.4C117.9 157.052 117.18 157.584 117.4 157.581C117.62 157.578 118.52 157.132 119.4 156.59C121.885 155.059 131.062 155.089 133.338 156.636C134.176 157.205 134.952 157.581 135.063 157.471C135.173 157.361 134.468 156.805 133.496 156.235C130.665 154.576 121.907 154.676 119 156.4ZM103.4 156.4C103.84 156.589 104.56 156.738 105 156.732C105.643 156.723 105.604 156.657 104.8 156.4C103.432 155.962 102.381 155.962 103.4 156.4ZM112.2 156.4L111.4 156.744L112.2 156.766C112.64 156.778 113.27 156.613 113.6 156.4C114.395 155.886 113.396 155.886 112.2 156.4ZM139.2 156.4C139.53 156.613 140.16 156.778 140.6 156.766L141.4 156.744L140.6 156.4C139.404 155.886 138.405 155.886 139.2 156.4ZM147.8 156.4L147 156.744L147.8 156.766C148.24 156.778 148.87 156.613 149.2 156.4C149.995 155.886 148.996 155.886 147.8 156.4ZM154.3 156.624C152.818 157.435 152.89 157.781 154.38 157.01C155.029 156.675 155.659 156.4 155.78 156.4C156.261 156.4 156.011 187.429 155.527 187.913C155.266 188.174 155.162 188.495 155.294 188.628C156.361 189.694 156.6 186.572 156.6 171.606C156.6 154.759 156.686 155.318 154.3 156.624ZM97.043 157.033C96.666 158.016 96.813 186.099 97.2 187C97.4 187.466 97.556 181.324 97.572 172.3C97.598 157.977 97.745 155.817 98.6 157.2C98.736 157.42 99.062 157.594 99.324 157.587C99.939 157.571 98.403 156.4 97.766 156.4C97.502 156.4 97.176 156.685 97.043 157.033ZM107.905 157.083C108.402 157.179 109.122 157.175 109.505 157.075C109.887 156.975 109.48 156.896 108.6 156.901C107.72 156.905 107.407 156.987 107.905 157.083ZM143.505 157.083C144.002 157.179 144.722 157.175 145.105 157.075C145.487 156.975 145.08 156.896 144.2 156.901C143.32 156.905 143.007 156.987 143.505 157.083ZM102.4 158.8C102.73 159.013 103.36 159.178 103.8 159.166L104.6 159.144L103.8 158.8C102.604 158.286 101.605 158.286 102.4 158.8ZM113.2 158.8C112.667 159.145 112.667 159.188 113.2 159.188C113.53 159.188 114.07 159.013 114.4 158.8C114.933 158.455 114.933 158.412 114.4 158.412C114.07 158.412 113.53 158.587 113.2 158.8ZM138.2 158.8C138.64 158.989 139.27 159.144 139.6 159.144C139.978 159.144 139.904 159.017 139.4 158.8C138.96 158.611 138.33 158.456 138 158.456C137.622 158.456 137.696 158.583 138.2 158.8ZM149 158.8C148.496 159.017 148.422 159.144 148.8 159.144C149.13 159.144 149.76 158.989 150.2 158.8C150.704 158.583 150.778 158.456 150.4 158.456C150.07 158.456 149.44 158.611 149 158.8ZM163.1 159.029C161.605 159.84 161.696 160.178 163.2 159.4C163.86 159.059 164.4 158.694 164.4 158.59C164.4 158.332 164.357 158.347 163.1 159.029ZM106.7 159.577C107.635 159.729 109.165 159.729 110.1 159.577C111.415 159.363 111.029 159.3 108.4 159.3C105.771 159.3 105.385 159.363 106.7 159.577ZM142.4 159.593C143.39 159.758 145.01 159.759 146 159.596C147.46 159.356 147.12 159.3 144.2 159.297C141.277 159.295 140.939 159.35 142.4 159.593ZM159.888 160.902L158.776 161.8L158.896 171L159.016 180.2L159.108 170.91L159.2 161.621L160.4 161C161.559 160.401 161.922 159.998 161.3 160.002C161.135 160.003 160.5 160.408 159.888 160.902ZM160 180.979C160 181.089 160.54 181.459 161.2 181.8C161.86 182.141 162.4 182.331 162.4 182.221C162.4 182.111 161.86 181.741 161.2 181.4C160.54 181.059 160 180.869 160 180.979ZM162.8 182.579C162.8 182.689 163.34 183.059 164 183.4C164.66 183.741 165.2 183.931 165.2 183.821C165.2 183.711 164.66 183.341 164 183C163.34 182.659 162.8 182.469 162.8 182.579ZM166.4 184.767C167.363 185.552 168 185.808 168 185.41C168 185.306 167.415 184.935 166.7 184.586L165.4 183.952L166.4 184.767ZM168.4 185.779C168.4 185.889 168.94 186.259 169.6 186.6C170.26 186.941 170.8 187.131 170.8 187.021C170.8 186.911 170.26 186.541 169.6 186.2C168.94 185.859 168.4 185.669 168.4 185.779ZM112.7 189.1C120.455 189.161 133.145 189.161 140.9 189.1C148.655 189.039 142.31 188.989 126.8 188.989C111.29 188.989 104.945 189.039 112.7 189.1ZM97.249 206.746C96.726 206.893 97.806 207.01 99.649 207.006C102.406 207.001 103.284 207.161 104.6 207.909C105.964 208.684 106.062 208.701 105.268 208.019C103.626 206.611 99.863 206.014 97.249 206.746ZM115.031 206.994C114.168 207.302 112.908 208.136 112.231 208.849L111 210.144L112.495 208.889C114.395 207.293 116.757 206.656 119.8 206.918C121.289 207.046 121.82 207.002 121.2 206.802C119.624 206.294 116.744 206.384 115.031 206.994ZM154.049 206.746C153.526 206.893 154.643 207.01 156.532 207.006C158.421 207.003 159.658 206.878 159.283 206.728C158.42 206.385 155.301 206.395 154.049 206.746ZM224.641 206.966C223.784 207.285 222.794 207.843 222.441 208.206C222.004 208.656 222.271 208.592 223.278 208.006C225.737 206.576 228.794 206.503 232.6 207.782C233.04 207.93 232.871 207.746 232.225 207.373C230.626 206.452 226.604 206.236 224.641 206.966ZM135.062 207.531C134.698 207.934 134.4 208.424 134.4 208.62C134.4 208.817 134.674 208.587 135.008 208.11C135.47 207.45 136.119 207.206 137.708 207.095L139.8 206.948L137.762 206.874C136.23 206.818 135.56 206.982 135.062 207.531ZM167.614 207.574C167.141 208.458 167.042 225.132 167.506 225.863C167.668 226.118 167.745 222.436 167.677 217.681C167.522 206.774 167.44 207.125 170.113 207.28L172.2 207.4L172.4 210.8L172.6 214.2H175.6H178.6L178.8 210.8L179 207.4L180.961 207.276C183.627 207.106 183.588 206.964 183.588 216.8C183.588 226.636 183.627 226.494 180.961 226.324L179 226.2L178.884 222.7C178.821 220.775 178.641 219.2 178.484 219.199C178.046 219.198 178.412 225.733 178.883 226.299C179.583 227.143 183.098 226.939 183.586 226.026C184.14 224.992 184.14 208.608 183.586 207.574C183.265 206.975 182.741 206.8 181.266 206.8C178.68 206.8 178.4 207.199 178.4 210.88V214H175.6H172.8V210.88C172.8 207.199 172.52 206.8 169.934 206.8C168.459 206.8 167.935 206.975 167.614 207.574ZM189.7 207.096C190.965 207.175 193.035 207.175 194.3 207.096C195.565 207.016 194.53 206.951 192 206.951C189.47 206.951 188.435 207.016 189.7 207.096ZM202.105 207.087C202.714 207.179 203.614 207.177 204.105 207.082C204.597 206.987 204.1 206.911 203 206.914C201.9 206.917 201.497 206.995 202.105 207.087ZM214.2 207.163L216.2 207.4V216.8V226.2L214.2 226.437L212.2 226.674L214.02 226.737C216.83 226.834 216.8 226.94 216.8 216.8C216.8 206.66 216.83 206.766 214.02 206.863L212.2 206.926L214.2 207.163ZM186.92 209.2C186.92 210.41 186.995 210.905 187.087 210.3C187.178 209.695 187.178 208.705 187.087 208.1C186.995 207.495 186.92 207.99 186.92 209.2ZM205.809 208.226C206.181 208.901 206.841 209.891 207.276 210.426L208.067 211.4L207.391 210.174C207.019 209.499 206.359 208.509 205.924 207.974L205.133 207L205.809 208.226ZM211.686 211.5C211.588 216.654 211.455 216.802 209.636 213.8C208.25 211.513 207.54 210.781 208.57 212.7C211.56 218.274 212.082 218.098 211.899 211.576L211.771 207L211.686 211.5ZM140.695 209.204C141.041 210.087 141.397 210.736 141.486 210.648C141.678 210.455 140.523 207.6 140.253 207.6C140.149 207.6 140.348 208.322 140.695 209.204ZM196.909 209.2C196.909 210.19 196.987 210.595 197.082 210.1C197.178 209.605 197.178 208.795 197.082 208.3C196.987 207.805 196.909 208.21 196.909 209.2ZM200.572 216.8C200.572 221.97 200.629 224.085 200.699 221.5C200.768 218.915 200.768 214.685 200.699 212.1C200.629 209.515 200.572 211.63 200.572 216.8ZM162.799 209.1C163.322 209.815 163.813 210.4 163.889 210.4C164.193 210.4 163.201 208.9 162.545 208.367C162.113 208.016 162.21 208.296 162.799 209.1ZM92.898 209.7C92.499 210.199 91.732 212.38 92.089 212C92.37 211.701 93.558 209.2 93.418 209.2C93.352 209.2 93.118 209.425 92.898 209.7ZM133.477 211.077C133.1 212.093 132.858 212.991 132.938 213.072C133.019 213.152 133.4 212.393 133.785 211.385C134.17 210.376 134.412 209.479 134.323 209.39C134.235 209.301 133.854 210.06 133.477 211.077ZM220.898 209.7C220.499 210.199 219.732 212.38 220.089 212C220.37 211.701 221.558 209.2 221.418 209.2C221.352 209.2 221.118 209.425 220.898 209.7ZM107.324 211.6C107.428 213.523 104.43 213.935 102.817 212.218C102.291 211.658 101.706 211.2 101.516 211.2C101.327 211.2 101.787 211.74 102.539 212.4C105.024 214.582 108.595 213.825 107.662 211.313C107.249 210.204 107.248 210.205 107.324 211.6ZM163.973 211.8C163.726 213.514 161.045 213.76 159.385 212.221C158.779 211.659 158.174 211.205 158.042 211.212C157.909 211.218 158.388 211.758 159.106 212.412C161.338 214.441 164.705 213.865 164.304 211.522C164.167 210.722 164.123 210.758 163.973 211.8ZM97.423 212.089C95.835 214.356 96.859 222.455 98.723 222.368C99.27 222.343 99.285 222.296 98.8 222.122C96.963 221.466 96.346 213.654 98 212C98.44 211.56 98.63 211.2 98.423 211.2C98.215 211.2 97.765 211.6 97.423 212.089ZM115.823 212.089C114.247 214.338 115.292 222.458 117.146 222.368C117.694 222.342 117.703 222.299 117.2 222.104C115.384 221.397 114.769 213.631 116.4 212C116.84 211.56 117.03 211.2 116.823 211.2C116.615 211.2 116.165 211.6 115.823 212.089ZM120.4 212C122.054 213.654 121.437 221.466 119.6 222.122C119.115 222.296 119.13 222.343 119.677 222.368C121.051 222.432 121.6 220.841 121.6 216.8C121.6 213.063 121.06 211.2 119.977 211.2C119.77 211.2 119.96 211.56 120.4 212ZM154.221 211.977C153.834 212.404 153.612 212.989 153.727 213.277C153.867 213.626 153.947 213.575 153.968 213.123C153.986 212.75 154.4 212.165 154.889 211.823C155.378 211.48 155.586 211.2 155.351 211.2C155.116 211.2 154.608 211.55 154.221 211.977ZM188.3 211.462C189.177 211.651 189.2 211.789 189.2 216.8C189.2 221.817 189.178 221.949 188.3 222.118C187.536 222.265 187.568 222.299 188.511 222.346L189.623 222.4L189.511 216.9L189.4 211.4L188.4 211.334C187.519 211.277 187.507 211.292 188.3 211.462ZM194.667 211.467C194.52 211.613 194.4 214.133 194.4 217.067V222.4L195.5 222.346C196.443 222.299 196.472 222.266 195.7 222.118C194.822 221.949 194.8 221.817 194.8 216.8C194.8 211.783 194.822 211.651 195.7 211.482C196.535 211.322 196.54 211.305 195.767 211.254C195.308 211.225 194.813 211.32 194.667 211.467ZM225.829 211.828C224.923 212.734 224.745 213.801 224.901 217.401L225.039 220.6L225.12 216.882C225.192 213.524 225.295 213.068 226.182 212.182C226.722 211.642 227.005 211.2 226.81 211.2C226.616 211.2 226.175 211.483 225.829 211.828ZM229.9 211.612C230.395 211.811 230.8 212.19 230.8 212.454C230.8 212.718 230.916 212.818 231.057 212.676C231.447 212.286 230.391 211.197 229.651 211.225C229.21 211.243 229.291 211.368 229.9 211.612ZM148.557 216.8C148.557 219.77 148.62 220.985 148.697 219.5C148.774 218.015 148.774 215.585 148.697 214.1C148.62 212.615 148.557 213.83 148.557 216.8ZM126.551 216.8C126.551 219.33 126.616 220.365 126.696 219.1C126.775 217.835 126.775 215.765 126.696 214.5C126.616 213.235 126.551 214.27 126.551 216.8ZM91.748 216.8C91.748 219.11 91.814 220.055 91.895 218.9C91.976 217.745 91.976 215.855 91.895 214.7C91.814 213.545 91.748 214.49 91.748 216.8ZM219.748 216.8C219.748 219.11 219.814 220.055 219.895 218.9C219.976 217.745 219.976 215.855 219.895 214.7C219.814 213.545 219.748 214.49 219.748 216.8ZM233.8 213.6L231.8 213.874L233.676 213.937C234.708 213.972 235.664 213.82 235.8 213.6C235.936 213.38 235.992 213.228 235.924 213.263C235.856 213.297 234.9 213.449 233.8 213.6ZM110.14 216.8C110.14 218.67 110.209 219.435 110.293 218.5C110.377 217.565 110.377 216.035 110.293 215.1C110.209 214.165 110.14 214.93 110.14 216.8ZM136.659 215.7C135.563 218.572 135.727 219.2 137.576 219.2C138.443 219.2 139.238 219.062 139.343 218.893C139.447 218.724 138.828 218.652 137.966 218.735C136.134 218.909 135.96 218.341 137.054 215.749C137.636 214.368 137.744 214.287 138.05 215C138.37 215.746 138.387 215.748 138.297 215.033C138.12 213.629 137.327 213.952 136.659 215.7ZM228.025 215.77C227.103 216.88 227.659 219.795 228.8 219.839C229.712 219.874 229.719 219.863 228.879 219.71C228.051 219.56 227.971 219.354 228.079 217.671L228.2 215.8H232.064C234.189 215.8 235.719 215.668 235.464 215.506C234.574 214.942 228.534 215.157 228.025 215.77ZM236.131 219C236.133 220.54 236.205 221.121 236.292 220.291C236.379 219.461 236.377 218.201 236.289 217.491C236.2 216.781 236.129 217.46 236.131 219ZM205.6 217.2C205.6 217.42 205.775 217.6 205.99 217.6C206.204 217.6 206.667 218.157 207.019 218.837C207.371 219.518 207.749 219.985 207.858 219.875C207.968 219.766 207.639 219.031 207.129 218.243C206.215 216.833 205.6 216.413 205.6 217.2ZM144.045 218C144.053 218.33 144.406 219.32 144.829 220.2C145.252 221.08 145.486 221.362 145.349 220.826C144.973 219.361 144.029 217.314 144.045 218ZM102.803 220.492C102.371 221.202 101.698 221.91 101.309 222.064C100.633 222.331 100.633 222.345 101.313 222.372C101.723 222.388 102.379 221.803 102.853 221C103.708 219.551 105.732 219.063 107.153 219.962C108.463 220.792 106.725 224.277 104.188 225.906C103.755 226.184 103.971 226.142 104.668 225.812C107.156 224.636 108.864 220.821 107.386 219.74C105.936 218.68 103.679 219.05 102.803 220.492ZM159.9 219.757C159.515 220.049 159.2 220.431 159.2 220.606C159.2 220.781 159.542 220.614 159.961 220.236C162.826 217.643 165.306 221.196 162.771 224.261L161.498 225.8L162.949 224.306C165.976 221.189 163.29 217.183 159.9 219.757ZM172.596 219.7C172.497 219.975 172.368 221.55 172.308 223.2L172.2 226.2L170.2 226.437L168.2 226.674L170.051 226.737C172.463 226.819 172.706 226.453 172.866 222.499C172.998 219.243 172.947 218.718 172.596 219.7ZM129.477 221.877C129.1 222.893 128.858 223.791 128.938 223.872C129.019 223.952 129.4 223.193 129.785 222.185C130.17 221.176 130.412 220.279 130.323 220.19C130.235 220.101 129.854 220.86 129.477 221.877ZM153.625 220.438C153.599 221.109 154.802 222.409 155.431 222.388C155.634 222.381 155.474 222.186 155.074 221.954C154.675 221.722 154.192 221.142 154 220.666C153.763 220.08 153.643 220.006 153.625 220.438ZM230.8 220.333C230.8 220.59 230.44 221.16 230 221.6C229.56 222.04 229.376 222.4 229.591 222.4C230.117 222.4 231.375 220.441 231.054 220.121C230.914 219.981 230.8 220.077 230.8 220.333ZM225.592 221.5C225.832 221.995 226.337 222.386 226.714 222.368C227.27 222.343 227.286 222.293 226.8 222.104C226.47 221.975 225.965 221.584 225.678 221.235C225.235 220.696 225.222 220.737 225.592 221.5ZM92.249 222.4C93.004 225.532 98.94 228.217 102.274 226.936C102.873 226.706 102.181 226.593 100.074 226.578C95.982 226.548 93.9 225.416 92.509 222.464C92.018 221.421 92.013 221.42 92.249 222.4ZM125.531 223.002C125.187 223.761 125.073 224.278 125.278 224.152C125.686 223.899 126.502 221.968 126.289 221.756C126.216 221.683 125.875 222.244 125.531 223.002ZM209.278 222.5C209.592 222.995 210.263 224.084 210.77 224.921C211.277 225.758 211.774 226.36 211.875 226.259C212.07 226.063 209.218 221.6 208.897 221.6C208.793 221.6 208.965 222.005 209.278 222.5ZM145.626 222.251C145.612 222.499 145.882 223.378 146.227 224.204C146.981 226.006 146.746 226.302 144.4 226.505L142.6 226.66L144.4 226.724C147.222 226.824 147.49 226.466 146.493 223.935C146.03 222.761 145.64 222.003 145.626 222.251ZM220.001 222.153C219.998 222.997 221.654 225.06 222.872 225.728C224.123 226.414 223.518 225.699 222.148 224.873C221.9 224.723 221.316 223.97 220.85 223.2C220.384 222.43 220.002 221.959 220.001 222.153ZM235.094 223.303L234.388 224.6L235.194 223.656C235.88 222.852 236.246 221.994 235.9 222.003C235.845 222.004 235.482 222.589 235.094 223.303ZM186.617 223.524C186.481 224.143 186.522 225.06 186.708 225.563C186.968 226.265 187.046 226.003 187.046 224.439C187.046 222.111 186.965 221.938 186.617 223.524ZM196.92 224.4C196.92 225.61 196.995 226.105 197.087 225.5C197.178 224.895 197.178 223.905 197.087 223.3C196.995 222.695 196.92 223.19 196.92 224.4ZM134.08 223.68C133.816 223.944 133.611 224.439 133.625 224.78C133.641 225.16 133.791 225.052 134.012 224.5C134.502 223.281 140.477 223.114 141.168 224.3C141.392 224.685 141.581 224.811 141.588 224.58C141.627 223.242 135.278 222.482 134.08 223.68ZM112.001 224.538C114.644 227.549 122.484 227.976 124.199 225.202C124.336 224.98 123.765 225.202 122.93 225.694C119.944 227.456 114.971 226.88 112.201 224.451L111.003 223.4L112.001 224.538ZM128.293 225.166C127.857 226.832 132.057 227.623 133.251 226.1C133.743 225.473 133.731 225.454 133.131 225.923C131.928 226.864 128.574 226.39 128.725 225.3C128.878 224.202 128.57 224.107 128.293 225.166ZM232.6 225.627C231.94 226.05 231.605 226.397 231.856 226.398C232.106 226.399 232.736 226.046 233.256 225.613C234.445 224.623 234.159 224.629 232.6 225.627ZM154.027 226.848C155.298 227.204 158.017 227.217 158.883 226.872C159.259 226.722 158.101 226.595 156.31 226.588C154.496 226.582 153.485 226.697 154.027 226.848ZM189.7 226.696C190.965 226.775 193.035 226.775 194.3 226.696C195.565 226.616 194.53 226.551 192 226.551C189.47 226.551 188.435 226.616 189.7 226.696ZM202.105 226.687C202.714 226.779 203.614 226.777 204.105 226.682C204.597 226.587 204.1 226.511 203 226.514C201.9 226.517 201.497 226.595 202.105 226.687ZM225.249 226.854C226.501 227.205 229.62 227.215 230.483 226.872C230.858 226.722 229.621 226.597 227.732 226.594C225.843 226.59 224.726 226.707 225.249 226.854ZM96.449 247.546C95.926 247.693 97.043 247.81 98.932 247.806C100.821 247.803 102.058 247.678 101.683 247.528C100.82 247.185 97.701 247.195 96.449 247.546ZM183.2 247.602C182.6 247.795 183.24 247.837 184.8 247.706C186.23 247.586 187.475 247.423 187.567 247.344C187.889 247.065 184.188 247.284 183.2 247.602ZM109.3 247.865C108.997 247.987 108.8 248.826 108.8 249.991C108.8 252.203 109.064 252.4 112.023 252.4H113.982L114.105 259.5L114.229 266.6L114.215 259.4L114.2 252.2L111.8 252L109.4 251.8V250V248.2H116.8H124.2V250V251.8L121.8 252L119.4 252.2L119.386 259.2L119.372 266.2L119.495 259.3L119.618 252.4H121.577C124.534 252.4 124.8 252.202 124.8 250C124.8 248.623 124.622 248.017 124.167 247.843C123.414 247.554 110.021 247.574 109.3 247.865ZM126.814 248.374C126.365 249.213 126.303 261.172 126.74 262.726C126.883 263.235 126.937 260.575 126.859 256.815C126.675 247.862 126.657 247.926 129.313 248.08L131.4 248.2L131.615 254.8L131.83 261.4L131.915 254.98C131.975 250.42 131.861 248.421 131.52 248.08C130.699 247.259 127.297 247.471 126.814 248.374ZM139.305 247.887C139.914 247.979 140.814 247.977 141.305 247.882C141.797 247.787 141.3 247.711 140.2 247.714C139.1 247.717 138.697 247.795 139.305 247.887ZM149.315 247.896C150.588 247.976 152.568 247.975 153.715 247.894C154.862 247.814 153.82 247.749 151.4 247.75C148.98 247.751 148.042 247.816 149.315 247.896ZM164.892 248.068C163.528 249.432 164.571 252.437 166.38 252.353C167.327 252.309 167.314 252.287 166.2 252.049C165.083 251.81 165 251.668 165 249.996V248.2L169.689 248.087L174.378 247.975L174.633 248.987C175.063 250.702 174.532 251.932 173.299 252.074L172.2 252.2V257.596V262.992L173.4 263.2C174.524 263.395 174.6 263.521 174.6 265.204V267H169.8H165V265.204C165 263.532 165.083 263.39 166.2 263.151C167.314 262.913 167.327 262.891 166.38 262.847C164.992 262.783 164.4 263.487 164.4 265.2C164.4 267.407 164.833 267.6 169.8 267.6C174.767 267.6 175.2 267.407 175.2 265.2C175.2 263.537 174.623 262.8 173.32 262.8C172.407 262.8 172.4 262.758 172.4 257.627V252.453L173.493 252.327C174.851 252.169 175.548 250.551 174.968 248.9L174.582 247.8L169.983 247.688C166.746 247.609 165.238 247.722 164.892 248.068ZM103.878 248.782C105.56 249.808 106.489 251.282 106.329 252.674C106.14 254.323 103.274 254.551 101.945 253.022C101.456 252.46 100.902 252 100.714 252C100.526 252 100.925 252.54 101.6 253.2C103.744 255.296 106.8 254.751 106.8 252.273C106.8 251.031 104.207 247.999 103.147 248.001C102.846 248.002 103.175 248.354 103.878 248.782ZM157.837 248.746C158.738 249.168 159.951 250.118 160.533 250.857C161.115 251.596 161.593 251.996 161.596 251.747C161.601 251.229 158.588 248.4 158.032 248.4C157.83 248.4 157.336 248.305 156.933 248.189C156.53 248.073 156.937 248.324 157.837 248.746ZM180.526 248.78C179.825 249.207 179.032 249.972 178.764 250.479C178.366 251.23 178.493 251.178 179.45 250.2C180.096 249.54 180.979 248.786 181.412 248.524C181.845 248.261 182.11 248.037 182 248.025C181.89 248.013 181.226 248.353 180.526 248.78ZM142.566 255.6C142.566 259.67 142.625 261.335 142.698 259.3C142.771 257.265 142.771 253.935 142.698 251.9C142.625 249.865 142.566 251.53 142.566 255.6ZM92.403 249.996C91.917 250.679 91.446 251.994 91.357 252.919C91.172 254.831 91.417 254.509 91.772 252.37C91.903 251.584 92.386 250.537 92.845 250.044C93.305 249.551 93.592 249.059 93.484 248.951C93.376 248.842 92.889 249.313 92.403 249.996ZM146.171 257.6C146.171 262.55 146.228 264.575 146.299 262.1C146.369 259.625 146.369 255.575 146.299 253.1C146.228 250.625 146.171 252.65 146.171 257.6ZM137.289 255.477C137.204 261.667 137.161 261.982 136.311 262.577C135.822 262.92 135.614 263.2 135.849 263.2C137.341 263.2 137.624 261.856 137.5 255.357L137.378 249L137.289 255.477ZM97.3 251.865C97.025 251.976 96.8 252.254 96.8 252.482C96.8 252.769 96.955 252.769 97.3 252.484C97.575 252.257 98.34 251.992 99 251.895L100.2 251.72L99 251.692C98.34 251.676 97.575 251.754 97.3 251.865ZM177.852 252.5C177.527 253.715 177.587 262.026 177.928 262.885C178.078 263.262 178.2 260.877 178.2 257.585C178.2 254.293 178.176 251.6 178.147 251.6C178.117 251.6 177.985 252.005 177.852 252.5ZM151.375 252.522C151.264 252.809 151.225 255.284 151.287 258.022L151.4 263L152.876 263.123C154.471 263.255 156.804 262.283 156.794 261.49C156.79 261.148 156.699 261.133 156.494 261.44C155.974 262.218 154.491 262.8 153.026 262.8H151.6V257.6V252.4H153.026C154.491 252.4 155.974 252.982 156.494 253.76C156.699 254.067 156.79 254.052 156.794 253.71C156.81 252.428 151.83 251.336 151.375 252.522ZM187.511 252.623C188 252.965 188.414 253.55 188.432 253.923C188.453 254.375 188.533 254.426 188.673 254.077C188.903 253.502 187.729 252 187.049 252C186.814 252 187.022 252.28 187.511 252.623ZM161.8 257.6C161.8 260.545 161.914 262.425 162.053 261.777C162.192 261.13 162.305 259.25 162.305 257.6C162.305 255.95 162.192 254.07 162.053 253.423C161.914 252.775 161.8 254.655 161.8 257.6ZM193.757 257.6C193.757 260.57 193.82 261.785 193.897 260.3C193.974 258.815 193.974 256.385 193.897 254.9C193.82 253.415 193.757 254.63 193.757 257.6ZM97.6 254.356C98.15 254.811 98.87 255.185 99.2 255.189C99.726 255.194 99.406 254.981 97.101 253.79C96.826 253.647 97.05 253.902 97.6 254.356ZM182.652 254.5C182.333 255.692 182.384 260.019 182.728 260.885C182.878 261.262 183 259.777 183 257.585C183 253.213 182.999 253.205 182.652 254.5ZM156.94 257.6C156.94 259.47 157.009 260.235 157.093 259.3C157.177 258.365 157.177 256.835 157.093 255.9C157.009 254.965 156.94 255.73 156.94 257.6ZM100.6 255.6C101.04 255.789 101.67 255.944 102 255.944C102.378 255.944 102.304 255.817 101.8 255.6C101.36 255.411 100.73 255.256 100.4 255.256C100.022 255.256 100.096 255.383 100.6 255.6ZM92.413 256.672C92.987 257.592 95.912 259.422 96.256 259.077C96.369 258.965 96.075 258.751 95.604 258.601C95.133 258.452 94.1 257.761 93.309 257.066C92.269 256.153 92.021 256.044 92.413 256.672ZM104.117 256.836C104.951 257.276 105.986 258.213 106.415 258.918C106.845 259.623 107.198 259.999 107.199 259.754C107.202 258.633 104.131 255.951 102.92 256.018C102.744 256.027 103.283 256.396 104.117 256.836ZM97.4 259.6C97.84 259.789 98.47 259.944 98.8 259.944C99.178 259.944 99.104 259.817 98.6 259.6C98.16 259.411 97.53 259.256 97.2 259.256C96.822 259.256 96.896 259.383 97.4 259.6ZM100.7 260.596C102.134 261.219 102.379 262.121 101.3 262.803C100.894 263.06 100.84 263.185 101.171 263.099C103.029 262.621 102.069 259.968 100.056 260.016C99.695 260.024 99.985 260.286 100.7 260.596ZM91.461 260.7C91.358 260.865 92.292 260.945 93.537 260.878C95.697 260.762 95.831 260.812 96.481 261.978C96.875 262.685 97.466 263.18 97.881 263.154C98.441 263.117 98.463 263.07 97.978 262.939C97.636 262.847 97.04 262.238 96.655 261.586C95.964 260.415 92.052 259.748 91.461 260.7ZM188.432 261.277C188.414 261.65 188 262.235 187.511 262.577C187.022 262.92 186.814 263.2 187.049 263.2C187.729 263.2 188.903 261.698 188.673 261.123C188.533 260.774 188.453 260.825 188.432 261.277ZM199.37 262.286C201.791 262.455 202.319 263.27 201.846 266.1L201.629 267.4L202.072 266.1C202.973 263.459 202.149 262.205 199.485 262.167L197.196 262.134L199.37 262.286ZM91.225 262.856C91.211 263.216 91.515 263.855 91.9 264.275C92.285 264.694 92.472 264.84 92.316 264.597C92.16 264.355 91.856 263.717 91.641 263.178C91.394 262.56 91.241 262.441 91.225 262.856ZM106.4 264.105C106.07 264.813 105.188 265.799 104.441 266.296C103.693 266.793 103.309 267.2 103.588 267.2C104.322 267.2 107.2 264.21 107.2 263.447C107.2 262.541 107.084 262.636 106.4 264.105ZM196.465 264.62C196.383 267.156 196.844 267.617 199.38 267.535L201.4 267.47L199.2 267.235L197 267L196.765 264.8L196.53 262.6L196.465 264.62ZM141.83 263.907C141.465 265.054 139.868 266.4 138.138 267.017C137.149 267.369 136.9 267.571 137.441 267.582C138.975 267.614 143.038 264.105 142.31 263.376C142.18 263.246 141.964 263.485 141.83 263.907ZM160.489 264.365C160.016 265.006 158.905 265.849 158.021 266.239C156.208 267.039 156.073 267.456 157.845 266.785C159.113 266.304 160.662 264.992 161.251 263.9C161.825 262.835 161.452 263.063 160.489 264.365ZM127.564 264.733C127.78 265.136 128.271 265.721 128.655 266.033C129.087 266.384 128.99 266.104 128.401 265.3C127.351 263.865 126.957 263.598 127.564 264.733ZM178.864 264.8C179.21 265.35 180.101 266.126 180.846 266.525C182.153 267.224 182.165 267.224 181.201 266.525C180.651 266.126 179.759 265.35 179.219 264.8L178.237 263.8L178.864 264.8ZM93.573 266.167C93.981 266.659 95.6 267.318 95.6 266.992C95.6 266.919 95.042 266.58 94.36 266.24C93.422 265.772 93.23 265.755 93.573 266.167ZM96.876 267.66C97.384 267.803 98.52 267.92 99.4 267.92C100.28 267.92 101.416 267.803 101.924 267.66C102.432 267.517 101.296 267.4 99.4 267.4C97.504 267.4 96.368 267.517 96.876 267.66ZM115.9 267.482C116.395 267.578 117.205 267.578 117.7 267.482C118.195 267.387 117.79 267.309 116.8 267.309C115.81 267.309 115.405 267.387 115.9 267.482ZM132 267.598C132.988 267.916 136.689 268.135 136.367 267.856C136.275 267.777 135.03 267.614 133.6 267.494C132.04 267.363 131.4 267.405 132 267.598ZM149.315 267.496C150.588 267.576 152.568 267.575 153.715 267.494C154.862 267.414 153.82 267.349 151.4 267.35C148.98 267.351 148.042 267.416 149.315 267.496ZM183.276 267.66C183.784 267.803 184.92 267.92 185.8 267.92C186.68 267.92 187.816 267.803 188.324 267.66C188.832 267.517 187.696 267.4 185.8 267.4C183.904 267.4 182.768 267.517 183.276 267.66ZM277.3 304.667C277.004 304.785 276.8 305.6 276.8 306.665C276.8 308.447 276.789 308.461 275.623 308.205C272.184 307.45 269.714 312.228 272.106 315.008C273.031 316.084 273.746 316.237 277.111 316.08L278.822 316L278.711 310.333C278.603 304.824 278.449 304.207 277.3 304.667ZM187.419 306.037C184.115 308.938 185.473 316 189.336 316C190.006 316 189.89 315.845 188.794 315.273C186.705 314.182 185.335 311.262 185.95 309.21C186.9 306.038 190.798 304.14 193.023 305.767C193.998 306.481 193.547 307.014 192.461 306.432C191.088 305.698 189.67 305.949 188.306 307.167C184.6 310.479 189.049 317.023 193.085 314.196C194.03 313.533 194.721 314.036 193.854 314.756C193.558 315.001 192.615 315.471 191.758 315.8L190.2 316.398L191.594 316.146C193.273 315.844 194.8 314.906 194.8 314.178C194.8 313.282 194.08 313.138 192.832 313.784C188.819 315.859 185.296 311.024 188.396 307.697C189.437 306.579 191.099 306.145 192.055 306.741C193.196 307.454 194.4 307.312 194.4 306.464C194.4 304.471 189.541 304.174 187.419 306.037ZM224.482 305.301C223.733 306.204 225.034 307.538 225.859 306.713C226.582 305.989 226.336 304.8 225.462 304.8C225.152 304.8 224.711 305.026 224.482 305.301ZM249.689 305.423C249.2 305.765 248.811 306.44 248.825 306.923L248.851 307.8L249.203 306.926C249.969 305.024 254.8 304.404 254.8 306.208C254.8 306.615 254.551 306.636 253.671 306.304C252.183 305.743 250.52 306.192 250.186 307.246C249.829 308.368 250.744 309.239 253.112 310.033C256.523 311.177 256.887 314.079 253.806 315.56C252.471 316.202 249.62 315.494 249.275 314.436C249.138 314.017 249.284 313.956 249.845 314.201C252.42 315.322 254.8 314.733 254.8 312.975C254.8 311.911 254.542 311.704 251.802 310.576C250.617 310.087 249.598 309.353 249.306 308.776C248.84 307.856 248.811 307.849 248.806 308.651C248.798 309.731 249.486 310.294 251.838 311.136C254.084 311.94 254.806 312.829 253.999 313.801C253.447 314.467 252.622 314.463 249.9 313.782C248.982 313.552 248.8 313.636 248.8 314.286C248.8 316.334 253.863 316.904 255.469 315.038C257.515 312.659 256.312 310.423 252.335 309.209C250.712 308.713 250.132 307.805 250.87 306.915C251.342 306.347 252.285 306.373 254.295 307.008C255.508 307.391 255.997 306.186 254.95 305.394C253.942 304.63 250.796 304.648 249.689 305.423ZM280.643 305.431C280.316 306.284 281.075 307.223 281.85 306.925C282.624 306.629 282.391 305.044 281.55 304.884C281.193 304.816 280.785 305.062 280.643 305.431ZM278.4 310.427C278.4 315.366 278.358 315.641 277.646 315.415C277.231 315.283 276.429 315.386 275.864 315.644C272.821 317.03 270.245 312.631 272.454 309.822C273.217 308.852 273.527 308.75 275.354 308.868L277.4 309L277.522 307.1C277.782 303.051 278.4 305.393 278.4 310.427ZM219.092 307.889C218.652 308.859 218.553 309.513 218.809 309.769C219.024 309.984 219.2 310.922 219.2 311.854C219.2 315.417 220.799 317.274 222.784 316.018C223.267 315.713 223.176 315.47 222.261 314.621C220.837 313.302 220.859 310.837 222.3 310.205C223.429 309.71 223.471 308.564 222.37 308.276C221.914 308.157 221.443 307.686 221.324 307.23C220.979 305.91 219.836 306.247 219.092 307.889ZM258.4 307.171C258.4 307.596 258.109 308.234 257.754 308.589C257.159 309.184 257.159 309.292 257.754 309.949C258.187 310.427 258.4 311.402 258.4 312.903C258.4 315.915 259.755 317.221 261.6 315.986C262.105 315.648 262.026 315.454 261.1 314.759C259.542 313.589 259.479 310.578 261 310C261.55 309.791 262 309.431 262 309.2C262 308.969 261.55 308.609 261 308.4C260.388 308.167 260 307.706 260 307.21C260 306.667 259.737 306.4 259.2 306.4C258.677 306.4 258.4 306.667 258.4 307.171ZM220.8 307.8C221.033 308.412 221.494 308.8 221.99 308.8C223.093 308.8 223.02 309.513 221.9 309.672C220.586 309.859 220.33 314.025 221.579 314.9C222.323 315.422 222.315 316 221.562 316C220.619 316 220 314.595 220 312.451C220 311.191 219.784 309.944 219.52 309.68C219.147 309.307 219.147 309.093 219.52 308.72C219.784 308.456 220 307.916 220 307.52C220 306.503 220.354 306.627 220.8 307.8ZM259.764 307.8C259.902 308.35 260.282 308.8 260.608 308.8C260.933 308.8 261.2 308.98 261.2 309.2C261.2 309.42 260.949 309.6 260.643 309.6C259.927 309.6 259.6 310.477 259.6 312.4C259.6 314.323 259.927 315.2 260.643 315.2C260.949 315.2 261.2 315.38 261.2 315.6C261.2 316.315 259.64 316.022 259.214 315.226C258.986 314.801 258.8 313.619 258.8 312.6C258.8 311.581 258.627 310.423 258.415 310.027C258.158 309.547 258.187 308.888 258.502 308.053C259.074 306.539 259.43 306.468 259.764 307.8ZM198.8 308.397C198.47 308.609 197.91 308.692 197.556 308.582C196.377 308.215 195.959 309.371 196.082 312.662C196.197 315.711 196.228 315.8 197.2 315.8C198.141 315.8 198.207 315.66 198.323 313.414C198.454 310.847 198.877 310 200.025 310C201.003 310 201.379 309.298 200.785 308.582C200.226 307.909 199.646 307.854 198.8 308.397ZM203.768 308.754C200.209 310.925 201.563 316.07 205.716 316.16C206.981 316.187 207.791 315.98 208.262 315.51C209.195 314.577 208.723 314.234 206.654 314.341C205.496 314.401 204.754 314.227 204.413 313.815C203.965 313.275 204.149 313.2 205.918 313.2C209.341 313.2 209.769 312.72 208.581 310.216C207.566 308.078 205.771 307.533 203.768 308.754ZM212.436 308.426C207.482 310.457 209.96 316.632 215.515 316.099L217.6 315.898V312.149V308.4L216.3 308.448C215.585 308.473 214.64 308.39 214.2 308.263C213.76 308.136 212.966 308.209 212.436 308.426ZM238.555 308.392C234.008 310.229 236.147 317.084 240.985 316.176C243.977 315.615 243.591 314.228 240.437 314.21C237.678 314.194 237.877 313.266 240.67 313.121C242.546 313.023 243.019 312.86 243.132 312.268C243.618 309.714 240.927 307.434 238.555 308.392ZM285.557 308.599C281.772 310.656 282.971 316.182 287.202 316.182C291.206 316.182 292.514 310.877 289.032 308.754C287.575 307.866 286.956 307.838 285.557 308.599ZM224.68 308.653C223.834 309.499 224.392 316.057 225.3 315.928C226.157 315.806 226.2 315.629 226.2 312.205C226.2 308.695 225.732 307.601 224.68 308.653ZM227.433 308.746C226.751 309.851 229.927 315.801 231.26 315.915C232.54 316.024 235.2 311.281 235.2 308.889C235.2 306.9 233.268 308.864 232.036 312.106C231.444 313.662 231.01 313.471 230.198 311.3C229.182 308.584 228.133 307.614 227.433 308.746ZM263.467 308.667C263.32 308.813 263.2 310.143 263.2 311.622C263.2 315.669 263.882 316.263 268.315 316.073L270.03 316L269.915 312.3C269.809 308.905 269.734 308.6 269 308.6C268.295 308.6 268.176 308.933 268 311.4C267.666 316.08 264.8 315.678 264.8 310.951C264.8 308.519 264.363 307.77 263.467 308.667ZM280.8 312.171C280.8 315.757 280.852 316 281.615 316C282.772 316 282.66 308.697 281.5 308.475C280.873 308.355 280.8 308.739 280.8 312.171ZM200.4 309.2C200.4 309.42 200.099 309.6 199.731 309.6C198.305 309.6 197.6 310.811 197.6 313.262C197.6 314.554 197.421 315.6 197.2 315.6C196.078 315.6 196.759 309.259 197.9 309.087C199.94 308.778 200.4 308.798 200.4 309.2ZM206.982 309.048C207.813 309.367 208.924 311.501 208.641 312.236C208.488 312.635 207.719 312.8 206.013 312.8C204.151 312.8 203.6 312.935 203.6 313.391C203.6 314.4 205.418 315.3 206.884 315.017C208.145 314.773 208.167 314.789 207.4 315.406C205.551 316.894 202.4 314.944 202.4 312.312C202.4 309.761 204.654 308.155 206.982 309.048ZM217.198 312.284L217.2 315.568L216.1 315.594C215.495 315.609 214.381 315.641 213.625 315.664C210.757 315.754 209.456 312.383 211.446 310.018C212.425 308.855 212.642 308.783 214.843 308.888L217.195 309L217.198 312.284ZM229.839 311.695C231.054 314.575 231.636 314.543 232.871 311.532C233.86 309.121 235.234 307.601 234.59 309.631C233.642 312.619 231.985 315.6 231.272 315.6C230.554 315.6 228 310.55 228 309.129C228 308.222 228.907 309.489 229.839 311.695ZM241.971 309.854C243.648 311.986 243.159 312.8 240.2 312.8C237.403 312.8 237.094 313.093 238.5 314.415C239.218 315.09 239.71 315.213 240.929 315.021C242.707 314.742 242.618 315.401 240.825 315.795C238.409 316.325 235.962 313.8 236.565 311.398C237.226 308.764 240.401 307.858 241.971 309.854ZM265.149 314.54C266.616 316.304 268.8 314.274 268.8 311.146C268.8 310.076 268.98 309.2 269.2 309.2C269.433 309.2 269.6 310.514 269.6 312.343V315.485L268.5 315.49C267.895 315.492 267.005 315.626 266.523 315.788C264.913 316.327 263.6 314.483 263.6 311.685C263.6 308.431 264.157 308.165 264.4 311.303C264.51 312.72 264.847 314.177 265.149 314.54ZM282 312.424C282 314.275 281.833 315.6 281.6 315.6C281.364 315.6 281.2 314.192 281.2 312.176C281.2 309.996 281.345 308.843 281.6 309C281.82 309.136 282 310.677 282 312.424ZM289.418 309.782C291.409 311.773 290.372 315.101 287.543 315.803C285.905 316.209 283.92 314.265 283.92 312.255C283.92 309.132 287.264 307.628 289.418 309.782ZM225.6 312.4C225.6 314.267 225.433 315.6 225.2 315.6C224.967 315.6 224.8 314.267 224.8 312.4C224.8 310.533 224.967 309.2 225.2 309.2C225.433 309.2 225.6 310.533 225.6 312.4ZM204.004 310.195C203.153 311.22 203.827 312 205.564 312C207.378 312 207.824 311.567 207.204 310.408C206.687 309.441 204.738 309.311 204.004 310.195ZM212.56 309.906C210.538 311.256 211.495 315.2 213.845 315.2C214.61 315.2 215.911 313.872 216.196 312.8C216.424 311.944 216.343 311.988 215.637 313.1C214.193 315.375 211.816 314.596 212.073 311.933C212.253 310.061 214.119 309.366 215.242 310.752C215.719 311.341 216 311.479 216 311.124C216 309.859 213.798 309.079 212.56 309.906ZM238.065 310.236C237.128 311.296 237.815 312 239.787 312C241.266 312 241.6 311.867 241.6 311.28C241.6 309.688 239.181 308.973 238.065 310.236ZM273.038 310.467C271.718 312.352 273.215 315.424 275.309 315.127C276.709 314.928 277.692 312.622 277.051 311.043C276.376 309.38 274.034 309.044 273.038 310.467ZM285.462 310.331C284.044 311.898 285.176 315.2 287.13 315.2C288.154 315.2 289.6 313.54 289.6 312.363C289.6 309.976 286.958 308.678 285.462 310.331ZM206.702 310.7C206.814 311.04 206.391 311.2 205.384 311.2C204.092 311.2 203.968 311.121 204.416 310.581C205.002 309.875 206.455 309.951 206.702 310.7ZM240.567 310.243C241.675 310.668 241.249 311.2 239.8 311.2C238.428 311.2 237.912 310.664 238.9 310.265C239.621 309.974 239.859 309.971 240.567 310.243ZM276.026 310.414C276.913 310.889 277.102 313.138 276.32 313.92C275.643 314.597 274.391 314.516 273.531 313.738C271.657 312.041 273.78 309.212 276.026 310.414ZM288.723 311.2C289.569 312.74 288.792 314.4 287.224 314.4C285.333 314.4 284.531 312.203 285.878 310.714C286.766 309.732 288.035 309.949 288.723 311.2Z" fill="#97AEAF"/>
<path fill-rule="evenodd" clip-rule="evenodd" d="M177.3 102.301L75.2 102.402L75.29 109.501L75.38 116.6L75.499 109.702L75.619 102.803L177.509 102.702C233.549 102.646 282.681 102.653 286.691 102.717L293.981 102.835L294.101 109.717L294.22 116.6L294.31 109.5L294.4 102.4H287.433C283.601 102.4 280.226 102.355 279.933 102.3C279.64 102.245 233.455 102.245 177.3 102.301ZM98.9 207.087C99.505 207.178 100.495 207.178 101.1 207.087C101.705 206.995 101.21 206.92 100 206.92C98.79 206.92 98.295 206.995 98.9 207.087ZM117.3 207.087C117.905 207.178 118.895 207.178 119.5 207.087C120.105 206.995 119.61 206.92 118.4 206.92C117.19 206.92 116.695 206.995 117.3 207.087ZM155.7 207.087C156.305 207.178 157.295 207.178 157.9 207.087C158.505 206.995 158.01 206.92 156.8 206.92C155.59 206.92 155.095 206.995 155.7 207.087ZM226.9 207.087C227.505 207.178 228.495 207.178 229.1 207.087C229.705 206.995 229.21 206.92 228 206.92C226.79 206.92 226.295 206.995 226.9 207.087ZM95 208.103C93.67 209.075 92.832 210.015 92.813 210.554C92.806 210.749 93.176 210.43 93.636 209.845C94.096 209.26 95.131 208.434 95.936 208.009C96.741 207.583 97.13 207.233 96.8 207.23C96.47 207.228 95.66 207.62 95 208.103ZM103.8 207.848C104.46 208.186 105.495 209.027 106.1 209.716C107.183 210.95 107.645 210.818 106.68 209.551C106.104 208.794 103.584 207.196 103 207.218C102.78 207.225 103.14 207.509 103.8 207.848ZM113.8 207.944C112.396 208.811 110.98 210.313 111.282 210.615C111.397 210.73 111.788 210.373 112.15 209.82C112.513 209.267 113.482 208.459 114.304 208.025C115.127 207.591 115.62 207.228 115.4 207.219C115.18 207.21 114.46 207.537 113.8 207.944ZM122.562 208.107C125.529 209.803 125.8 210.53 125.8 216.793C125.8 219.836 125.932 222.117 126.094 221.863C126.819 220.721 126.426 211.955 125.581 210.454C124.772 209.017 122.485 207.194 121.506 207.207C121.228 207.21 121.703 207.615 122.562 208.107ZM135.023 208.089C134.68 208.578 134.415 209.253 134.432 209.589C134.45 209.925 134.691 209.689 134.967 209.064C135.244 208.439 135.724 207.767 136.035 207.57C136.398 207.34 136.429 207.21 136.123 207.206C135.86 207.203 135.365 207.6 135.023 208.089ZM139.6 208C140.04 208.44 140.4 209.01 140.4 209.267C140.4 209.523 140.497 209.637 140.615 209.518C140.981 209.153 139.903 207.2 139.336 207.2C138.976 207.2 139.063 207.463 139.6 208ZM151.696 207.998C150.224 208.896 148.789 211.001 148.832 212.2C148.854 212.8 148.978 212.699 149.33 211.8C150.201 209.575 150.771 208.898 152.489 208.048C153.43 207.582 153.93 207.201 153.6 207.202C153.27 207.202 152.413 207.561 151.696 207.998ZM171.482 207.482C171.776 207.691 172.011 209.151 172.082 211.213L172.2 214.6H175.6H179L179.118 211.213C179.189 209.151 179.424 207.691 179.718 207.482C180.06 207.239 180.026 207.186 179.6 207.301C179.148 207.423 178.951 208.297 178.8 210.832L178.6 214.2H175.6H172.6L172.4 210.832C172.249 208.297 172.052 207.423 171.6 207.301C171.174 207.186 171.14 207.239 171.482 207.482ZM205.059 208.1C205.499 208.595 206.449 209.945 207.171 211.1C208.491 213.212 209.242 213.977 208.349 212.3C207.26 210.255 205.059 207.2 204.674 207.2C204.446 207.2 204.62 207.605 205.059 208.1ZM215.914 216.587C216.003 223.926 215.917 225.973 215.514 226.107C215.194 226.213 215.227 226.261 215.6 226.233C216.258 226.185 216.747 208.188 216.108 207.547C215.938 207.377 215.851 211.446 215.914 216.587ZM223.207 208.052C221.791 208.915 220.836 209.914 220.813 210.554C220.806 210.749 221.176 210.43 221.636 209.845C222.096 209.26 223.131 208.434 223.936 208.009C224.741 207.583 225.22 207.228 225 207.219C224.78 207.21 223.973 207.585 223.207 208.052ZM230.8 207.285C231.302 207.82 233.6 208.781 233.6 208.457C233.6 208.257 233.285 208.003 232.9 207.892C232.515 207.781 231.84 207.552 231.4 207.382C230.96 207.212 230.69 207.168 230.8 207.285ZM161.649 208.52C162.007 208.792 162.681 209.641 163.148 210.407C163.615 211.173 163.998 211.547 163.999 211.238C164.001 210.467 162.071 207.997 161.48 208.013C161.193 208.02 161.261 208.224 161.649 208.52ZM167.771 216.8C167.771 221.75 167.828 223.775 167.899 221.3C167.969 218.825 167.969 214.775 167.899 212.3C167.828 209.825 167.771 211.85 167.771 216.8ZM183.371 216.8C183.371 221.75 183.428 223.775 183.499 221.3C183.569 218.825 183.569 214.775 183.499 212.3C183.428 209.825 183.371 211.85 183.371 216.8ZM234.785 210.194C236.387 213.327 233.602 214.859 231.321 212.1L230.411 211L231.035 212.3C231.614 213.508 231.799 213.6 233.642 213.6C236.353 213.6 236.83 211.915 234.79 209.551L233.97 208.6L234.785 210.194ZM98.815 210.765C98.394 211.044 98.709 211.146 99.944 211.129C101.277 211.11 101.905 211.343 102.777 212.178C104.205 213.546 107.31 213.561 107.511 212.2C107.619 211.469 107.592 211.46 107.195 212.1C106.521 213.185 104.075 213.022 102.807 211.807C101.642 210.69 99.696 210.182 98.815 210.765ZM117.265 210.735C116.91 210.971 117.304 211.091 118.437 211.091C119.724 211.091 120.323 211.312 120.872 211.99C121.272 212.484 121.6 212.717 121.6 212.506C121.6 211.317 118.372 209.998 117.265 210.735ZM154.96 210.971C153.336 211.678 153.2 212.132 153.2 216.859C153.2 221.412 153.469 222.163 155.321 222.774C157.103 223.362 158.832 222.731 159.765 221.152C160.421 220.041 160.65 219.939 162.206 220.063C163.151 220.138 163.84 220.065 163.738 219.9C163.15 218.948 160.412 219.638 159.373 221C158.105 222.662 155.472 223.006 154.262 221.669C153.244 220.544 153.299 212.796 154.331 211.862C155.476 210.827 158.068 211.001 159.362 212.2C160.424 213.184 163.283 213.636 163.743 212.893C163.847 212.724 163.216 212.654 162.34 212.737C161.16 212.85 160.52 212.683 159.873 212.095C157.963 210.356 156.92 210.118 154.96 210.971ZM226.347 211.004C225.354 211.544 224.575 212.708 224.954 213.087C225.049 213.182 225.243 212.896 225.384 212.451C225.684 211.506 226.835 211.06 228.8 211.129C229.831 211.165 230.042 211.077 229.6 210.795C228.759 210.259 227.58 210.334 226.347 211.004ZM92.243 211.833C91.898 212.731 91.952 221.306 92.306 221.862C92.468 222.116 92.6 219.821 92.6 216.762C92.6 213.703 92.574 211.2 92.543 211.2C92.511 211.2 92.376 211.485 92.243 211.833ZM110.652 212.1C110.327 213.312 110.387 220.825 110.728 221.685C110.878 222.062 111 219.857 111 216.785C111 210.722 111.005 210.784 110.652 212.1ZM189.598 216.719L189.797 222.2L189.911 217.032C189.974 214.19 189.884 211.724 189.712 211.551C189.541 211.379 189.489 213.704 189.598 216.719ZM194.175 211.721C194.065 212.008 194.026 214.573 194.089 217.421L194.204 222.6L194.402 216.899C194.597 211.284 194.571 210.689 194.175 211.721ZM220.243 211.833C218.91 215.305 220.371 223.84 222.528 225.187C223.152 225.577 223.039 225.322 222.125 224.282C220.58 222.522 220.247 220.694 220.468 215.194C220.637 210.978 220.627 210.831 220.243 211.833ZM132.615 214.215C132.23 215.224 132.004 216.137 132.113 216.246C132.221 216.355 132.6 215.593 132.954 214.554C133.308 213.515 133.534 212.601 133.457 212.523C133.379 212.446 133 213.207 132.615 214.215ZM121.744 216.8C121.744 218.89 121.812 219.745 121.894 218.7C121.976 217.655 121.976 215.945 121.894 214.9C121.812 213.855 121.744 214.71 121.744 216.8ZM137.067 213.467C136.92 213.613 136.803 214.018 136.806 214.367C136.811 214.882 136.877 214.897 137.161 214.449C137.353 214.146 137.711 214.021 137.955 214.172C138.209 214.329 138.4 214.179 138.4 213.824C138.4 213.196 137.562 212.971 137.067 213.467ZM96.54 216.8C96.54 218.67 96.609 219.435 96.693 218.5C96.777 217.565 96.777 216.035 96.693 215.1C96.609 214.165 96.54 214.93 96.54 216.8ZM114.937 216.6C114.939 218.36 115.009 219.03 115.093 218.089C115.178 217.149 115.177 215.709 115.091 214.889C115.005 214.07 114.936 214.84 114.937 216.6ZM209.048 214.1C210.983 217.374 212 218.434 212 217.176C212 216.943 211.858 216.841 211.684 216.948C211.51 217.055 210.864 216.346 210.247 215.372C209.273 213.831 208.246 212.742 209.048 214.1ZM142.65 215.2C143.025 216.705 143.934 218.684 143.938 218C143.939 217.67 143.594 216.68 143.171 215.8C142.748 214.92 142.514 214.65 142.65 215.2ZM138.412 215.2C138.412 215.53 138.587 216.07 138.8 216.4C139.145 216.933 139.188 216.933 139.188 216.4C139.188 216.07 139.013 215.53 138.8 215.2C138.455 214.667 138.412 214.667 138.412 215.2ZM228.261 215.9C228.159 216.065 229.723 216.2 231.737 216.2H235.4V219.272C235.4 222.808 234.782 223.995 232.162 225.493C231.303 225.985 230.755 226.39 230.946 226.393C234.329 226.458 238.305 216.97 235.367 215.843C234.459 215.494 228.483 215.543 228.261 215.9ZM205.2 220.571C205.2 224.194 205.07 225.273 204.571 225.771C204.039 226.304 204.032 226.4 204.529 226.4C205.422 226.4 205.6 225.498 205.6 220.967C205.6 218.456 205.759 216.8 206 216.8C206.22 216.8 206.404 216.935 206.409 217.1C206.414 217.265 206.786 217.85 207.236 218.4C207.946 219.268 207.931 219.175 207.127 217.703C205.576 214.864 205.2 215.424 205.2 220.571ZM135.508 217.983C135.231 218.967 135.397 219.537 135.832 219.101C135.96 218.973 136.001 218.448 135.924 217.934L135.784 217L135.508 217.983ZM139.291 218.1C139.337 218.705 139.515 219.2 139.687 219.2C140.118 219.2 140.069 218.325 139.598 217.6C139.299 217.141 139.227 217.258 139.291 218.1ZM130.6 219.6C130.45 220.073 130.417 220.55 130.527 220.66C130.637 220.77 130.85 220.473 131 220C131.15 219.527 131.183 219.05 131.073 218.94C130.963 218.83 130.75 219.127 130.6 219.6ZM172.282 219.052C172.127 219.207 172 220.82 172 222.637C172 224.924 171.846 225.993 171.5 226.109C171.211 226.206 171.254 226.259 171.6 226.235C172.066 226.202 172.245 225.432 172.4 222.796L172.6 219.4L175.684 219.283L178.768 219.167L178.884 222.679C178.976 225.459 179.125 226.2 179.6 226.234C179.93 226.258 179.982 226.203 179.715 226.112C179.398 226.004 179.191 224.747 179.115 222.474L179 219L175.782 218.885C174.011 218.822 172.436 218.897 172.282 219.052ZM228 219.28C228 219.456 228.315 219.602 228.7 219.605C229.085 219.608 229.833 219.727 230.363 219.868C230.986 220.035 231.234 219.979 231.066 219.707C230.756 219.206 228 218.822 228 219.28ZM103.461 219.9C103.358 220.065 104.103 220.2 105.116 220.2C106.739 220.2 106.992 220.319 107.239 221.2L107.52 222.2L107.56 221.143C107.584 220.52 107.34 219.986 106.967 219.843C106.077 219.501 103.684 219.54 103.461 219.9ZM208.021 219.706C207.997 220.057 210.827 224.4 211.079 224.4C211.261 224.4 209.8 221.901 208.721 220.366C208.348 219.835 208.033 219.538 208.021 219.706ZM148.838 221.2C148.804 222.164 150.124 224.8 150.64 224.8C150.779 224.8 150.613 224.373 150.271 223.852C149.929 223.331 149.475 222.296 149.261 221.552C148.927 220.391 148.867 220.341 148.838 221.2ZM224.8 220.884C224.8 221.224 225.099 221.749 225.465 222.051C226.074 222.553 226.087 222.515 225.611 221.6C224.914 220.259 224.8 220.158 224.8 220.884ZM144.812 221.2C144.812 221.53 144.987 222.07 145.2 222.4C145.545 222.933 145.588 222.933 145.588 222.4C145.588 222.07 145.413 221.53 145.2 221.2C144.855 220.667 144.812 220.667 144.812 221.2ZM230.481 221.618C230.113 222.208 229.527 222.406 228.097 222.425C226.508 222.447 226.352 222.511 227.133 222.825C228.591 223.409 232.005 221.872 231.149 221.016C231.05 220.917 230.75 221.188 230.481 221.618ZM163.406 222.782C163.269 223.213 162.613 224.023 161.948 224.582C161.283 225.142 160.914 225.6 161.128 225.6C161.606 225.6 164 222.921 164 222.386C164 221.735 163.668 221.957 163.406 222.782ZM99.285 222.86C100.016 223.127 100.603 223.121 101.085 222.84C101.654 222.509 101.433 222.428 100 222.444C98.339 222.462 98.284 222.494 99.285 222.86ZM106.061 223.663C105.544 224.3 104.464 225.168 103.661 225.593C102.857 226.017 102.415 226.373 102.677 226.382C103.508 226.413 105.909 224.799 106.599 223.745C107.53 222.325 107.188 222.273 106.061 223.663ZM117.5 222.888C118.147 223.2 118.653 223.2 119.3 222.888C120.09 222.507 119.98 222.454 118.4 222.454C116.82 222.454 116.71 222.507 117.5 222.888ZM92.804 223.025C92.795 223.888 96.555 226.778 97.047 226.286C97.145 226.188 96.674 225.879 96 225.6C95.325 225.32 94.331 224.531 93.791 223.846C93.251 223.161 92.807 222.791 92.804 223.025ZM111.202 223.025C111.2 223.546 113.082 225.339 114.274 225.951C115.775 226.723 115.87 226.438 114.4 225.57C113.63 225.116 112.596 224.261 112.102 223.672C111.608 223.082 111.203 222.791 111.202 223.025ZM124.681 223.839C124.286 224.368 123.296 225.152 122.481 225.582C121.667 226.013 121.155 226.373 121.346 226.382C122.027 226.417 124.655 224.724 125.15 223.931C125.876 222.769 125.532 222.702 124.681 223.839ZM141.46 224.4C141.789 225.06 142.126 225.6 142.208 225.6C142.291 225.6 142.17 225.06 141.94 224.4C141.71 223.74 141.373 223.2 141.192 223.2C141.01 223.2 141.131 223.74 141.46 224.4ZM133.044 225.074C132.889 225.555 132.456 226.029 132.081 226.128C131.486 226.284 131.482 226.313 132.051 226.354C132.853 226.411 133.738 225.409 133.5 224.713C133.395 224.405 133.213 224.549 133.044 225.074ZM211.64 225.5C211.944 225.995 212.449 226.4 212.763 226.4C213.077 226.4 213.258 226.353 213.167 226.296C213.075 226.238 212.57 225.833 212.043 225.396L211.087 224.6L211.64 225.5ZM99.305 226.687C99.914 226.779 100.814 226.777 101.305 226.682C101.797 226.587 101.3 226.511 100.2 226.514C99.1 226.517 98.697 226.595 99.305 226.687ZM117.5 226.682C117.995 226.778 118.805 226.778 119.3 226.682C119.795 226.587 119.39 226.509 118.4 226.509C117.41 226.509 117.005 226.587 117.5 226.682ZM155.705 226.687C156.314 226.779 157.214 226.777 157.705 226.682C158.197 226.587 157.7 226.511 156.6 226.514C155.5 226.517 155.097 226.595 155.705 226.687ZM226.9 226.687C227.505 226.778 228.495 226.778 229.1 226.687C229.705 226.595 229.21 226.52 228 226.52C226.79 226.52 226.295 226.595 226.9 226.687ZM98.1 247.887C98.705 247.978 99.695 247.978 100.3 247.887C100.905 247.795 100.41 247.72 99.2 247.72C97.99 247.72 97.495 247.795 98.1 247.887ZM184.9 247.887C185.505 247.978 186.495 247.978 187.1 247.887C187.705 247.795 187.21 247.72 186 247.72C184.79 247.72 184.295 247.795 184.9 247.887ZM103.2 248.916C104.393 249.502 105.236 250.272 105.699 251.2C106.084 251.97 106.399 252.309 106.399 251.954C106.401 250.555 103.458 247.968 101.92 248.016C101.634 248.026 102.21 248.431 103.2 248.916ZM109.467 248.267C109.101 248.632 109.129 251.509 109.5 251.738C109.665 251.84 109.8 251.041 109.8 249.962C109.8 248.883 109.785 248 109.767 248C109.748 248 109.613 248.12 109.467 248.267ZM123.8 250C123.8 251.058 123.935 251.84 124.1 251.738C124.265 251.636 124.4 250.854 124.4 250C124.4 249.146 124.265 248.364 124.1 248.262C123.935 248.16 123.8 248.942 123.8 250ZM130.79 248.263C131.044 248.389 131.2 250.878 131.2 254.815C131.2 261.934 131.459 262.96 133.425 263.608C134.874 264.087 137.6 263.271 137.6 262.358C137.6 262.047 137.34 262.111 136.869 262.538C135.899 263.415 133.078 263.416 132.349 262.54C131.951 262.061 131.745 260.012 131.6 255.072C131.451 250.003 131.27 248.239 130.89 248.162C130.609 248.106 130.565 248.151 130.79 248.263ZM137.867 248.267C137.72 248.413 137.64 251.518 137.689 255.167L137.778 261.8L137.9 255.428C137.973 251.576 138.194 248.848 138.459 248.528C138.901 247.997 138.37 247.763 137.867 248.267ZM146.58 248.509C146.041 249.914 146.608 266.936 147.2 267.117C147.684 267.265 147.704 267.198 147.3 266.77C146.602 266.03 146.584 249.176 147.28 248.48C147.653 248.107 147.651 248 147.267 248C146.997 248 146.687 248.229 146.58 248.509ZM154.033 248.147C154.125 248.228 154.92 248.414 155.8 248.562C156.946 248.754 157.23 248.714 156.8 248.421C156.26 248.053 153.632 247.793 154.033 248.147ZM164.959 248.562C164.596 249.509 164.97 251.732 165.51 251.839C165.791 251.895 165.836 251.849 165.61 251.737C165.024 251.446 165.1 248.507 165.7 248.265C166.092 248.107 166.089 248.056 165.687 248.032C165.406 248.014 165.078 248.253 164.959 248.562ZM189.872 248.828C191.589 249.678 192.666 250.946 193.218 252.765C193.465 253.582 193.538 253.632 193.564 253C193.638 251.192 190.601 248.005 188.8 248.002C188.47 248.001 188.953 248.373 189.872 248.828ZM92.905 249.908C92.413 250.508 92.008 251.165 92.005 251.367C92.002 251.568 92.045 251.657 92.1 251.565C92.155 251.472 92.729 250.812 93.375 250.098C94.021 249.384 94.381 248.803 94.175 248.808C93.969 248.812 93.397 249.307 92.905 249.908ZM126.964 255.4C126.963 259.14 127.023 260.724 127.097 258.92C127.171 257.115 127.172 254.055 127.098 252.12C127.025 250.184 126.964 251.66 126.964 255.4ZM158.682 249.585C159.387 250.014 160.324 251.049 160.764 251.883C161.217 252.741 161.572 253.103 161.582 252.717C161.604 251.888 158.748 248.799 157.962 248.801C157.653 248.802 157.977 249.155 158.682 249.585ZM174.493 250C174.493 250.77 174.575 251.085 174.676 250.7C174.776 250.315 174.776 249.685 174.676 249.3C174.575 248.915 174.493 249.23 174.493 250ZM179.56 250.042C178.922 250.726 178.4 251.476 178.4 251.709C178.4 251.942 178.445 252.056 178.5 251.962C178.555 251.868 179.22 251.118 179.978 250.296C180.737 249.473 181.214 248.8 181.039 248.8C180.864 248.8 180.199 249.359 179.56 250.042ZM96.8 252C95.653 253.147 96.013 254.032 98 254.958C98.33 255.111 98.195 254.937 97.7 254.57C96.548 253.716 96.511 252.146 97.635 251.789C98.98 251.362 100.998 251.933 101.93 253.005C102.786 253.99 105.668 254.46 106.143 253.693C106.247 253.524 105.628 253.452 104.767 253.535C103.468 253.658 102.96 253.472 101.787 252.442C100.086 250.949 98.033 250.767 96.8 252ZM184.436 251.636C183.236 252.116 182.425 253.152 182.428 254.2C182.431 254.781 182.58 254.658 182.976 253.748C183.847 251.748 186.423 251.173 188.024 252.622C189.174 253.662 189.187 261.526 188.041 262.563C186.654 263.818 183.945 263.289 183.101 261.6C182.611 260.619 182.405 260.439 182.413 261C182.466 264.497 188.213 264.779 189.17 261.332C190.892 255.132 188.409 250.048 184.436 251.636ZM91.701 253.4C91.705 254.28 91.787 254.593 91.883 254.095C91.979 253.598 91.975 252.878 91.875 252.495C91.775 252.113 91.696 252.52 91.701 253.4ZM114.4 259.505C114.55 265.078 114.727 266.96 115.11 267.037C115.391 267.094 115.436 267.049 115.21 266.937C114.953 266.809 114.8 264.07 114.8 259.59C114.8 255.662 114.665 252.363 114.5 252.261C114.335 252.159 114.29 255.418 114.4 259.505ZM119.067 252.267C118.92 252.413 118.8 255.728 118.8 259.633C118.8 264.083 118.647 266.809 118.39 266.937C118.165 267.049 118.21 267.094 118.49 267.037C118.88 266.959 119.753 251.993 119.367 251.999C119.348 252 119.213 252.12 119.067 252.267ZM151.067 252.267C150.698 252.636 150.729 262.709 151.1 262.938C151.265 263.04 151.4 260.621 151.4 257.562C151.4 254.503 151.385 252 151.367 252C151.348 252 151.213 252.12 151.067 252.267ZM155.58 252.571C156.902 253.303 157.144 254.082 157.144 257.6C157.144 261.118 156.902 261.897 155.58 262.629C154.872 263.021 154.786 263.176 155.271 263.186C156.806 263.218 157.6 261.313 157.6 257.6C157.6 253.887 156.806 251.982 155.271 252.014C154.786 252.024 154.872 252.179 155.58 252.571ZM167.2 257.6C167.2 261.263 167.341 263.16 167.6 263C167.833 262.856 168 260.604 168 257.6C168 254.596 167.833 252.344 167.6 252.2C167.341 252.04 167.2 253.937 167.2 257.6ZM178.154 257.6C178.154 260.35 178.218 261.475 178.296 260.1C178.374 258.725 178.374 256.475 178.296 255.1C178.218 253.725 178.154 254.85 178.154 257.6ZM161.74 257.6C161.74 259.47 161.809 260.235 161.893 259.3C161.977 258.365 161.977 256.835 161.893 255.9C161.809 254.965 161.74 255.73 161.74 257.6ZM92 255.471C92 256.426 96 259.234 97.28 259.177C97.566 259.164 96.887 258.739 95.772 258.231C94.656 257.724 93.351 256.81 92.872 256.2C92.392 255.591 92 255.263 92 255.471ZM99.4 255.6C99.84 255.789 100.47 255.944 100.8 255.944C101.178 255.944 101.104 255.817 100.6 255.6C100.16 255.411 99.53 255.256 99.2 255.256C98.822 255.256 98.896 255.383 99.4 255.6ZM103.429 256.969C107.72 258.921 107.869 264.172 103.696 266.375C102.873 266.809 102.398 267.173 102.641 267.182C104.424 267.254 107.2 263.732 107.198 261.4C107.196 259.103 104.076 255.927 101.916 256.023C101.632 256.036 102.313 256.461 103.429 256.969ZM98.6 259.6C99.796 260.114 100.795 260.114 100 259.6C99.67 259.387 99.04 259.222 98.6 259.234L97.8 259.256L98.6 259.6ZM91.395 261.208C90.765 262.228 93.247 266.4 94.485 266.4C94.692 266.4 94.313 265.938 93.642 265.374C92.246 264.199 91.318 261.627 92.11 261.124C92.477 260.89 92.48 260.811 92.124 260.806C91.862 260.803 91.534 260.984 91.395 261.208ZM142.053 262C141.966 263.559 140.581 265.486 138.917 266.364C138.083 266.804 137.598 267.173 137.841 267.182C139.518 267.25 142.605 263.588 142.284 261.913C142.116 261.039 142.107 261.042 142.053 262ZM193.073 262.735C192.945 263.375 192.277 264.461 191.589 265.149C190.901 265.837 190.516 266.4 190.734 266.4C191.748 266.4 194.136 262.403 193.501 261.767C193.393 261.66 193.201 262.096 193.073 262.735ZM160.789 263.226C160.51 263.9 159.636 264.89 158.848 265.426C158.059 265.962 157.636 266.4 157.907 266.4C158.607 266.4 161.6 263.32 161.6 262.6C161.6 261.683 161.348 261.877 160.789 263.226ZM101.696 262.864C101.441 263.119 100.37 263.325 99.316 263.322C97.455 263.318 97.437 263.329 98.687 263.713C100.011 264.12 102.4 263.501 102.4 262.751C102.4 262.285 102.252 262.308 101.696 262.864ZM196.88 264.668C196.965 266.272 197.176 266.984 197.6 267.099C198.085 267.23 198.096 267.188 197.658 266.881C197.286 266.62 197.161 265.856 197.258 264.45C197.336 263.322 197.256 262.4 197.08 262.4C196.904 262.4 196.814 263.421 196.88 264.668ZM127.218 263.138C127.172 264.525 130.112 267.201 131.68 267.2C131.966 267.2 131.428 266.817 130.484 266.35C129.387 265.807 128.492 264.978 128.002 264.05C127.58 263.253 127.227 262.842 127.218 263.138ZM178.421 263.2C178.417 263.88 179.412 265.16 180.6 266.002C181.146 266.389 181.068 266.193 180.354 265.385C179.778 264.733 179.108 263.84 178.866 263.4C178.561 262.848 178.423 262.786 178.421 263.2ZM173.7 263.452C174.539 263.7 174.709 266.638 173.9 266.909C173.613 267.006 173.655 267.058 174 267.033C175.019 266.958 174.829 263.435 173.8 263.328C173.178 263.264 173.156 263.292 173.7 263.452ZM201.693 264.8C201.693 265.57 201.775 265.885 201.876 265.5C201.976 265.115 201.976 264.485 201.876 264.1C201.775 263.715 201.693 264.03 201.693 264.8ZM154.8 266.8L153.4 267.095L154.8 267.141C155.57 267.167 156.47 267.013 156.8 266.8C157.527 266.33 157.033 266.33 154.8 266.8ZM98.505 267.487C99.114 267.579 100.014 267.577 100.505 267.482C100.997 267.387 100.5 267.311 99.4 267.314C98.3 267.317 97.897 267.395 98.505 267.487ZM133.7 267.487C134.305 267.578 135.295 267.578 135.9 267.487C136.505 267.395 136.01 267.32 134.8 267.32C133.59 267.32 133.095 267.395 133.7 267.487ZM184.905 267.487C185.514 267.579 186.414 267.577 186.905 267.482C187.397 267.387 186.9 267.311 185.8 267.314C184.7 267.317 184.297 267.395 184.905 267.487ZM187.838 306.42C184.14 309.668 186.087 315.782 190.821 315.782C192.381 315.782 194.575 314.606 194.186 313.978C194.044 313.747 193.6 313.835 193.085 314.196C191.685 315.176 189.782 314.952 188.306 313.633C184.845 310.54 188.452 304.287 192.461 306.432C193.547 307.014 193.998 306.481 193.023 305.767C191.659 304.77 189.392 305.055 187.838 306.42ZM249.994 305.924C248.105 307.454 248.938 309.494 251.906 310.604C254.338 311.513 254.8 311.896 254.8 313C254.8 314.733 252.403 315.314 249.845 314.201C249.284 313.956 249.138 314.017 249.275 314.436C249.62 315.494 252.471 316.202 253.806 315.56C256.887 314.079 256.523 311.177 253.112 310.033C250.744 309.239 249.829 308.368 250.186 307.246C250.52 306.192 252.183 305.743 253.671 306.304C254.551 306.636 254.8 306.615 254.8 306.208C254.8 305.019 251.363 304.816 249.994 305.924ZM277.522 307.1L277.4 309L275.354 308.868C273.527 308.75 273.217 308.852 272.454 309.822C270.245 312.631 272.821 317.03 275.864 315.644C276.429 315.386 277.231 315.283 277.646 315.415C278.358 315.641 278.4 315.366 278.4 310.427C278.4 305.393 277.782 303.051 277.522 307.1ZM220 307.52C220 307.916 219.784 308.456 219.52 308.72C219.147 309.093 219.147 309.307 219.52 309.68C219.784 309.944 220 311.191 220 312.451C220 314.595 220.619 316 221.562 316C222.315 316 222.323 315.422 221.579 314.9C220.33 314.025 220.586 309.859 221.9 309.672C223.02 309.513 223.093 308.8 221.99 308.8C221.494 308.8 221.033 308.412 220.8 307.8C220.354 306.627 220 306.503 220 307.52ZM258.502 308.053C258.187 308.888 258.158 309.547 258.415 310.027C258.627 310.423 258.8 311.581 258.8 312.6C258.8 313.619 258.986 314.801 259.214 315.226C259.64 316.022 261.2 316.315 261.2 315.6C261.2 315.38 260.949 315.2 260.643 315.2C259.927 315.2 259.6 314.323 259.6 312.4C259.6 310.477 259.927 309.6 260.643 309.6C260.949 309.6 261.2 309.42 261.2 309.2C261.2 308.98 260.933 308.8 260.608 308.8C260.282 308.8 259.902 308.35 259.764 307.8C259.43 306.468 259.074 306.539 258.502 308.053ZM75.29 314.498L75.2 321.597L177.3 321.698C233.455 321.754 282.775 321.747 286.9 321.683L294.4 321.566L294.31 314.483L294.22 307.4L294.101 314.283L293.981 321.165L286.691 321.283C282.681 321.347 233.549 321.354 177.509 321.298L75.619 321.197L75.499 314.298L75.38 307.4L75.29 314.498ZM197.9 309.087C196.759 309.259 196.078 315.6 197.2 315.6C197.421 315.6 197.6 314.554 197.6 313.262C197.6 310.811 198.305 309.6 199.731 309.6C200.099 309.6 200.4 309.42 200.4 309.2C200.4 308.798 199.94 308.778 197.9 309.087ZM203.382 309.782C200.654 312.51 204.43 317.796 207.4 315.406C208.167 314.789 208.145 314.773 206.884 315.017C205.418 315.3 203.6 314.4 203.6 313.391C203.6 312.935 204.151 312.8 206.013 312.8C208.771 312.8 209.207 312.348 208.244 310.485C207.222 308.509 204.979 308.185 203.382 309.782ZM211.446 310.018C209.456 312.383 210.757 315.754 213.625 315.664C214.381 315.641 215.495 315.609 216.1 315.594L217.2 315.568L217.198 312.284L217.195 309L214.843 308.888C212.642 308.783 212.425 308.855 211.446 310.018ZM228 309.129C228 310.55 230.554 315.6 231.272 315.6C231.985 315.6 233.642 312.619 234.59 309.631C235.234 307.601 233.86 309.121 232.871 311.532C231.636 314.543 231.054 314.575 229.839 311.695C228.907 309.489 228 308.222 228 309.129ZM237.61 309.59C235.09 312.11 237.39 316.549 240.825 315.795C242.618 315.401 242.707 314.742 240.929 315.021C239.71 315.213 239.218 315.09 238.5 314.415C237.094 313.093 237.403 312.8 240.2 312.8C242.667 312.8 242.8 312.752 242.8 311.854C242.8 309.275 239.406 307.794 237.61 309.59ZM263.9 309.03C262.26 310.69 264.5 316.465 266.523 315.788C267.005 315.626 267.895 315.492 268.5 315.49L269.6 315.485V312.343C269.6 310.514 269.433 309.2 269.2 309.2C268.98 309.2 268.8 310.076 268.8 311.146C268.8 316.463 264.811 316.605 264.4 311.303C264.29 309.886 264.065 308.863 263.9 309.03ZM281.2 312.176C281.2 314.192 281.364 315.6 281.6 315.6C281.833 315.6 282 314.275 282 312.424C282 310.677 281.82 309.136 281.6 309C281.345 308.843 281.2 309.996 281.2 312.176ZM284.83 309.768C283.422 311.267 283.582 313.47 285.203 314.919C288.383 317.76 292.445 312.809 289.418 309.782C288.099 308.463 286.062 308.457 284.83 309.768ZM224.8 312.4C224.8 314.267 224.967 315.6 225.2 315.6C225.433 315.6 225.6 314.267 225.6 312.4C225.6 310.533 225.433 309.2 225.2 309.2C224.967 309.2 224.8 310.533 224.8 312.4ZM207.204 310.408C207.824 311.567 207.378 312 205.564 312C204.514 312 203.896 311.795 203.743 311.395C203.119 309.769 206.367 308.843 207.204 310.408ZM215.493 310.1C217.394 312.53 215.087 316.267 212.666 314.68C211.03 313.608 210.971 310.967 212.56 309.906C213.264 309.436 215.067 309.555 215.493 310.1ZM241.12 310.08C241.384 310.344 241.6 310.884 241.6 311.28C241.6 312.219 238.108 312.347 237.753 311.421C237.226 310.048 239.988 308.948 241.12 310.08ZM277.051 311.043C277.692 312.622 276.709 314.928 275.309 315.127C274.177 315.288 272.4 313.565 272.4 312.307C272.4 309.492 276.022 308.507 277.051 311.043ZM288.977 310.489C290.83 313.134 287.82 316.62 285.6 314.4C284.622 313.422 284.551 311.338 285.462 310.331C286.387 309.31 288.209 309.391 288.977 310.489Z" fill="#7C7C7C"/>
</g>
<defs>
<clipPath id="clip0_5_25">
<rect width="400" height="400" fill="white"/>
</clipPath>
</defs>
</svg>
