<svg width="233" height="234" viewBox="0 0 233 234" fill="none" xmlns="http://www.w3.org/2000/svg">
<path fill-rule="evenodd" clip-rule="evenodd" d="M0.985997 1.50107C0.881997 1.77607 0.842999 53.9301 0.898999 117.4L0.999997 232.8H116.8H232.6V117V1.20007L116.887 1.10107C24.784 1.02307 1.135 1.10507 0.985997 1.50107ZM226.295 7.56107C226.457 7.72407 226.428 226.305 226.265 226.468C226.087 226.647 7.508 226.641 7.33 226.463C7.225 226.358 7.17399 144.199 7.19899 14.7011L7.19999 7.40207L109.1 7.30108C202.644 7.20808 225.993 7.26007 226.295 7.56107ZM27.838 113.107C24.876 114.8 24.6 115.535 24.6 121.729C24.6 127.967 25.03 129.085 28.018 130.609C32.273 132.78 39.548 129.92 39.121 126.244C38.937 124.659 35.791 124.446 35.208 125.979C34.205 128.617 29.474 128.486 28.749 125.8C28.391 124.469 28.335 119.826 28.658 118.209C29.206 115.47 32.619 114.71 34.836 116.834C36.123 118.068 38.896 118.112 39.126 116.902C39.785 113.424 31.912 110.777 27.838 113.107ZM46.332 113.011C43.431 114.543 43 115.681 43 121.8C43 129.25 44.673 131.408 50.435 131.393C56.22 131.379 57.8 129.32 57.8 121.802C57.8 115.529 57.53 114.803 54.562 113.107C52.5 111.927 48.472 111.88 46.332 113.011ZM67.919 112.7C67.57 112.975 66.349 115.72 65.206 118.8C64.063 121.88 62.599 125.803 61.952 127.519C60.702 130.832 60.727 131.403 62.124 131.395C63.96 131.383 64.784 130.901 65.27 129.556L65.761 128.2H69.649H73.538L73.996 129.587C74.473 131.032 76.318 131.824 77.842 131.239C78.545 130.97 78.522 130.823 77.256 127.4C76.808 126.19 75.447 122.501 74.232 119.202C71.678 112.275 70.282 110.837 67.919 112.7ZM84.394 113.116C79.43 115.741 79.456 127.928 84.431 130.473C89.021 132.82 96.477 129.927 95.917 126.016C95.704 124.528 92.655 124.645 91.751 126.176C90.461 128.359 86.676 128.61 85.592 126.584C85.08 125.628 85.084 117.964 85.597 117.006C86.598 115.135 90.128 115.152 91.833 117.037C92.579 117.861 95.359 118.114 95.801 117.398C95.938 117.177 95.648 116.283 95.158 115.411C93.407 112.296 88.089 111.162 84.394 113.116ZM100.5 112.465C100.121 112.618 100 114.866 100 121.79V130.913L101 131.164C103.505 131.793 103.959 131.248 104.085 127.46L104.2 124H107.6H111L111.115 127.46C111.241 131.248 111.695 131.793 114.2 131.164L115.2 130.913V121.764V112.615L114.2 112.364C111.689 111.734 111.242 112.276 111.116 116.104L111 119.6H107.6H104.2L104.082 116.213C104.01 114.123 103.78 112.708 103.482 112.519C102.95 112.18 101.28 112.15 100.5 112.465ZM119.9 112.632C118.591 113.394 118.996 115.355 120.6 116.026L122 116.611V121.8V126.989L120.6 127.574C118.945 128.266 118.583 130.242 119.974 130.986C121.106 131.592 127.294 131.512 128.158 130.88C129.371 129.993 128.867 128.079 127.3 127.617L126 127.235V121.923V116.611L127.4 116.026C129.055 115.334 129.417 113.358 128.026 112.614C127.034 112.083 120.819 112.097 119.9 112.632ZM133.429 112.829C132.897 113.36 132.8 114.749 132.8 121.8C132.8 130.831 132.93 131.4 135 131.4C136.871 131.4 137.2 130.529 137.2 125.571C137.2 119.743 137.435 119.749 140.981 125.656C144.055 130.774 144.931 131.611 146.791 131.202L148.015 130.933L147.907 121.667L147.8 112.4L146.72 112.275C144.265 111.992 144 112.534 144 117.847C144 123.727 143.928 123.731 140.391 118.073C136.575 111.966 135.272 110.985 133.429 112.829ZM155.838 113.107C152.752 114.871 151.596 119.442 152.578 125.992C153.861 134.545 167.4 132.974 167.4 124.272V121.2H163.8H160.2V122.6C160.2 123.895 160.305 124.015 161.6 124.2C164.407 124.601 163.185 127.96 160.232 127.96C157.265 127.96 156.8 127.152 156.8 121.991C156.8 117.953 156.895 117.305 157.59 116.61C159.252 114.948 162.173 115.271 163.477 117.261C164.243 118.431 167.6 118.674 167.6 117.56C167.6 113.355 160.263 110.576 155.838 113.107ZM52.999 116.62C55.059 118.679 54.195 126.539 51.78 127.69C48.693 129.162 46.947 127.131 46.847 121.95C46.736 116.183 49.855 113.48 52.999 116.62ZM71.006 120.7C71.436 122.075 71.849 123.425 71.924 123.7C72.021 124.06 71.378 124.2 69.629 124.2C68.293 124.2 67.2 124.117 67.2 124.015C67.2 123.913 67.574 122.788 68.031 121.515C68.488 120.242 68.932 118.975 69.018 118.7C69.396 117.493 70.28 118.383 71.006 120.7ZM27.353 153.612C25.317 154.505 24 156.385 24 158.4C24 161.365 25.587 162.626 31.8 164.595C33.944 165.274 34.4 165.696 34.4 167C34.4 169.545 29.308 169.464 28.082 166.9C27.036 164.712 23.341 165.503 23.993 167.776C25.794 174.054 37.445 173.706 38.608 167.339C39.177 164.222 37.673 162.609 32.697 161.002C28.454 159.631 27.327 158.473 28.8 157C30.018 155.782 32.087 155.949 33.739 157.4C36.331 159.676 39.018 158.929 37.729 156.291C36.352 153.473 30.887 152.062 27.353 153.612ZM41.763 153.552C40.939 155.698 41.713 156.793 44.2 157L46.6 157.2L46.709 164.495L46.818 171.789L47.809 172.038C48.354 172.175 49.246 172.175 49.791 172.038L50.782 171.789L50.891 164.495L51 157.2L53.4 157L55.8 156.8V155V153.2L48.891 153.091C43.2 153 41.944 153.082 41.763 153.552ZM59.7 153.265C58.772 153.639 59.017 167.073 59.987 168.974C62.216 173.343 70.817 173.36 73.378 169C74.099 167.772 74.217 166.786 74.339 160.968C74.492 153.653 74.305 153 72.051 153C70.142 153 70 153.487 70 160.054C70 167.059 69.781 167.946 67.901 168.567C64.112 169.817 63.2 168.121 63.2 159.824C63.2 154.413 63.107 153.45 62.567 153.243C61.835 152.962 60.424 152.973 59.7 153.265ZM79.28 153.48C78.6 154.16 78.6 171.04 79.28 171.72C80.381 172.821 88.325 171.99 90.712 170.525C94.652 168.107 94.835 157.276 90.979 154.75C88.69 153.249 80.409 152.351 79.28 153.48ZM97.7 153.265C96.5 153.749 97.116 156.555 98.5 156.914L99.8 157.251V162.597V167.942L98.634 168.254C96.786 168.748 96.205 170.348 97.429 171.571C98.078 172.221 103.532 172.475 105.5 171.948C107.032 171.537 106.797 168.751 105.2 168.4L104 168.136V162.618V157.1L105.2 156.86C106.598 156.58 107.045 153.733 105.767 153.243C105.018 152.955 98.422 152.973 97.7 153.265ZM114.193 153.557C113.528 153.847 112.403 154.746 111.693 155.556L110.4 157.028V162.24C110.4 168.575 111.117 170.281 114.349 171.635C120.903 174.381 125.4 170.705 125.4 162.6C125.4 154.485 120.724 150.712 114.193 153.557ZM119.601 156.801C121.452 157.757 122.233 162.505 121.17 166.332C120.427 169.009 116.643 169.722 114.958 167.502C114.225 166.536 114.218 158.674 114.949 157.711C116.029 156.289 117.903 155.923 119.601 156.801ZM88.771 158.054C89.996 159.612 89.987 165.6 88.757 167.164C87.983 168.148 87.713 168.226 85.457 168.118L83 168L82.887 163.022C82.745 156.771 82.644 157 85.558 157C87.657 157 88.041 157.126 88.771 158.054ZM129.485 167.648C128.627 168.506 129.202 171.785 130.256 172.05C132.41 172.59 133.4 171.815 133.4 169.59V167.6L131.585 167.482C130.587 167.416 129.642 167.491 129.485 167.648Z" fill="#070707"/>
<path fill-rule="evenodd" clip-rule="evenodd" d="M35.957 27.1799C18.683 31.9429 18.816 56.6289 36.14 61.2419C45.207 63.6559 55.11 57.8469 57.583 48.6639C58.068 46.8619 59.2 46.8699 59.2 48.6739C59.2 53.0269 65.917 59.6839 71.875 61.2359C88.784 65.6409 101.066 44.2839 88.746 31.8989C81.83 24.9459 71.119 24.8419 63.975 31.6569C61.673 33.8519 59.2 38.0309 59.2 39.7259C59.2 41.5299 58.068 41.5379 57.583 39.7359C55.102 30.5229 45.034 24.6769 35.957 27.1799ZM43.365 36.9869C46.218 38.0719 48.128 40.9629 48.131 44.2019C48.139 52.1909 37.849 54.9459 33.802 48.0389C30.117 41.7519 36.499 34.3759 43.365 36.9869ZM78.335 36.7769C86.168 39.5409 85.782 49.4729 77.749 51.8159C74.931 52.6379 71.728 51.2179 69.591 48.1999C65.714 42.7239 71.982 34.5349 78.335 36.7769ZM103.6 59.6909C103.27 59.8169 100.345 61.4369 97.1 63.2919L91.2 66.6649V75.9839V85.3019L97.252 88.7509C107.496 94.5889 107.204 94.9649 107.187 75.9739C107.178 65.3059 107.049 61.4359 106.687 60.9649C106.249 60.3949 104.644 59.3519 104.326 59.4319C104.257 59.4489 103.93 59.5659 103.6 59.6909ZM50.6 61.9389C44.272 65.3719 34.371 65.4699 30.62 62.1379C30.411 61.9519 30.096 61.7999 29.92 61.7999C29.367 61.7999 29.525 92.7649 30.08 93.3199C30.966 94.2059 86.766 93.9919 87.443 93.0999C87.937 92.4499 88.33 61.3999 87.845 61.3999C87.76 61.3999 86.506 61.9539 85.06 62.6309C78.676 65.6179 70.563 65.1739 65.207 61.5439C62.8 59.9129 53.892 60.1539 50.6 61.9389Z" fill="#06C4CC"/>
<path fill-rule="evenodd" clip-rule="evenodd" d="M0.584996 1.0989C0.480996 1.3749 0.440998 53.7099 0.497998 117.4L0.599995 233.2H116.8H233V117V0.799908L116.888 0.698903C24.208 0.618903 0.736996 0.699904 0.584996 1.0989ZM232.8 117V233H116.8H0.8V117V0.999905H116.8H232.8V117ZM109.346 7.7009L7.693 7.80191L7.41 21.5009C7.082 37.3939 7.286 225.62 7.632 225.965C7.938 226.271 225.656 226.277 225.963 225.971C226.253 225.68 226.283 8.3499 225.993 8.0599C225.584 7.6509 209.526 7.6009 109.346 7.7009ZM225.736 18.4649C226.08 31.8349 226.08 202.165 225.736 215.535L225.472 225.8H116.8H8.128L7.865 215.9C7.72 210.455 7.60199 165.95 7.60199 117C7.60199 68.0499 7.72 23.5449 7.865 18.0999L8.128 8.1999H116.8H225.472L225.736 18.4649ZM35.4 26.9999C34.381 27.4379 35.432 27.4379 36.8 26.9999C37.604 26.7429 37.643 26.6769 37 26.6679C36.56 26.6619 35.84 26.8109 35.4 26.9999ZM44.2 26.9999C45.396 27.5139 46.395 27.5139 45.6 26.9999C45.27 26.7869 44.64 26.6219 44.2 26.6339L43.4 26.6559L44.2 26.9999ZM71.2 26.9999C70.405 27.5139 71.404 27.5139 72.6 26.9999L73.4 26.6559L72.6 26.6339C72.16 26.6219 71.53 26.7869 71.2 26.9999ZM79.8 26.9999C80.996 27.5139 81.995 27.5139 81.2 26.9999C80.87 26.7869 80.24 26.6219 79.8 26.6339L79 26.6559L79.8 26.9999ZM31.974 28.3889C30.969 28.9119 29.889 29.6689 29.574 30.0699C29.058 30.7259 29.066 30.7489 29.65 30.2919C30.008 30.0129 31.268 29.2509 32.45 28.5989C35.002 27.1929 34.605 27.0179 31.974 28.3889ZM82.433 27.5489C82.845 27.9169 85.2 28.9999 85.2 28.8209C85.2 28.5899 82.982 27.3999 82.553 27.3999C82.396 27.3999 82.342 27.4669 82.433 27.5489ZM48.4 28.3329C48.4 28.4059 49.293 29.0439 50.385 29.7509C52.956 31.4179 55.01 33.8049 56.447 36.7999C57.081 38.1199 57.6 38.9549 57.6 38.6559C57.6 37.6639 55.184 33.5609 53.7 32.0319C51.799 30.0749 48.4 27.7029 48.4 28.3329ZM85.8 29.2569C87.837 31.0639 88.587 31.5909 87.802 30.6629C87.366 30.1479 86.647 29.5409 86.204 29.3139C85.762 29.0869 85.58 29.0619 85.8 29.2569ZM63.978 31.0999C63.22 31.8149 62.339 32.7599 62.021 33.1999C61.703 33.6399 62.378 33.1069 63.521 32.0149C64.664 30.9229 65.6 29.9779 65.6 29.9149C65.6 29.6399 65.274 29.8779 63.978 31.0999ZM27.555 31.6999C26.21 33.1869 25.46 34.1999 25.703 34.1999C25.813 34.1999 26.567 33.3899 27.379 32.3999C29.006 30.4139 29.117 29.9719 27.555 31.6999ZM88.809 31.5779C88.804 31.7859 89.224 32.4159 89.743 32.9779C90.262 33.5399 91.16 34.8099 91.739 35.7999C92.319 36.7899 92.794 37.4099 92.796 37.1779C92.8 36.7199 90.95 33.8049 89.636 32.1999C89.186 31.6499 88.814 31.3699 88.809 31.5779ZM24.581 35.8369C24.229 36.5179 24.012 37.1449 24.099 37.2319C24.186 37.3189 24.556 36.7619 24.922 35.9949C25.744 34.2699 25.459 34.1379 24.581 35.8369ZM39 36.5999C38.439 36.8409 38.916 36.9399 40.6 36.9319C42.38 36.9229 42.741 36.8369 42 36.5999C40.691 36.1809 39.975 36.1809 39 36.5999ZM74.6 36.5999C74.036 36.8419 74.508 36.9439 76.2 36.9439C77.892 36.9439 78.364 36.8419 77.8 36.5999C77.36 36.4109 76.64 36.2559 76.2 36.2559C75.76 36.2559 75.04 36.4109 74.6 36.5999ZM35.585 38.1839C34.823 38.8349 34.333 39.3749 34.495 39.3839C34.658 39.3929 35.108 39.1329 35.495 38.8079C35.883 38.4819 36.56 37.9469 37 37.6199C37.44 37.2929 37.613 37.0199 37.385 37.0129C37.157 37.0059 36.347 37.5329 35.585 38.1839ZM71.733 37.8919C71.043 38.3829 70.258 39.1479 69.99 39.5919C69.692 40.0879 70.024 39.9179 70.852 39.1529C71.593 38.4669 72.56 37.7069 73 37.4649C73.44 37.2229 73.617 37.0189 73.394 37.0119C73.171 37.0049 72.424 37.4009 71.733 37.8919ZM45.879 39.0739C46.567 39.8839 47.252 40.9329 47.401 41.4039C47.551 41.8749 47.76 42.1729 47.866 42.0669C48.199 41.7339 46.925 39.6439 45.753 38.5999C44.699 37.6619 44.707 37.6909 45.879 39.0739ZM81.609 38.7369C81.604 38.9219 81.96 39.5309 82.4 40.0909C82.84 40.6499 83.196 40.9489 83.191 40.7539C83.179 40.2869 81.62 38.2999 81.609 38.7369ZM57.632 39.6669C57.614 39.9239 57.711 40.4239 57.847 40.7769C58.145 41.5549 59.2 40.8729 59.2 39.9019C59.2 39.4329 59.078 39.4029 58.639 39.7679C58.208 40.1249 58.03 40.1129 57.87 39.7169C57.735 39.3789 57.652 39.3619 57.632 39.6669ZM22.944 44.1999C22.944 46.2899 23.012 47.1449 23.094 46.0999C23.176 45.0549 23.176 43.3449 23.094 42.2999C23.012 41.2549 22.944 42.1099 22.944 44.1999ZM93.68 44.1999C93.68 46.6689 93.792 47.6499 94 46.9999C94.176 46.4499 94.32 45.1899 94.32 44.1999C94.32 43.2099 94.176 41.9499 94 41.3999C93.792 40.7499 93.68 41.7309 93.68 44.1999ZM33.049 41.6149C32.912 41.9729 32.815 42.5659 32.834 42.9329C32.853 43.2999 33.027 43.0689 33.221 42.4199C33.598 41.1579 33.465 40.5329 33.049 41.6149ZM83.444 42.3999C83.773 43.8709 84.002 44.1899 83.994 43.1669C83.991 42.7449 83.805 42.1299 83.582 41.7999C83.285 41.3619 83.248 41.5239 83.444 42.3999ZM68.509 44.1999C68.509 45.1899 68.587 45.5949 68.682 45.0999C68.778 44.6049 68.778 43.7949 68.682 43.2999C68.587 42.8049 68.509 43.2099 68.509 44.1999ZM83.646 45.0669C83.621 45.4339 83.496 46.0639 83.37 46.4669C83.152 47.1619 83.163 47.1629 83.597 46.4869C83.848 46.0959 83.973 45.4659 83.873 45.0869C83.711 44.4679 83.688 44.4659 83.646 45.0669ZM32.806 45.6329C32.809 46.0549 32.995 46.6699 33.218 46.9999C33.515 47.4379 33.552 47.2759 33.356 46.3999C33.027 44.9289 32.798 44.6099 32.806 45.6329ZM47.225 47.3399C46.722 48.5529 45.178 50.1739 43.8 50.9339C43.36 51.1769 43.219 51.3809 43.486 51.3879C44.648 51.4169 48.517 46.9839 47.883 46.3499C47.787 46.2529 47.49 46.6989 47.225 47.3399ZM57.797 47.8089C57.649 48.2769 57.633 48.7669 57.763 48.8969C57.894 49.0269 58 48.9009 58 48.6179C58 48.2049 58.119 48.2009 58.6 48.5999C59.088 49.0049 59.2 48.9859 59.2 48.4979C59.2 47.3849 58.103 46.8459 57.797 47.8089ZM82.261 48.4669C81.854 49.0099 81.605 49.5379 81.707 49.6399C81.808 49.7419 82.2 49.3539 82.578 48.7779C83.467 47.4209 83.222 47.1809 82.261 48.4669ZM69.987 48.8269C70.631 49.8619 73.13 51.6039 73.476 51.2579C73.617 51.1159 73.524 50.9999 73.268 50.9999C73.012 50.9999 72.053 50.3249 71.138 49.4999C70.222 48.6749 69.705 48.3719 69.987 48.8269ZM35.585 50.2159C36.347 50.8669 37.157 51.3939 37.385 51.3869C37.613 51.3799 37.44 51.1069 37 50.7799C36.56 50.4529 35.883 49.9179 35.495 49.5919C35.108 49.2669 34.658 49.0069 34.495 49.0159C34.333 49.0249 34.823 49.5649 35.585 50.2159ZM56.494 51.5299C55.331 54.1869 52.902 57.0169 50.385 58.6479C49.294 59.3549 48.478 60.0109 48.572 60.1059C49.726 61.2599 58.163 51.5709 57.53 49.8189C57.458 49.6219 56.992 50.3919 56.494 51.5299ZM24 51.1529C24 51.5819 25.19 53.7999 25.421 53.7999C25.531 53.7999 25.323 53.2149 24.959 52.4999C24.217 51.0399 24 50.7359 24 51.1529ZM39.46 51.8869C40.319 52.1639 41.084 52.1609 41.86 51.8779C42.866 51.5119 42.718 51.4639 40.6 51.4719C38.41 51.4809 38.31 51.5169 39.46 51.8869ZM75.06 51.8869C75.919 52.1639 76.684 52.1609 77.46 51.8779C78.466 51.5119 78.318 51.4639 76.2 51.4719C74.01 51.4809 73.91 51.5169 75.06 51.8869ZM91.033 53.7359C90.71 54.3599 89.315 55.9179 87.933 57.1979C86.551 58.4779 85.791 59.3259 86.244 59.0829C87.259 58.5399 92 53.5169 92 52.9849C92 52.2929 91.632 52.5789 91.033 53.7359ZM26.33 55.2999C26.761 55.9049 27.529 56.7599 28.037 57.1999C28.545 57.6399 28.272 57.1449 27.432 56.0999C25.774 54.0389 25.063 53.5219 26.33 55.2999ZM62.051 55.2929C62.84 56.2889 64.091 57.5099 65.007 58.1789C65.443 58.4969 64.907 57.8219 63.815 56.6789C61.86 54.6309 60.977 53.9369 62.051 55.2929ZM29.625 58.4309C30.288 59.2289 34.003 61.1299 34.306 60.8269C34.431 60.7019 34.358 60.5999 34.143 60.5999C33.929 60.5999 32.706 59.9699 31.427 59.1989C30.148 58.4289 29.337 58.0829 29.625 58.4309ZM67.2 59.5959C67.2 59.8699 69.649 61.0839 69.832 60.9009C69.919 60.8139 69.362 60.4439 68.595 60.0779C67.828 59.7119 67.2 59.4949 67.2 59.5959ZM83.6 60.1999C82.83 60.6219 82.344 60.9739 82.52 60.9829C82.944 61.0049 85.2 59.8319 85.2 59.5899C85.2 59.3279 85.177 59.3369 83.6 60.1999ZM99.9 61.2209C98.195 62.2139 96.8 63.1279 96.8 63.2519C96.8 63.3749 97.565 63.0279 98.5 62.4799C99.435 61.9319 101.082 61.0149 102.16 60.4419C103.237 59.8689 103.867 59.4029 103.56 59.4069C103.252 59.4109 101.605 60.2269 99.9 61.2209ZM105.4 59.8829C105.84 60.1349 106.419 60.6249 106.687 60.9709C106.985 61.3549 107.18 61.4139 107.187 61.1229C107.201 60.5989 105.666 59.3929 105.011 59.4119C104.785 59.4189 104.96 59.6309 105.4 59.8829ZM51 61.3999C49.9 62.0519 49.18 62.5839 49.4 62.5809C49.62 62.5779 50.52 62.1319 51.4 61.5899C53.885 60.0589 63.062 60.0889 65.338 61.6359C66.176 62.2049 66.952 62.5809 67.063 62.4709C67.173 62.3609 66.468 61.8049 65.496 61.2349C62.665 59.5759 53.907 59.6759 51 61.3999ZM35.4 61.3999C35.84 61.5889 36.56 61.7379 37 61.7319C37.643 61.7229 37.604 61.6569 36.8 61.3999C35.432 60.9619 34.381 60.9619 35.4 61.3999ZM44.2 61.3999L43.4 61.7439L44.2 61.7659C44.64 61.7779 45.27 61.6129 45.6 61.3999C46.395 60.8859 45.396 60.8859 44.2 61.3999ZM71.2 61.3999C71.53 61.6129 72.16 61.7779 72.6 61.7659L73.4 61.7439L72.6 61.3999C71.404 60.8859 70.405 60.8859 71.2 61.3999ZM79.8 61.3999L79 61.7439L79.8 61.7659C80.24 61.7779 80.87 61.6129 81.2 61.3999C81.995 60.8859 80.996 60.8859 79.8 61.3999ZM86.3 61.6239C84.818 62.4349 84.89 62.7809 86.38 62.0099C87.029 61.6749 87.659 61.3999 87.78 61.3999C88.261 61.3999 88.011 92.4289 87.527 92.9129C87.266 93.1739 87.162 93.4949 87.294 93.6279C88.361 94.6939 88.6 91.5719 88.6 76.6059C88.6 59.7589 88.686 60.3179 86.3 61.6239ZM29.043 62.0329C28.666 63.0159 28.813 91.0989 29.2 91.9999C29.4 92.4659 29.556 86.3239 29.572 77.2999C29.598 62.9769 29.745 60.8169 30.6 62.1999C30.736 62.4199 31.062 62.5939 31.324 62.5869C31.939 62.5709 30.403 61.3999 29.766 61.3999C29.502 61.3999 29.176 61.6849 29.043 62.0329ZM39.905 62.0829C40.402 62.1789 41.122 62.1749 41.505 62.0749C41.887 61.9749 41.48 61.8959 40.6 61.9009C39.72 61.9049 39.407 61.9869 39.905 62.0829ZM75.505 62.0829C76.002 62.1789 76.722 62.1749 77.105 62.0749C77.487 61.9749 77.08 61.8959 76.2 61.9009C75.32 61.9049 75.007 61.9869 75.505 62.0829ZM34.4 63.7999C34.73 64.0129 35.36 64.1779 35.8 64.1659L36.6 64.1439L35.8 63.7999C34.604 63.2859 33.605 63.2859 34.4 63.7999ZM45.2 63.7999C44.667 64.1449 44.667 64.1879 45.2 64.1879C45.53 64.1879 46.07 64.0129 46.4 63.7999C46.933 63.4549 46.933 63.4119 46.4 63.4119C46.07 63.4119 45.53 63.5869 45.2 63.7999ZM70.2 63.7999C70.64 63.9889 71.27 64.1439 71.6 64.1439C71.978 64.1439 71.904 64.0169 71.4 63.7999C70.96 63.6109 70.33 63.4559 70 63.4559C69.622 63.4559 69.696 63.5829 70.2 63.7999ZM81 63.7999C80.496 64.0169 80.422 64.1439 80.8 64.1439C81.13 64.1439 81.76 63.9889 82.2 63.7999C82.704 63.5829 82.778 63.4559 82.4 63.4559C82.07 63.4559 81.44 63.6109 81 63.7999ZM95.1 64.0289C93.605 64.8399 93.696 65.1779 95.2 64.3999C95.86 64.0589 96.4 63.6939 96.4 63.5899C96.4 63.3319 96.357 63.3469 95.1 64.0289ZM38.7 64.5769C39.635 64.7289 41.165 64.7289 42.1 64.5769C43.415 64.3629 43.029 64.2999 40.4 64.2999C37.771 64.2999 37.385 64.3629 38.7 64.5769ZM74.4 64.5929C75.39 64.7579 77.01 64.7589 78 64.5959C79.46 64.3559 79.12 64.2999 76.2 64.2969C73.277 64.2949 72.939 64.3499 74.4 64.5929ZM91.888 65.9019L90.776 66.7999L90.896 75.9999L91.016 85.1999L91.108 75.9099L91.2 66.6209L92.4 65.9999C93.559 65.4009 93.922 64.9979 93.3 65.0019C93.135 65.0029 92.5 65.4079 91.888 65.9019ZM92 85.9789C92 86.0889 92.54 86.4589 93.2 86.7999C93.86 87.1409 94.4 87.3309 94.4 87.2209C94.4 87.1109 93.86 86.7409 93.2 86.3999C92.54 86.0589 92 85.8689 92 85.9789ZM94.8 87.5789C94.8 87.6889 95.34 88.0589 96 88.3999C96.66 88.7409 97.2 88.9309 97.2 88.8209C97.2 88.7109 96.66 88.3409 96 87.9999C95.34 87.6589 94.8 87.4689 94.8 87.5789ZM98.4 89.7669C99.363 90.5519 100 90.8079 100 90.4099C100 90.3059 99.415 89.9349 98.7 89.5859L97.4 88.9519L98.4 89.7669ZM100.4 90.7789C100.4 90.8889 100.94 91.2589 101.6 91.5999C102.26 91.9409 102.8 92.1309 102.8 92.0209C102.8 91.9109 102.26 91.5409 101.6 91.1999C100.94 90.8589 100.4 90.6689 100.4 90.7789ZM44.7 94.0999C52.455 94.1609 65.145 94.1609 72.9 94.0999C80.655 94.0389 74.31 93.9889 58.8 93.9889C43.29 93.9889 36.945 94.0389 44.7 94.0999ZM29.249 111.746C28.726 111.893 29.806 112.01 31.649 112.006C34.406 112.001 35.284 112.161 36.6 112.909C37.964 113.684 38.062 113.701 37.268 113.019C35.626 111.611 31.863 111.014 29.249 111.746ZM47.031 111.994C46.168 112.302 44.908 113.136 44.231 113.849L43 115.144L44.495 113.889C46.395 112.293 48.757 111.656 51.8 111.918C53.289 112.046 53.82 112.002 53.2 111.802C51.624 111.294 48.744 111.384 47.031 111.994ZM86.049 111.746C85.526 111.893 86.643 112.01 88.532 112.006C90.421 112.003 91.658 111.878 91.283 111.728C90.42 111.385 87.301 111.395 86.049 111.746ZM156.641 111.966C155.784 112.285 154.794 112.843 154.441 113.206C154.004 113.656 154.271 113.592 155.278 113.006C157.737 111.576 160.794 111.503 164.6 112.782C165.04 112.93 164.871 112.746 164.225 112.373C162.626 111.452 158.604 111.236 156.641 111.966ZM67.062 112.531C66.698 112.934 66.4 113.424 66.4 113.62C66.4 113.817 66.674 113.587 67.008 113.11C67.47 112.45 68.119 112.206 69.708 112.095L71.8 111.948L69.762 111.874C68.23 111.818 67.56 111.982 67.062 112.531ZM99.614 112.574C99.141 113.458 99.042 130.132 99.506 130.863C99.668 131.118 99.745 127.436 99.677 122.681C99.522 111.774 99.44 112.125 102.113 112.28L104.2 112.4L104.4 115.8L104.6 119.2H107.6H110.6L110.8 115.8L111 112.4L112.961 112.276C115.627 112.106 115.588 111.964 115.588 121.8C115.588 131.636 115.627 131.494 112.961 131.324L111 131.2L110.884 127.7C110.821 125.775 110.641 124.2 110.484 124.199C110.046 124.198 110.412 130.733 110.883 131.299C111.583 132.143 115.098 131.939 115.586 131.026C116.14 129.992 116.14 113.608 115.586 112.574C115.265 111.975 114.741 111.8 113.266 111.8C110.68 111.8 110.4 112.199 110.4 115.88V119H107.6H104.8V115.88C104.8 112.199 104.52 111.8 101.934 111.8C100.459 111.8 99.935 111.975 99.614 112.574ZM121.7 112.096C122.965 112.175 125.035 112.175 126.3 112.096C127.565 112.016 126.53 111.951 124 111.951C121.47 111.951 120.435 112.016 121.7 112.096ZM134.105 112.087C134.714 112.179 135.614 112.177 136.105 112.082C136.597 111.987 136.1 111.911 135 111.914C133.9 111.917 133.497 111.995 134.105 112.087ZM146.2 112.163L148.2 112.4V121.8V131.2L146.2 131.437L144.2 131.674L146.02 131.737C148.83 131.834 148.8 131.94 148.8 121.8C148.8 111.66 148.83 111.766 146.02 111.863L144.2 111.926L146.2 112.163ZM118.92 114.2C118.92 115.41 118.995 115.905 119.087 115.3C119.178 114.695 119.178 113.705 119.087 113.1C118.995 112.495 118.92 112.99 118.92 114.2ZM137.809 113.226C138.181 113.901 138.841 114.891 139.276 115.426L140.067 116.4L139.391 115.174C139.019 114.499 138.359 113.509 137.924 112.974L137.133 112L137.809 113.226ZM143.686 116.5C143.588 121.654 143.455 121.802 141.636 118.8C140.25 116.513 139.54 115.781 140.57 117.7C143.56 123.274 144.082 123.098 143.899 116.576L143.771 112L143.686 116.5ZM72.695 114.204C73.041 115.087 73.397 115.736 73.486 115.648C73.678 115.455 72.523 112.6 72.253 112.6C72.149 112.6 72.348 113.322 72.695 114.204ZM128.909 114.2C128.909 115.19 128.987 115.595 129.082 115.1C129.178 114.605 129.178 113.795 129.082 113.3C128.987 112.805 128.909 113.21 128.909 114.2ZM132.572 121.8C132.572 126.97 132.629 129.085 132.699 126.5C132.768 123.915 132.768 119.685 132.699 117.1C132.629 114.515 132.572 116.63 132.572 121.8ZM94.799 114.1C95.322 114.815 95.813 115.4 95.889 115.4C96.193 115.4 95.201 113.9 94.545 113.367C94.113 113.016 94.21 113.296 94.799 114.1ZM24.898 114.7C24.499 115.199 23.732 117.38 24.089 117C24.37 116.701 25.558 114.2 25.418 114.2C25.352 114.2 25.118 114.425 24.898 114.7ZM65.477 116.077C65.1 117.093 64.858 117.991 64.938 118.072C65.019 118.152 65.4 117.393 65.785 116.385C66.17 115.376 66.412 114.479 66.323 114.39C66.235 114.301 65.854 115.06 65.477 116.077ZM152.898 114.7C152.499 115.199 151.732 117.38 152.089 117C152.37 116.701 153.558 114.2 153.418 114.2C153.352 114.2 153.118 114.425 152.898 114.7ZM39.324 116.6C39.428 118.523 36.43 118.935 34.817 117.218C34.291 116.658 33.706 116.2 33.516 116.2C33.327 116.2 33.787 116.74 34.539 117.4C37.024 119.582 40.595 118.825 39.662 116.313C39.249 115.204 39.248 115.205 39.324 116.6ZM95.973 116.8C95.726 118.514 93.045 118.76 91.385 117.221C90.779 116.659 90.174 116.205 90.042 116.212C89.909 116.218 90.388 116.758 91.106 117.412C93.338 119.441 96.705 118.865 96.304 116.522C96.167 115.722 96.123 115.758 95.973 116.8ZM29.423 117.089C27.835 119.356 28.859 127.455 30.723 127.368C31.27 127.343 31.285 127.296 30.8 127.122C28.963 126.466 28.346 118.654 30 117C30.44 116.56 30.63 116.2 30.423 116.2C30.215 116.2 29.765 116.6 29.423 117.089ZM47.823 117.089C46.247 119.338 47.292 127.458 49.146 127.368C49.694 127.342 49.703 127.299 49.2 127.104C47.384 126.397 46.769 118.631 48.4 117C48.84 116.56 49.03 116.2 48.823 116.2C48.615 116.2 48.165 116.6 47.823 117.089ZM52.4 117C54.054 118.654 53.437 126.466 51.6 127.122C51.115 127.296 51.13 127.343 51.677 127.368C53.051 127.432 53.6 125.841 53.6 121.8C53.6 118.063 53.06 116.2 51.977 116.2C51.77 116.2 51.96 116.56 52.4 117ZM86.221 116.977C85.834 117.404 85.612 117.989 85.727 118.277C85.867 118.626 85.947 118.575 85.968 118.123C85.986 117.75 86.4 117.165 86.889 116.823C87.378 116.48 87.586 116.2 87.351 116.2C87.116 116.2 86.608 116.55 86.221 116.977ZM120.3 116.462C121.177 116.651 121.2 116.789 121.2 121.8C121.2 126.817 121.178 126.949 120.3 127.118C119.536 127.265 119.568 127.299 120.511 127.346L121.623 127.4L121.511 121.9L121.4 116.4L120.4 116.334C119.519 116.277 119.507 116.292 120.3 116.462ZM126.667 116.467C126.52 116.613 126.4 119.133 126.4 122.067V127.4L127.5 127.346C128.443 127.299 128.472 127.266 127.7 127.118C126.822 126.949 126.8 126.817 126.8 121.8C126.8 116.783 126.822 116.651 127.7 116.482C128.535 116.322 128.54 116.305 127.767 116.254C127.308 116.225 126.813 116.32 126.667 116.467ZM157.829 116.828C156.923 117.734 156.745 118.801 156.901 122.401L157.039 125.6L157.12 121.882C157.192 118.524 157.295 118.068 158.182 117.182C158.722 116.642 159.005 116.2 158.81 116.2C158.616 116.2 158.175 116.483 157.829 116.828ZM161.9 116.612C162.395 116.811 162.8 117.19 162.8 117.454C162.8 117.718 162.916 117.818 163.057 117.676C163.447 117.286 162.391 116.197 161.651 116.225C161.21 116.243 161.291 116.368 161.9 116.612ZM80.557 121.8C80.557 124.77 80.62 125.985 80.697 124.5C80.774 123.015 80.774 120.585 80.697 119.1C80.62 117.615 80.557 118.83 80.557 121.8ZM58.551 121.8C58.551 124.33 58.616 125.365 58.696 124.1C58.775 122.835 58.775 120.765 58.696 119.5C58.616 118.235 58.551 119.27 58.551 121.8ZM23.748 121.8C23.748 124.11 23.814 125.055 23.895 123.9C23.976 122.745 23.976 120.855 23.895 119.7C23.814 118.545 23.748 119.49 23.748 121.8ZM151.748 121.8C151.748 124.11 151.814 125.055 151.895 123.9C151.976 122.745 151.976 120.855 151.895 119.7C151.814 118.545 151.748 119.49 151.748 121.8ZM165.8 118.6L163.8 118.874L165.676 118.937C166.708 118.972 167.664 118.82 167.8 118.6C167.936 118.38 167.992 118.228 167.924 118.263C167.856 118.297 166.9 118.449 165.8 118.6ZM42.14 121.8C42.14 123.67 42.209 124.435 42.293 123.5C42.377 122.565 42.377 121.035 42.293 120.1C42.209 119.165 42.14 119.93 42.14 121.8ZM68.659 120.7C67.563 123.572 67.727 124.2 69.576 124.2C70.443 124.2 71.238 124.062 71.343 123.893C71.447 123.724 70.828 123.652 69.966 123.735C68.134 123.909 67.96 123.341 69.054 120.749C69.636 119.368 69.744 119.287 70.05 120C70.37 120.746 70.387 120.748 70.297 120.033C70.12 118.629 69.327 118.952 68.659 120.7ZM160.025 120.77C159.103 121.88 159.659 124.795 160.8 124.839C161.712 124.874 161.719 124.863 160.879 124.71C160.051 124.56 159.971 124.354 160.079 122.671L160.2 120.8H164.064C166.189 120.8 167.719 120.668 167.464 120.506C166.574 119.942 160.534 120.157 160.025 120.77ZM168.131 124C168.133 125.54 168.205 126.121 168.292 125.291C168.379 124.461 168.377 123.201 168.289 122.491C168.2 121.781 168.129 122.46 168.131 124ZM137.6 122.2C137.6 122.42 137.775 122.6 137.99 122.6C138.204 122.6 138.667 123.157 139.019 123.837C139.371 124.518 139.749 124.985 139.858 124.875C139.968 124.766 139.639 124.031 139.129 123.243C138.215 121.833 137.6 121.413 137.6 122.2ZM76.045 123C76.053 123.33 76.406 124.32 76.829 125.2C77.252 126.08 77.486 126.362 77.349 125.826C76.973 124.361 76.029 122.314 76.045 123ZM34.803 125.492C34.371 126.202 33.698 126.91 33.309 127.064C32.633 127.331 32.633 127.345 33.313 127.372C33.723 127.388 34.379 126.803 34.853 126C35.708 124.551 37.732 124.063 39.153 124.962C40.463 125.792 38.725 129.277 36.188 130.906C35.755 131.184 35.971 131.142 36.668 130.812C39.156 129.636 40.864 125.821 39.386 124.74C37.936 123.68 35.679 124.05 34.803 125.492ZM91.9 124.757C91.515 125.049 91.2 125.431 91.2 125.606C91.2 125.781 91.542 125.614 91.961 125.236C94.826 122.643 97.306 126.196 94.771 129.261L93.498 130.8L94.949 129.306C97.976 126.189 95.29 122.183 91.9 124.757ZM104.596 124.7C104.497 124.975 104.368 126.55 104.308 128.2L104.2 131.2L102.2 131.437L100.2 131.674L102.051 131.737C104.463 131.819 104.706 131.453 104.866 127.499C104.998 124.243 104.947 123.718 104.596 124.7ZM61.477 126.877C61.1 127.893 60.858 128.791 60.938 128.872C61.019 128.952 61.4 128.193 61.785 127.185C62.17 126.176 62.412 125.279 62.323 125.19C62.235 125.101 61.854 125.86 61.477 126.877ZM85.625 125.438C85.599 126.109 86.802 127.409 87.431 127.388C87.634 127.381 87.474 127.186 87.074 126.954C86.675 126.722 86.192 126.142 86 125.666C85.763 125.08 85.643 125.006 85.625 125.438ZM162.8 125.333C162.8 125.59 162.44 126.16 162 126.6C161.56 127.04 161.376 127.4 161.591 127.4C162.117 127.4 163.375 125.441 163.054 125.121C162.914 124.981 162.8 125.077 162.8 125.333ZM157.592 126.5C157.832 126.995 158.337 127.386 158.714 127.368C159.27 127.343 159.286 127.293 158.8 127.104C158.47 126.975 157.965 126.584 157.678 126.235C157.235 125.696 157.222 125.737 157.592 126.5ZM24.249 127.4C25.004 130.532 30.94 133.217 34.274 131.936C34.873 131.706 34.181 131.593 32.074 131.578C27.982 131.548 25.9 130.416 24.509 127.464C24.018 126.421 24.013 126.42 24.249 127.4ZM57.531 128.002C57.187 128.761 57.073 129.278 57.278 129.152C57.686 128.899 58.502 126.968 58.289 126.756C58.216 126.683 57.875 127.244 57.531 128.002ZM141.278 127.5C141.592 127.995 142.263 129.084 142.77 129.921C143.277 130.758 143.774 131.36 143.875 131.259C144.07 131.063 141.218 126.6 140.897 126.6C140.793 126.6 140.965 127.005 141.278 127.5ZM77.626 127.251C77.612 127.499 77.882 128.378 78.227 129.204C78.981 131.006 78.746 131.302 76.4 131.505L74.6 131.66L76.4 131.724C79.222 131.824 79.49 131.466 78.493 128.935C78.03 127.761 77.64 127.003 77.626 127.251ZM152.001 127.153C151.998 127.997 153.654 130.06 154.872 130.728C156.123 131.414 155.518 130.699 154.148 129.873C153.9 129.723 153.316 128.97 152.85 128.2C152.384 127.43 152.002 126.959 152.001 127.153ZM167.094 128.303L166.388 129.6L167.194 128.656C167.88 127.852 168.246 126.994 167.9 127.003C167.845 127.004 167.482 127.589 167.094 128.303ZM118.617 128.524C118.481 129.143 118.522 130.06 118.708 130.563C118.968 131.265 119.046 131.003 119.046 129.439C119.046 127.111 118.965 126.938 118.617 128.524ZM128.92 129.4C128.92 130.61 128.995 131.105 129.087 130.5C129.178 129.895 129.178 128.905 129.087 128.3C128.995 127.695 128.92 128.19 128.92 129.4ZM66.08 128.68C65.816 128.944 65.611 129.439 65.625 129.78C65.641 130.16 65.791 130.052 66.012 129.5C66.502 128.281 72.477 128.114 73.168 129.3C73.392 129.685 73.581 129.811 73.588 129.58C73.627 128.242 67.278 127.482 66.08 128.68ZM44.001 129.538C46.644 132.549 54.484 132.976 56.199 130.202C56.336 129.98 55.765 130.202 54.93 130.694C51.944 132.456 46.971 131.88 44.201 129.451L43.003 128.4L44.001 129.538ZM60.293 130.166C59.857 131.832 64.057 132.623 65.251 131.1C65.743 130.473 65.731 130.454 65.131 130.923C63.928 131.864 60.574 131.39 60.725 130.3C60.878 129.202 60.57 129.107 60.293 130.166ZM164.6 130.627C163.94 131.05 163.605 131.397 163.856 131.398C164.106 131.399 164.736 131.046 165.256 130.613C166.445 129.623 166.159 129.629 164.6 130.627ZM86.027 131.848C87.298 132.204 90.017 132.217 90.883 131.872C91.259 131.722 90.101 131.595 88.31 131.588C86.496 131.582 85.485 131.697 86.027 131.848ZM121.7 131.696C122.965 131.775 125.035 131.775 126.3 131.696C127.565 131.616 126.53 131.551 124 131.551C121.47 131.551 120.435 131.616 121.7 131.696ZM134.105 131.687C134.714 131.779 135.614 131.777 136.105 131.682C136.597 131.587 136.1 131.511 135 131.514C133.9 131.517 133.497 131.595 134.105 131.687ZM157.249 131.854C158.501 132.205 161.62 132.215 162.483 131.872C162.858 131.722 161.621 131.597 159.732 131.594C157.843 131.59 156.726 131.707 157.249 131.854ZM28.449 152.546C27.926 152.693 29.043 152.81 30.932 152.806C32.821 152.803 34.058 152.678 33.683 152.528C32.82 152.185 29.701 152.195 28.449 152.546ZM115.2 152.602C114.6 152.795 115.24 152.837 116.8 152.706C118.23 152.586 119.475 152.423 119.567 152.344C119.889 152.065 116.188 152.284 115.2 152.602ZM41.3 152.865C40.997 152.987 40.8 153.826 40.8 154.991C40.8 157.203 41.064 157.4 44.023 157.4H45.982L46.105 164.5L46.229 171.6L46.215 164.4L46.2 157.2L43.8 157L41.4 156.8V155V153.2H48.8H56.2V155V156.8L53.8 157L51.4 157.2L51.386 164.2L51.372 171.2L51.495 164.3L51.618 157.4H53.577C56.534 157.4 56.8 157.202 56.8 155C56.8 153.623 56.622 153.017 56.167 152.843C55.414 152.554 42.021 152.574 41.3 152.865ZM58.814 153.374C58.365 154.213 58.303 166.172 58.74 167.726C58.883 168.235 58.937 165.575 58.859 161.815C58.675 152.862 58.657 152.926 61.313 153.08L63.4 153.2L63.615 159.8L63.83 166.4L63.915 159.98C63.975 155.42 63.861 153.421 63.52 153.08C62.699 152.259 59.297 152.471 58.814 153.374ZM71.305 152.887C71.914 152.979 72.814 152.977 73.305 152.882C73.797 152.787 73.3 152.711 72.2 152.714C71.1 152.717 70.697 152.795 71.305 152.887ZM81.315 152.896C82.588 152.976 84.568 152.975 85.715 152.894C86.862 152.814 85.82 152.749 83.4 152.75C80.98 152.751 80.042 152.816 81.315 152.896ZM96.892 153.068C95.528 154.432 96.571 157.437 98.38 157.353C99.327 157.309 99.314 157.287 98.2 157.049C97.083 156.81 97 156.668 97 154.996V153.2L101.689 153.087L106.378 152.975L106.633 153.987C107.063 155.702 106.532 156.932 105.299 157.074L104.2 157.2V162.596V167.992L105.4 168.2C106.524 168.395 106.6 168.521 106.6 170.204V172H101.8H97V170.204C97 168.532 97.083 168.39 98.2 168.151C99.314 167.913 99.327 167.891 98.38 167.847C96.992 167.783 96.4 168.487 96.4 170.2C96.4 172.407 96.833 172.6 101.8 172.6C106.767 172.6 107.2 172.407 107.2 170.2C107.2 168.537 106.623 167.8 105.32 167.8C104.407 167.8 104.4 167.758 104.4 162.627V157.453L105.493 157.327C106.851 157.169 107.548 155.551 106.968 153.9L106.582 152.8L101.983 152.688C98.746 152.609 97.238 152.722 96.892 153.068ZM35.878 153.782C37.56 154.808 38.489 156.282 38.329 157.674C38.14 159.323 35.274 159.551 33.945 158.022C33.456 157.46 32.902 157 32.714 157C32.526 157 32.925 157.54 33.6 158.2C35.744 160.296 38.8 159.751 38.8 157.273C38.8 156.031 36.207 152.999 35.147 153.001C34.846 153.002 35.175 153.354 35.878 153.782ZM89.837 153.746C90.738 154.168 91.951 155.118 92.533 155.857C93.115 156.596 93.593 156.996 93.596 156.747C93.601 156.229 90.588 153.4 90.032 153.4C89.83 153.4 89.336 153.305 88.933 153.189C88.53 153.073 88.937 153.324 89.837 153.746ZM112.526 153.78C111.825 154.207 111.032 154.972 110.764 155.479C110.366 156.23 110.493 156.178 111.45 155.2C112.096 154.54 112.979 153.786 113.412 153.524C113.845 153.261 114.11 153.037 114 153.025C113.89 153.013 113.226 153.353 112.526 153.78ZM74.566 160.6C74.566 164.67 74.625 166.335 74.698 164.3C74.771 162.265 74.771 158.935 74.698 156.9C74.625 154.865 74.566 156.53 74.566 160.6ZM24.403 154.996C23.917 155.679 23.446 156.994 23.357 157.919C23.172 159.831 23.417 159.509 23.772 157.37C23.903 156.584 24.386 155.537 24.845 155.044C25.305 154.551 25.592 154.059 25.484 153.951C25.376 153.842 24.889 154.313 24.403 154.996ZM78.171 162.6C78.171 167.55 78.228 169.575 78.299 167.1C78.369 164.625 78.369 160.575 78.299 158.1C78.228 155.625 78.171 157.65 78.171 162.6ZM69.289 160.477C69.204 166.667 69.161 166.982 68.311 167.577C67.822 167.92 67.614 168.2 67.849 168.2C69.341 168.2 69.624 166.856 69.5 160.357L69.378 154L69.289 160.477ZM29.3 156.865C29.025 156.976 28.8 157.254 28.8 157.482C28.8 157.769 28.955 157.769 29.3 157.484C29.575 157.257 30.34 156.992 31 156.895L32.2 156.72L31 156.692C30.34 156.676 29.575 156.754 29.3 156.865ZM109.852 157.5C109.527 158.715 109.587 167.026 109.928 167.885C110.078 168.262 110.2 165.877 110.2 162.585C110.2 159.293 110.176 156.6 110.147 156.6C110.117 156.6 109.985 157.005 109.852 157.5ZM83.375 157.522C83.264 157.809 83.225 160.284 83.287 163.022L83.4 168L84.876 168.123C86.471 168.255 88.804 167.283 88.794 166.49C88.79 166.148 88.699 166.133 88.494 166.44C87.974 167.218 86.491 167.8 85.026 167.8H83.6V162.6V157.4H85.026C86.491 157.4 87.974 157.982 88.494 158.76C88.699 159.067 88.79 159.052 88.794 158.71C88.81 157.428 83.83 156.336 83.375 157.522ZM119.511 157.623C120 157.965 120.414 158.55 120.432 158.923C120.453 159.375 120.533 159.426 120.673 159.077C120.903 158.502 119.729 157 119.049 157C118.814 157 119.022 157.28 119.511 157.623ZM93.8 162.6C93.8 165.545 93.914 167.425 94.053 166.777C94.192 166.13 94.305 164.25 94.305 162.6C94.305 160.95 94.192 159.07 94.053 158.423C93.914 157.775 93.8 159.655 93.8 162.6ZM125.757 162.6C125.757 165.57 125.82 166.785 125.897 165.3C125.974 163.815 125.974 161.385 125.897 159.9C125.82 158.415 125.757 159.63 125.757 162.6ZM29.6 159.356C30.15 159.811 30.87 160.185 31.2 160.189C31.726 160.194 31.406 159.981 29.101 158.79C28.826 158.647 29.05 158.902 29.6 159.356ZM114.652 159.5C114.333 160.692 114.384 165.019 114.728 165.885C114.878 166.262 115 164.777 115 162.585C115 158.213 114.999 158.205 114.652 159.5ZM88.94 162.6C88.94 164.47 89.009 165.235 89.093 164.3C89.177 163.365 89.177 161.835 89.093 160.9C89.009 159.965 88.94 160.73 88.94 162.6ZM32.6 160.6C33.04 160.789 33.67 160.944 34 160.944C34.378 160.944 34.304 160.817 33.8 160.6C33.36 160.411 32.73 160.256 32.4 160.256C32.022 160.256 32.096 160.383 32.6 160.6ZM24.413 161.672C24.987 162.592 27.912 164.422 28.256 164.077C28.369 163.965 28.075 163.751 27.604 163.601C27.133 163.452 26.1 162.761 25.309 162.066C24.269 161.153 24.021 161.044 24.413 161.672ZM36.117 161.836C36.951 162.276 37.986 163.213 38.415 163.918C38.845 164.623 39.198 164.999 39.199 164.754C39.202 163.633 36.131 160.951 34.92 161.018C34.744 161.027 35.283 161.396 36.117 161.836ZM29.4 164.6C29.84 164.789 30.47 164.944 30.8 164.944C31.178 164.944 31.104 164.817 30.6 164.6C30.16 164.411 29.53 164.256 29.2 164.256C28.822 164.256 28.896 164.383 29.4 164.6ZM32.7 165.596C34.134 166.219 34.379 167.121 33.3 167.803C32.894 168.06 32.84 168.185 33.171 168.099C35.029 167.621 34.069 164.968 32.056 165.016C31.695 165.024 31.985 165.286 32.7 165.596ZM23.461 165.7C23.358 165.865 24.292 165.945 25.537 165.878C27.697 165.762 27.831 165.812 28.481 166.978C28.875 167.685 29.466 168.18 29.881 168.154C30.441 168.117 30.463 168.07 29.978 167.939C29.636 167.847 29.04 167.238 28.655 166.586C27.964 165.415 24.052 164.748 23.461 165.7ZM120.432 166.277C120.414 166.65 120 167.235 119.511 167.577C119.022 167.92 118.814 168.2 119.049 168.2C119.729 168.2 120.903 166.698 120.673 166.123C120.533 165.774 120.453 165.825 120.432 166.277ZM131.37 167.286C133.791 167.455 134.319 168.27 133.846 171.1L133.629 172.4L134.072 171.1C134.973 168.459 134.149 167.205 131.485 167.167L129.196 167.134L131.37 167.286ZM23.225 167.856C23.211 168.216 23.515 168.855 23.9 169.275C24.285 169.694 24.472 169.84 24.316 169.597C24.16 169.355 23.856 168.717 23.641 168.178C23.394 167.56 23.241 167.441 23.225 167.856ZM38.4 169.105C38.07 169.813 37.188 170.799 36.441 171.296C35.693 171.793 35.309 172.2 35.588 172.2C36.322 172.2 39.2 169.21 39.2 168.447C39.2 167.541 39.084 167.636 38.4 169.105ZM128.465 169.62C128.383 172.156 128.844 172.617 131.38 172.535L133.4 172.47L131.2 172.235L129 172L128.765 169.8L128.53 167.6L128.465 169.62ZM73.83 168.907C73.465 170.054 71.868 171.4 70.138 172.017C69.149 172.369 68.9 172.571 69.441 172.582C70.975 172.614 75.038 169.105 74.31 168.376C74.18 168.246 73.964 168.485 73.83 168.907ZM92.489 169.365C92.016 170.006 90.905 170.849 90.021 171.239C88.208 172.039 88.073 172.456 89.845 171.785C91.113 171.304 92.662 169.992 93.251 168.9C93.825 167.835 93.452 168.063 92.489 169.365ZM59.564 169.733C59.78 170.136 60.271 170.721 60.655 171.033C61.087 171.384 60.99 171.104 60.401 170.3C59.351 168.865 58.957 168.598 59.564 169.733ZM110.864 169.8C111.21 170.35 112.101 171.126 112.846 171.525C114.153 172.224 114.165 172.224 113.201 171.525C112.651 171.126 111.759 170.35 111.219 169.8L110.237 168.8L110.864 169.8ZM25.573 171.167C25.981 171.659 27.6 172.318 27.6 171.992C27.6 171.919 27.042 171.58 26.36 171.24C25.422 170.772 25.23 170.755 25.573 171.167ZM28.876 172.66C29.384 172.803 30.52 172.92 31.4 172.92C32.28 172.92 33.416 172.803 33.924 172.66C34.432 172.517 33.296 172.4 31.4 172.4C29.504 172.4 28.368 172.517 28.876 172.66ZM47.9 172.482C48.395 172.578 49.205 172.578 49.7 172.482C50.195 172.387 49.79 172.309 48.8 172.309C47.81 172.309 47.405 172.387 47.9 172.482ZM64 172.598C64.988 172.916 68.689 173.135 68.367 172.856C68.275 172.777 67.03 172.614 65.6 172.494C64.04 172.363 63.4 172.405 64 172.598ZM81.315 172.496C82.588 172.576 84.568 172.575 85.715 172.494C86.862 172.414 85.82 172.349 83.4 172.35C80.98 172.351 80.042 172.416 81.315 172.496ZM115.276 172.66C115.784 172.803 116.92 172.92 117.8 172.92C118.68 172.92 119.816 172.803 120.324 172.66C120.832 172.517 119.696 172.4 117.8 172.4C115.904 172.4 114.768 172.517 115.276 172.66ZM209.3 209.667C209.004 209.785 208.8 210.6 208.8 211.665C208.8 213.447 208.789 213.461 207.623 213.205C204.184 212.45 201.714 217.228 204.106 220.008C205.031 221.084 205.746 221.237 209.111 221.08L210.822 221L210.711 215.333C210.603 209.824 210.449 209.207 209.3 209.667ZM119.419 211.037C116.115 213.938 117.473 221 121.336 221C122.006 221 121.89 220.845 120.794 220.273C118.705 219.182 117.335 216.262 117.95 214.21C118.9 211.038 122.798 209.14 125.023 210.767C125.998 211.481 125.547 212.014 124.461 211.432C123.088 210.698 121.67 210.949 120.306 212.167C116.6 215.479 121.049 222.023 125.085 219.196C126.03 218.533 126.721 219.036 125.854 219.756C125.558 220.001 124.615 220.471 123.758 220.8L122.2 221.398L123.594 221.146C125.273 220.844 126.8 219.906 126.8 219.178C126.8 218.282 126.08 218.138 124.832 218.784C120.819 220.859 117.296 216.024 120.396 212.697C121.437 211.579 123.099 211.145 124.055 211.741C125.196 212.454 126.4 212.312 126.4 211.464C126.4 209.471 121.541 209.174 119.419 211.037ZM156.482 210.301C155.733 211.204 157.034 212.538 157.859 211.713C158.582 210.989 158.336 209.8 157.462 209.8C157.152 209.8 156.711 210.026 156.482 210.301ZM181.689 210.423C181.2 210.765 180.811 211.44 180.825 211.923L180.851 212.8L181.203 211.926C181.969 210.024 186.8 209.404 186.8 211.208C186.8 211.615 186.551 211.636 185.671 211.304C184.183 210.743 182.52 211.192 182.186 212.246C181.829 213.368 182.744 214.239 185.112 215.033C188.523 216.177 188.887 219.079 185.806 220.56C184.471 221.202 181.62 220.494 181.275 219.436C181.138 219.017 181.284 218.956 181.845 219.201C184.42 220.322 186.8 219.733 186.8 217.975C186.8 216.911 186.542 216.704 183.802 215.576C182.617 215.087 181.598 214.353 181.306 213.776C180.84 212.856 180.811 212.849 180.806 213.651C180.798 214.731 181.486 215.294 183.838 216.136C186.084 216.94 186.806 217.829 185.999 218.801C185.447 219.467 184.622 219.463 181.9 218.782C180.982 218.552 180.8 218.636 180.8 219.286C180.8 221.334 185.863 221.904 187.469 220.038C189.515 217.659 188.312 215.423 184.335 214.209C182.712 213.713 182.132 212.805 182.87 211.915C183.342 211.347 184.285 211.373 186.295 212.008C187.508 212.391 187.997 211.186 186.95 210.394C185.942 209.63 182.796 209.648 181.689 210.423ZM212.643 210.431C212.316 211.284 213.075 212.223 213.85 211.925C214.624 211.629 214.391 210.044 213.55 209.884C213.193 209.816 212.785 210.062 212.643 210.431ZM210.4 215.427C210.4 220.366 210.358 220.641 209.646 220.415C209.231 220.283 208.429 220.386 207.864 220.644C204.821 222.03 202.245 217.631 204.454 214.822C205.217 213.852 205.527 213.75 207.354 213.868L209.4 214L209.522 212.1C209.782 208.051 210.4 210.393 210.4 215.427ZM151.092 212.889C150.652 213.859 150.553 214.513 150.809 214.769C151.024 214.984 151.2 215.922 151.2 216.854C151.2 220.417 152.799 222.274 154.784 221.018C155.267 220.713 155.176 220.47 154.261 219.621C152.837 218.302 152.859 215.837 154.3 215.205C155.429 214.71 155.471 213.564 154.37 213.276C153.914 213.157 153.443 212.686 153.324 212.23C152.979 210.91 151.836 211.247 151.092 212.889ZM190.4 212.171C190.4 212.596 190.109 213.234 189.754 213.589C189.159 214.184 189.159 214.292 189.754 214.949C190.187 215.427 190.4 216.402 190.4 217.903C190.4 220.915 191.755 222.221 193.6 220.986C194.105 220.648 194.026 220.454 193.1 219.759C191.542 218.589 191.479 215.578 193 215C193.55 214.791 194 214.431 194 214.2C194 213.969 193.55 213.609 193 213.4C192.388 213.167 192 212.706 192 212.21C192 211.667 191.737 211.4 191.2 211.4C190.677 211.4 190.4 211.667 190.4 212.171ZM152.8 212.8C153.033 213.412 153.494 213.8 153.99 213.8C155.093 213.8 155.02 214.513 153.9 214.672C152.586 214.859 152.33 219.025 153.579 219.9C154.323 220.422 154.315 221 153.562 221C152.619 221 152 219.595 152 217.451C152 216.191 151.784 214.944 151.52 214.68C151.147 214.307 151.147 214.093 151.52 213.72C151.784 213.456 152 212.916 152 212.52C152 211.503 152.354 211.627 152.8 212.8ZM191.764 212.8C191.902 213.35 192.282 213.8 192.608 213.8C192.933 213.8 193.2 213.98 193.2 214.2C193.2 214.42 192.949 214.6 192.643 214.6C191.927 214.6 191.6 215.477 191.6 217.4C191.6 219.323 191.927 220.2 192.643 220.2C192.949 220.2 193.2 220.38 193.2 220.6C193.2 221.315 191.64 221.022 191.214 220.226C190.986 219.801 190.8 218.619 190.8 217.6C190.8 216.581 190.627 215.423 190.415 215.027C190.158 214.547 190.187 213.888 190.502 213.053C191.074 211.539 191.43 211.468 191.764 212.8ZM130.8 213.397C130.47 213.609 129.91 213.692 129.556 213.582C128.377 213.215 127.959 214.371 128.082 217.662C128.197 220.711 128.228 220.8 129.2 220.8C130.141 220.8 130.207 220.66 130.323 218.414C130.454 215.847 130.877 215 132.025 215C133.003 215 133.379 214.298 132.785 213.582C132.226 212.909 131.646 212.854 130.8 213.397ZM135.768 213.754C132.209 215.925 133.563 221.07 137.716 221.16C138.981 221.187 139.791 220.98 140.262 220.51C141.195 219.577 140.723 219.234 138.654 219.341C137.496 219.401 136.754 219.227 136.413 218.815C135.965 218.275 136.149 218.2 137.918 218.2C141.341 218.2 141.769 217.72 140.581 215.216C139.566 213.078 137.771 212.533 135.768 213.754ZM144.436 213.426C139.482 215.457 141.96 221.632 147.515 221.099L149.6 220.898V217.149V213.4L148.3 213.448C147.585 213.473 146.64 213.39 146.2 213.263C145.76 213.136 144.966 213.209 144.436 213.426ZM170.555 213.392C166.008 215.229 168.147 222.084 172.985 221.176C175.977 220.615 175.591 219.228 172.437 219.21C169.678 219.194 169.877 218.266 172.67 218.121C174.546 218.023 175.019 217.86 175.132 217.268C175.618 214.714 172.927 212.434 170.555 213.392ZM217.557 213.599C213.772 215.656 214.971 221.182 219.202 221.182C223.206 221.182 224.514 215.877 221.032 213.754C219.575 212.866 218.956 212.838 217.557 213.599ZM156.68 213.653C155.834 214.499 156.392 221.057 157.3 220.928C158.157 220.806 158.2 220.629 158.2 217.205C158.2 213.695 157.732 212.601 156.68 213.653ZM159.433 213.746C158.751 214.851 161.927 220.801 163.26 220.915C164.54 221.024 167.2 216.281 167.2 213.889C167.2 211.9 165.268 213.864 164.036 217.106C163.444 218.662 163.01 218.471 162.198 216.3C161.182 213.584 160.133 212.614 159.433 213.746ZM195.467 213.667C195.32 213.813 195.2 215.143 195.2 216.622C195.2 220.669 195.882 221.263 200.315 221.073L202.03 221L201.915 217.3C201.809 213.905 201.734 213.6 201 213.6C200.295 213.6 200.176 213.933 200 216.4C199.666 221.08 196.8 220.678 196.8 215.951C196.8 213.519 196.363 212.77 195.467 213.667ZM212.8 217.171C212.8 220.757 212.852 221 213.615 221C214.772 221 214.66 213.697 213.5 213.475C212.873 213.355 212.8 213.739 212.8 217.171ZM132.4 214.2C132.4 214.42 132.099 214.6 131.731 214.6C130.305 214.6 129.6 215.811 129.6 218.262C129.6 219.554 129.421 220.6 129.2 220.6C128.078 220.6 128.759 214.259 129.9 214.087C131.94 213.778 132.4 213.798 132.4 214.2ZM138.982 214.048C139.813 214.367 140.924 216.501 140.641 217.236C140.488 217.635 139.719 217.8 138.013 217.8C136.151 217.8 135.6 217.935 135.6 218.391C135.6 219.4 137.418 220.3 138.884 220.017C140.145 219.773 140.167 219.789 139.4 220.406C137.551 221.894 134.4 219.944 134.4 217.312C134.4 214.761 136.654 213.155 138.982 214.048ZM149.198 217.284L149.2 220.568L148.1 220.594C147.495 220.609 146.381 220.641 145.625 220.664C142.757 220.754 141.456 217.383 143.446 215.018C144.425 213.855 144.642 213.783 146.843 213.888L149.195 214L149.198 217.284ZM161.839 216.695C163.054 219.575 163.636 219.543 164.871 216.532C165.86 214.121 167.234 212.601 166.59 214.631C165.642 217.619 163.985 220.6 163.272 220.6C162.554 220.6 160 215.55 160 214.129C160 213.222 160.907 214.489 161.839 216.695ZM173.971 214.854C175.648 216.986 175.159 217.8 172.2 217.8C169.403 217.8 169.094 218.093 170.5 219.415C171.218 220.09 171.71 220.213 172.929 220.021C174.707 219.742 174.618 220.401 172.825 220.795C170.409 221.325 167.962 218.8 168.565 216.398C169.226 213.764 172.401 212.858 173.971 214.854ZM197.149 219.54C198.616 221.304 200.8 219.274 200.8 216.146C200.8 215.076 200.98 214.2 201.2 214.2C201.433 214.2 201.6 215.514 201.6 217.343V220.485L200.5 220.49C199.895 220.492 199.005 220.626 198.523 220.788C196.913 221.327 195.6 219.483 195.6 216.685C195.6 213.431 196.157 213.165 196.4 216.303C196.51 217.72 196.847 219.177 197.149 219.54ZM214 217.424C214 219.275 213.833 220.6 213.6 220.6C213.364 220.6 213.2 219.192 213.2 217.176C213.2 214.996 213.345 213.843 213.6 214C213.82 214.136 214 215.677 214 217.424ZM221.418 214.782C223.409 216.773 222.372 220.101 219.543 220.803C217.905 221.209 215.92 219.265 215.92 217.255C215.92 214.132 219.264 212.628 221.418 214.782ZM157.6 217.4C157.6 219.267 157.433 220.6 157.2 220.6C156.967 220.6 156.8 219.267 156.8 217.4C156.8 215.533 156.967 214.2 157.2 214.2C157.433 214.2 157.6 215.533 157.6 217.4ZM136.004 215.195C135.153 216.22 135.827 217 137.564 217C139.378 217 139.824 216.567 139.204 215.408C138.687 214.441 136.738 214.311 136.004 215.195ZM144.56 214.906C142.538 216.256 143.495 220.2 145.845 220.2C146.61 220.2 147.911 218.872 148.196 217.8C148.424 216.944 148.343 216.988 147.637 218.1C146.193 220.375 143.816 219.596 144.073 216.933C144.253 215.061 146.119 214.366 147.242 215.752C147.719 216.341 148 216.479 148 216.124C148 214.859 145.798 214.079 144.56 214.906ZM170.065 215.236C169.128 216.296 169.815 217 171.787 217C173.266 217 173.6 216.867 173.6 216.28C173.6 214.688 171.181 213.973 170.065 215.236ZM205.038 215.467C203.718 217.352 205.215 220.424 207.309 220.127C208.709 219.928 209.692 217.622 209.051 216.043C208.376 214.38 206.034 214.044 205.038 215.467ZM217.462 215.331C216.044 216.898 217.176 220.2 219.13 220.2C220.154 220.2 221.6 218.54 221.6 217.363C221.6 214.976 218.958 213.678 217.462 215.331ZM138.702 215.7C138.814 216.04 138.391 216.2 137.384 216.2C136.092 216.2 135.968 216.121 136.416 215.581C137.002 214.875 138.455 214.951 138.702 215.7ZM172.567 215.243C173.675 215.668 173.249 216.2 171.8 216.2C170.428 216.2 169.912 215.664 170.9 215.265C171.621 214.974 171.859 214.971 172.567 215.243ZM208.026 215.414C208.913 215.889 209.102 218.138 208.32 218.92C207.643 219.597 206.391 219.516 205.531 218.738C203.657 217.041 205.78 214.212 208.026 215.414ZM220.723 216.2C221.569 217.74 220.792 219.4 219.224 219.4C217.333 219.4 216.531 217.203 217.878 215.714C218.766 214.732 220.035 214.949 220.723 216.2Z" fill="#97AEAF"/>
<path fill-rule="evenodd" clip-rule="evenodd" d="M109.3 7.30091L7.20001 7.40191L7.29002 14.5009L7.38001 21.5999L7.49902 14.7019L7.61902 7.80291L109.509 7.70192C165.549 7.64592 214.681 7.65292 218.691 7.71692L225.981 7.83491L226.101 14.7169L226.22 21.5999L226.31 14.4999L226.4 7.39991H219.433C215.601 7.39991 212.226 7.35492 211.933 7.29992C211.64 7.24492 165.455 7.24491 109.3 7.30091ZM30.9 112.087C31.505 112.178 32.495 112.178 33.1 112.087C33.705 111.995 33.21 111.92 32 111.92C30.79 111.92 30.295 111.995 30.9 112.087ZM49.3 112.087C49.905 112.178 50.895 112.178 51.5 112.087C52.105 111.995 51.61 111.92 50.4 111.92C49.19 111.92 48.695 111.995 49.3 112.087ZM87.7 112.087C88.305 112.178 89.295 112.178 89.9 112.087C90.505 111.995 90.01 111.92 88.8 111.92C87.59 111.92 87.095 111.995 87.7 112.087ZM158.9 112.087C159.505 112.178 160.495 112.178 161.1 112.087C161.705 111.995 161.21 111.92 160 111.92C158.79 111.92 158.295 111.995 158.9 112.087ZM27 113.103C25.67 114.075 24.832 115.015 24.813 115.554C24.806 115.749 25.176 115.43 25.636 114.845C26.096 114.26 27.131 113.434 27.936 113.009C28.741 112.583 29.13 112.233 28.8 112.23C28.47 112.228 27.66 112.62 27 113.103ZM35.8 112.848C36.46 113.186 37.495 114.027 38.1 114.716C39.183 115.95 39.645 115.818 38.68 114.551C38.104 113.794 35.584 112.196 35 112.218C34.78 112.225 35.14 112.509 35.8 112.848ZM45.8 112.944C44.396 113.811 42.98 115.313 43.282 115.615C43.397 115.73 43.788 115.373 44.15 114.82C44.513 114.267 45.482 113.459 46.304 113.025C47.127 112.591 47.62 112.228 47.4 112.219C47.18 112.21 46.46 112.537 45.8 112.944ZM54.562 113.107C57.529 114.803 57.8 115.53 57.8 121.793C57.8 124.836 57.932 127.117 58.094 126.863C58.819 125.721 58.426 116.955 57.581 115.454C56.772 114.017 54.485 112.194 53.506 112.207C53.228 112.21 53.703 112.615 54.562 113.107ZM67.023 113.089C66.68 113.578 66.415 114.253 66.432 114.589C66.45 114.925 66.691 114.689 66.967 114.064C67.244 113.439 67.724 112.767 68.035 112.57C68.398 112.34 68.429 112.21 68.123 112.206C67.86 112.203 67.365 112.6 67.023 113.089ZM71.6 113C72.04 113.44 72.4 114.01 72.4 114.267C72.4 114.523 72.497 114.637 72.615 114.518C72.981 114.153 71.903 112.2 71.336 112.2C70.976 112.2 71.063 112.463 71.6 113ZM83.696 112.998C82.224 113.896 80.789 116.001 80.832 117.2C80.854 117.8 80.978 117.699 81.33 116.8C82.201 114.575 82.771 113.898 84.489 113.048C85.43 112.582 85.93 112.201 85.6 112.202C85.27 112.202 84.413 112.561 83.696 112.998ZM103.482 112.482C103.776 112.691 104.011 114.151 104.082 116.213L104.2 119.6H107.6H111L111.118 116.213C111.189 114.151 111.424 112.691 111.718 112.482C112.06 112.239 112.026 112.186 111.6 112.301C111.148 112.423 110.951 113.297 110.8 115.832L110.6 119.2H107.6H104.6L104.4 115.832C104.249 113.297 104.052 112.423 103.6 112.301C103.174 112.186 103.14 112.239 103.482 112.482ZM137.059 113.1C137.499 113.595 138.449 114.945 139.171 116.1C140.491 118.212 141.242 118.977 140.349 117.3C139.26 115.255 137.059 112.2 136.674 112.2C136.446 112.2 136.62 112.605 137.059 113.1ZM147.914 121.587C148.003 128.926 147.917 130.973 147.514 131.107C147.194 131.213 147.227 131.261 147.6 131.233C148.258 131.185 148.747 113.188 148.108 112.547C147.938 112.377 147.851 116.446 147.914 121.587ZM155.207 113.052C153.791 113.915 152.836 114.914 152.813 115.554C152.806 115.749 153.176 115.43 153.636 114.845C154.096 114.26 155.131 113.434 155.936 113.009C156.741 112.583 157.22 112.228 157 112.219C156.78 112.21 155.973 112.585 155.207 113.052ZM162.8 112.285C163.302 112.82 165.6 113.781 165.6 113.457C165.6 113.257 165.285 113.003 164.9 112.892C164.515 112.781 163.84 112.552 163.4 112.382C162.96 112.212 162.69 112.168 162.8 112.285ZM93.649 113.52C94.007 113.792 94.681 114.641 95.148 115.407C95.615 116.173 95.998 116.547 95.999 116.238C96.001 115.467 94.071 112.997 93.48 113.013C93.193 113.02 93.261 113.224 93.649 113.52ZM99.771 121.8C99.771 126.75 99.828 128.775 99.899 126.3C99.969 123.825 99.969 119.775 99.899 117.3C99.828 114.825 99.771 116.85 99.771 121.8ZM115.371 121.8C115.371 126.75 115.428 128.775 115.499 126.3C115.569 123.825 115.569 119.775 115.499 117.3C115.428 114.825 115.371 116.85 115.371 121.8ZM166.785 115.194C168.387 118.327 165.602 119.859 163.321 117.1L162.411 116L163.035 117.3C163.614 118.508 163.799 118.6 165.642 118.6C168.353 118.6 168.83 116.915 166.79 114.551L165.97 113.6L166.785 115.194ZM30.815 115.765C30.394 116.044 30.709 116.146 31.944 116.129C33.277 116.11 33.905 116.343 34.777 117.178C36.205 118.546 39.31 118.561 39.511 117.2C39.619 116.469 39.592 116.46 39.195 117.1C38.521 118.185 36.075 118.022 34.807 116.807C33.642 115.69 31.696 115.182 30.815 115.765ZM49.265 115.735C48.91 115.971 49.304 116.091 50.437 116.091C51.724 116.091 52.323 116.312 52.872 116.99C53.272 117.484 53.6 117.717 53.6 117.506C53.6 116.317 50.372 114.998 49.265 115.735ZM86.96 115.971C85.336 116.678 85.2 117.132 85.2 121.859C85.2 126.412 85.469 127.163 87.321 127.774C89.103 128.362 90.832 127.731 91.765 126.152C92.421 125.041 92.65 124.939 94.206 125.063C95.151 125.138 95.84 125.065 95.738 124.9C95.15 123.948 92.412 124.638 91.373 126C90.105 127.662 87.472 128.006 86.262 126.669C85.244 125.544 85.299 117.796 86.331 116.862C87.476 115.827 90.068 116.001 91.362 117.2C92.424 118.184 95.283 118.636 95.743 117.893C95.847 117.724 95.216 117.654 94.34 117.737C93.16 117.85 92.52 117.683 91.873 117.095C89.963 115.356 88.92 115.118 86.96 115.971ZM158.347 116.004C157.354 116.544 156.575 117.708 156.954 118.087C157.049 118.182 157.243 117.896 157.384 117.451C157.684 116.506 158.835 116.06 160.8 116.129C161.831 116.165 162.042 116.077 161.6 115.795C160.759 115.259 159.58 115.334 158.347 116.004ZM24.243 116.833C23.898 117.731 23.952 126.306 24.306 126.862C24.468 127.116 24.6 124.821 24.6 121.762C24.6 118.703 24.574 116.2 24.543 116.2C24.511 116.2 24.376 116.485 24.243 116.833ZM42.652 117.1C42.327 118.312 42.387 125.825 42.728 126.685C42.878 127.062 43 124.857 43 121.785C43 115.722 43.005 115.784 42.652 117.1ZM121.598 121.719L121.797 127.2L121.911 122.032C121.974 119.19 121.884 116.724 121.712 116.551C121.541 116.379 121.489 118.704 121.598 121.719ZM126.175 116.721C126.065 117.008 126.026 119.573 126.089 122.421L126.204 127.6L126.402 121.899C126.597 116.284 126.571 115.689 126.175 116.721ZM152.243 116.833C150.91 120.305 152.371 128.84 154.528 130.187C155.152 130.577 155.039 130.322 154.125 129.282C152.58 127.522 152.247 125.694 152.468 120.194C152.637 115.978 152.627 115.831 152.243 116.833ZM64.615 119.215C64.23 120.224 64.004 121.137 64.113 121.246C64.221 121.355 64.6 120.593 64.954 119.554C65.308 118.515 65.534 117.601 65.457 117.523C65.379 117.446 65 118.207 64.615 119.215ZM53.744 121.8C53.744 123.89 53.812 124.745 53.894 123.7C53.976 122.655 53.976 120.945 53.894 119.9C53.812 118.855 53.744 119.71 53.744 121.8ZM69.067 118.467C68.92 118.613 68.803 119.018 68.806 119.367C68.811 119.882 68.877 119.897 69.161 119.449C69.353 119.146 69.711 119.021 69.955 119.172C70.209 119.329 70.4 119.179 70.4 118.824C70.4 118.196 69.562 117.971 69.067 118.467ZM28.54 121.8C28.54 123.67 28.609 124.435 28.693 123.5C28.777 122.565 28.777 121.035 28.693 120.1C28.609 119.165 28.54 119.93 28.54 121.8ZM46.937 121.6C46.939 123.36 47.009 124.03 47.093 123.089C47.178 122.149 47.177 120.709 47.091 119.889C47.005 119.07 46.936 119.84 46.937 121.6ZM141.048 119.1C142.983 122.374 144 123.434 144 122.176C144 121.943 143.858 121.841 143.684 121.948C143.51 122.055 142.864 121.346 142.247 120.372C141.273 118.831 140.246 117.742 141.048 119.1ZM74.65 120.2C75.025 121.705 75.934 123.684 75.938 123C75.939 122.67 75.594 121.68 75.171 120.8C74.748 119.92 74.514 119.65 74.65 120.2ZM70.412 120.2C70.412 120.53 70.587 121.07 70.8 121.4C71.145 121.933 71.188 121.933 71.188 121.4C71.188 121.07 71.013 120.53 70.8 120.2C70.455 119.667 70.412 119.667 70.412 120.2ZM160.261 120.9C160.159 121.065 161.723 121.2 163.737 121.2H167.4V124.272C167.4 127.808 166.782 128.995 164.162 130.493C163.303 130.985 162.755 131.39 162.946 131.393C166.329 131.458 170.305 121.97 167.367 120.843C166.459 120.494 160.483 120.543 160.261 120.9ZM137.2 125.571C137.2 129.194 137.07 130.273 136.571 130.771C136.039 131.304 136.032 131.4 136.529 131.4C137.422 131.4 137.6 130.498 137.6 125.967C137.6 123.456 137.759 121.8 138 121.8C138.22 121.8 138.404 121.935 138.409 122.1C138.414 122.265 138.786 122.85 139.236 123.4C139.946 124.268 139.931 124.175 139.127 122.703C137.576 119.864 137.2 120.424 137.2 125.571ZM67.508 122.983C67.231 123.967 67.397 124.537 67.832 124.101C67.96 123.973 68.001 123.448 67.924 122.934L67.784 122L67.508 122.983ZM71.291 123.1C71.337 123.705 71.515 124.2 71.687 124.2C72.118 124.2 72.069 123.325 71.598 122.6C71.299 122.141 71.227 122.258 71.291 123.1ZM62.6 124.6C62.45 125.073 62.417 125.55 62.527 125.66C62.637 125.77 62.85 125.473 63 125C63.15 124.527 63.183 124.05 63.073 123.94C62.963 123.83 62.75 124.127 62.6 124.6ZM104.282 124.052C104.127 124.207 104 125.82 104 127.637C104 129.924 103.846 130.993 103.5 131.109C103.211 131.206 103.254 131.259 103.6 131.235C104.066 131.202 104.245 130.432 104.4 127.796L104.6 124.4L107.684 124.283L110.768 124.167L110.884 127.679C110.976 130.459 111.125 131.2 111.6 131.234C111.93 131.258 111.982 131.203 111.715 131.112C111.398 131.004 111.191 129.747 111.115 127.474L111 124L107.782 123.885C106.011 123.822 104.436 123.897 104.282 124.052ZM160 124.28C160 124.456 160.315 124.602 160.7 124.605C161.085 124.608 161.833 124.727 162.363 124.868C162.986 125.035 163.234 124.979 163.066 124.707C162.756 124.206 160 123.822 160 124.28ZM35.461 124.9C35.358 125.065 36.103 125.2 37.116 125.2C38.739 125.2 38.992 125.319 39.239 126.2L39.52 127.2L39.56 126.143C39.584 125.52 39.34 124.986 38.967 124.843C38.077 124.501 35.684 124.54 35.461 124.9ZM140.021 124.706C139.997 125.057 142.827 129.4 143.079 129.4C143.261 129.4 141.8 126.901 140.721 125.366C140.348 124.835 140.033 124.538 140.021 124.706ZM80.838 126.2C80.804 127.164 82.124 129.8 82.64 129.8C82.779 129.8 82.613 129.373 82.271 128.852C81.929 128.331 81.475 127.296 81.261 126.552C80.927 125.391 80.867 125.341 80.838 126.2ZM156.8 125.884C156.8 126.224 157.099 126.749 157.465 127.051C158.074 127.553 158.087 127.515 157.611 126.6C156.914 125.259 156.8 125.158 156.8 125.884ZM76.812 126.2C76.812 126.53 76.987 127.07 77.2 127.4C77.545 127.933 77.588 127.933 77.588 127.4C77.588 127.07 77.413 126.53 77.2 126.2C76.855 125.667 76.812 125.667 76.812 126.2ZM162.481 126.618C162.113 127.208 161.527 127.406 160.097 127.425C158.508 127.447 158.352 127.511 159.133 127.825C160.591 128.409 164.005 126.872 163.149 126.016C163.05 125.917 162.75 126.188 162.481 126.618ZM95.406 127.782C95.269 128.213 94.613 129.023 93.948 129.582C93.283 130.142 92.914 130.6 93.128 130.6C93.606 130.6 96 127.921 96 127.386C96 126.735 95.668 126.957 95.406 127.782ZM31.285 127.86C32.016 128.127 32.603 128.121 33.085 127.84C33.654 127.509 33.433 127.428 32 127.444C30.339 127.462 30.284 127.494 31.285 127.86ZM38.061 128.663C37.544 129.3 36.464 130.168 35.661 130.593C34.857 131.017 34.415 131.373 34.677 131.382C35.508 131.413 37.909 129.799 38.599 128.745C39.53 127.325 39.188 127.273 38.061 128.663ZM49.5 127.888C50.147 128.2 50.653 128.2 51.3 127.888C52.09 127.507 51.98 127.454 50.4 127.454C48.82 127.454 48.71 127.507 49.5 127.888ZM24.804 128.025C24.795 128.888 28.555 131.778 29.047 131.286C29.145 131.188 28.674 130.879 28 130.6C27.325 130.32 26.331 129.531 25.791 128.846C25.251 128.161 24.807 127.791 24.804 128.025ZM43.202 128.025C43.2 128.546 45.082 130.339 46.274 130.951C47.775 131.723 47.87 131.438 46.4 130.57C45.63 130.116 44.596 129.261 44.102 128.672C43.608 128.082 43.203 127.791 43.202 128.025ZM56.681 128.839C56.286 129.368 55.296 130.152 54.481 130.582C53.667 131.013 53.155 131.373 53.346 131.382C54.027 131.417 56.655 129.724 57.15 128.931C57.876 127.769 57.532 127.702 56.681 128.839ZM73.46 129.4C73.789 130.06 74.126 130.6 74.208 130.6C74.291 130.6 74.17 130.06 73.94 129.4C73.71 128.74 73.373 128.2 73.192 128.2C73.01 128.2 73.131 128.74 73.46 129.4ZM65.044 130.074C64.889 130.555 64.456 131.029 64.081 131.128C63.486 131.284 63.482 131.313 64.051 131.354C64.853 131.411 65.738 130.409 65.5 129.713C65.395 129.405 65.213 129.549 65.044 130.074ZM143.64 130.5C143.944 130.995 144.449 131.4 144.763 131.4C145.077 131.4 145.258 131.353 145.167 131.296C145.075 131.238 144.57 130.833 144.043 130.396L143.087 129.6L143.64 130.5ZM31.305 131.687C31.914 131.779 32.814 131.777 33.305 131.682C33.797 131.587 33.3 131.511 32.2 131.514C31.1 131.517 30.697 131.595 31.305 131.687ZM49.5 131.682C49.995 131.778 50.805 131.778 51.3 131.682C51.795 131.587 51.39 131.509 50.4 131.509C49.41 131.509 49.005 131.587 49.5 131.682ZM87.705 131.687C88.314 131.779 89.214 131.777 89.705 131.682C90.197 131.587 89.7 131.511 88.6 131.514C87.5 131.517 87.097 131.595 87.705 131.687ZM158.9 131.687C159.505 131.778 160.495 131.778 161.1 131.687C161.705 131.595 161.21 131.52 160 131.52C158.79 131.52 158.295 131.595 158.9 131.687ZM30.1 152.887C30.705 152.978 31.695 152.978 32.3 152.887C32.905 152.795 32.41 152.72 31.2 152.72C29.99 152.72 29.495 152.795 30.1 152.887ZM116.9 152.887C117.505 152.978 118.495 152.978 119.1 152.887C119.705 152.795 119.21 152.72 118 152.72C116.79 152.72 116.295 152.795 116.9 152.887ZM35.2 153.916C36.393 154.502 37.236 155.272 37.699 156.2C38.084 156.97 38.399 157.309 38.399 156.954C38.401 155.555 35.458 152.968 33.92 153.016C33.634 153.026 34.21 153.431 35.2 153.916ZM41.467 153.267C41.101 153.632 41.129 156.509 41.5 156.738C41.665 156.84 41.8 156.041 41.8 154.962C41.8 153.883 41.785 153 41.767 153C41.748 153 41.613 153.12 41.467 153.267ZM55.8 155C55.8 156.058 55.935 156.84 56.1 156.738C56.265 156.636 56.4 155.854 56.4 155C56.4 154.146 56.265 153.364 56.1 153.262C55.935 153.16 55.8 153.942 55.8 155ZM62.79 153.263C63.044 153.389 63.2 155.878 63.2 159.815C63.2 166.934 63.459 167.96 65.425 168.608C66.874 169.087 69.6 168.271 69.6 167.358C69.6 167.047 69.34 167.111 68.869 167.538C67.899 168.415 65.078 168.416 64.349 167.54C63.951 167.061 63.745 165.012 63.6 160.072C63.451 155.003 63.27 153.239 62.89 153.162C62.609 153.106 62.565 153.151 62.79 153.263ZM69.867 153.267C69.72 153.413 69.64 156.518 69.689 160.167L69.778 166.8L69.9 160.428C69.973 156.576 70.194 153.848 70.459 153.528C70.901 152.997 70.37 152.763 69.867 153.267ZM78.58 153.509C78.041 154.914 78.608 171.936 79.2 172.117C79.684 172.265 79.704 172.198 79.3 171.77C78.602 171.03 78.584 154.176 79.28 153.48C79.653 153.107 79.651 153 79.267 153C78.997 153 78.687 153.229 78.58 153.509ZM86.033 153.147C86.125 153.228 86.92 153.414 87.8 153.562C88.946 153.754 89.23 153.714 88.8 153.421C88.26 153.053 85.632 152.793 86.033 153.147ZM96.959 153.562C96.596 154.509 96.97 156.732 97.51 156.839C97.791 156.895 97.836 156.849 97.61 156.737C97.024 156.446 97.1 153.507 97.7 153.265C98.092 153.107 98.089 153.056 97.687 153.032C97.406 153.014 97.078 153.253 96.959 153.562ZM121.872 153.828C123.589 154.678 124.666 155.946 125.218 157.765C125.465 158.582 125.538 158.632 125.564 158C125.638 156.192 122.601 153.005 120.8 153.002C120.47 153.001 120.953 153.373 121.872 153.828ZM24.905 154.908C24.413 155.508 24.008 156.165 24.005 156.367C24.002 156.568 24.045 156.657 24.1 156.565C24.155 156.472 24.729 155.812 25.375 155.098C26.021 154.384 26.381 153.803 26.175 153.808C25.969 153.812 25.397 154.307 24.905 154.908ZM58.964 160.4C58.963 164.14 59.023 165.724 59.097 163.92C59.171 162.115 59.172 159.055 59.098 157.12C59.025 155.184 58.964 156.66 58.964 160.4ZM90.682 154.585C91.387 155.014 92.324 156.049 92.764 156.883C93.217 157.741 93.572 158.103 93.582 157.717C93.604 156.888 90.748 153.799 89.962 153.801C89.653 153.802 89.977 154.155 90.682 154.585ZM106.493 155C106.493 155.77 106.575 156.085 106.676 155.7C106.776 155.315 106.776 154.685 106.676 154.3C106.575 153.915 106.493 154.23 106.493 155ZM111.56 155.042C110.922 155.726 110.4 156.476 110.4 156.709C110.4 156.942 110.445 157.056 110.5 156.962C110.555 156.868 111.22 156.118 111.978 155.296C112.737 154.473 113.214 153.8 113.039 153.8C112.864 153.8 112.199 154.359 111.56 155.042ZM28.8 157C27.653 158.147 28.013 159.032 30 159.958C30.33 160.111 30.195 159.937 29.7 159.57C28.548 158.716 28.511 157.146 29.635 156.789C30.98 156.362 32.998 156.933 33.93 158.005C34.786 158.99 37.668 159.46 38.143 158.693C38.247 158.524 37.628 158.452 36.767 158.535C35.468 158.658 34.96 158.472 33.787 157.442C32.086 155.949 30.033 155.767 28.8 157ZM116.436 156.636C115.236 157.116 114.425 158.152 114.428 159.2C114.431 159.781 114.58 159.658 114.976 158.748C115.847 156.748 118.423 156.173 120.024 157.622C121.174 158.662 121.187 166.526 120.041 167.563C118.654 168.818 115.945 168.289 115.101 166.6C114.611 165.619 114.405 165.439 114.413 166C114.466 169.497 120.213 169.779 121.17 166.332C122.892 160.132 120.409 155.048 116.436 156.636ZM23.701 158.4C23.705 159.28 23.787 159.593 23.883 159.095C23.979 158.598 23.975 157.878 23.875 157.495C23.775 157.113 23.696 157.52 23.701 158.4ZM46.4 164.505C46.55 170.078 46.727 171.96 47.11 172.037C47.391 172.094 47.436 172.049 47.21 171.937C46.953 171.809 46.8 169.07 46.8 164.59C46.8 160.662 46.665 157.363 46.5 157.261C46.335 157.159 46.29 160.418 46.4 164.505ZM51.067 157.267C50.92 157.413 50.8 160.728 50.8 164.633C50.8 169.083 50.647 171.809 50.39 171.937C50.165 172.049 50.21 172.094 50.49 172.037C50.88 171.959 51.753 156.993 51.367 156.999C51.348 157 51.213 157.12 51.067 157.267ZM83.067 157.267C82.698 157.636 82.729 167.709 83.1 167.938C83.265 168.04 83.4 165.621 83.4 162.562C83.4 159.503 83.385 157 83.367 157C83.348 157 83.213 157.12 83.067 157.267ZM87.58 157.571C88.902 158.303 89.144 159.082 89.144 162.6C89.144 166.118 88.902 166.897 87.58 167.629C86.872 168.021 86.786 168.176 87.271 168.186C88.806 168.218 89.6 166.313 89.6 162.6C89.6 158.887 88.806 156.982 87.271 157.014C86.786 157.024 86.872 157.179 87.58 157.571ZM99.2 162.6C99.2 166.263 99.341 168.16 99.6 168C99.833 167.856 100 165.604 100 162.6C100 159.596 99.833 157.344 99.6 157.2C99.341 157.04 99.2 158.937 99.2 162.6ZM110.154 162.6C110.154 165.35 110.218 166.475 110.296 165.1C110.374 163.725 110.374 161.475 110.296 160.1C110.218 158.725 110.154 159.85 110.154 162.6ZM93.74 162.6C93.74 164.47 93.809 165.235 93.893 164.3C93.977 163.365 93.977 161.835 93.893 160.9C93.809 159.965 93.74 160.73 93.74 162.6ZM24 160.471C24 161.426 28 164.234 29.28 164.177C29.566 164.164 28.887 163.739 27.772 163.231C26.656 162.724 25.351 161.81 24.872 161.2C24.392 160.591 24 160.263 24 160.471ZM31.4 160.6C31.84 160.789 32.47 160.944 32.8 160.944C33.178 160.944 33.104 160.817 32.6 160.6C32.16 160.411 31.53 160.256 31.2 160.256C30.822 160.256 30.896 160.383 31.4 160.6ZM35.429 161.969C39.72 163.921 39.869 169.172 35.696 171.375C34.873 171.809 34.398 172.173 34.641 172.182C36.424 172.254 39.2 168.732 39.198 166.4C39.196 164.103 36.076 160.927 33.916 161.023C33.632 161.036 34.313 161.461 35.429 161.969ZM30.6 164.6C31.796 165.114 32.795 165.114 32 164.6C31.67 164.387 31.04 164.222 30.6 164.234L29.8 164.256L30.6 164.6ZM23.395 166.208C22.765 167.228 25.247 171.4 26.485 171.4C26.692 171.4 26.313 170.938 25.642 170.374C24.246 169.199 23.318 166.627 24.11 166.124C24.477 165.89 24.48 165.811 24.124 165.806C23.862 165.803 23.534 165.984 23.395 166.208ZM74.053 167C73.966 168.559 72.581 170.486 70.917 171.364C70.083 171.804 69.598 172.173 69.841 172.182C71.518 172.25 74.605 168.588 74.284 166.913C74.116 166.039 74.107 166.042 74.053 167ZM125.073 167.735C124.945 168.375 124.277 169.461 123.589 170.149C122.901 170.837 122.516 171.4 122.734 171.4C123.748 171.4 126.136 167.403 125.501 166.767C125.393 166.66 125.201 167.096 125.073 167.735ZM92.789 168.226C92.51 168.9 91.636 169.89 90.848 170.426C90.059 170.962 89.636 171.4 89.907 171.4C90.607 171.4 93.6 168.32 93.6 167.6C93.6 166.683 93.348 166.877 92.789 168.226ZM33.696 167.864C33.441 168.119 32.37 168.325 31.316 168.322C29.455 168.318 29.437 168.329 30.687 168.713C32.011 169.12 34.4 168.501 34.4 167.751C34.4 167.285 34.252 167.308 33.696 167.864ZM128.88 169.668C128.965 171.272 129.176 171.984 129.6 172.099C130.085 172.23 130.096 172.188 129.658 171.881C129.286 171.62 129.161 170.856 129.258 169.45C129.336 168.322 129.256 167.4 129.08 167.4C128.904 167.4 128.814 168.421 128.88 169.668ZM59.218 168.138C59.172 169.525 62.112 172.201 63.68 172.2C63.966 172.2 63.428 171.817 62.484 171.35C61.387 170.807 60.492 169.978 60.002 169.05C59.58 168.253 59.227 167.842 59.218 168.138ZM110.421 168.2C110.417 168.88 111.412 170.16 112.6 171.002C113.146 171.389 113.068 171.193 112.354 170.385C111.778 169.733 111.108 168.84 110.866 168.4C110.561 167.848 110.423 167.786 110.421 168.2ZM105.7 168.452C106.539 168.7 106.709 171.638 105.9 171.909C105.613 172.006 105.655 172.058 106 172.033C107.019 171.958 106.829 168.435 105.8 168.328C105.178 168.264 105.156 168.292 105.7 168.452ZM133.693 169.8C133.693 170.57 133.775 170.885 133.876 170.5C133.976 170.115 133.976 169.485 133.876 169.1C133.775 168.715 133.693 169.03 133.693 169.8ZM86.8 171.8L85.4 172.095L86.8 172.141C87.57 172.167 88.47 172.013 88.8 171.8C89.527 171.33 89.033 171.33 86.8 171.8ZM30.505 172.487C31.114 172.579 32.014 172.577 32.505 172.482C32.997 172.387 32.5 172.311 31.4 172.314C30.3 172.317 29.897 172.395 30.505 172.487ZM65.7 172.487C66.305 172.578 67.295 172.578 67.9 172.487C68.505 172.395 68.01 172.32 66.8 172.32C65.59 172.32 65.095 172.395 65.7 172.487ZM116.905 172.487C117.514 172.579 118.414 172.577 118.905 172.482C119.397 172.387 118.9 172.311 117.8 172.314C116.7 172.317 116.297 172.395 116.905 172.487ZM119.838 211.42C116.14 214.668 118.087 220.782 122.821 220.782C124.381 220.782 126.575 219.606 126.186 218.978C126.044 218.747 125.6 218.835 125.085 219.196C123.685 220.176 121.782 219.952 120.306 218.633C116.845 215.54 120.452 209.287 124.461 211.432C125.547 212.014 125.998 211.481 125.023 210.767C123.659 209.77 121.392 210.055 119.838 211.42ZM181.994 210.924C180.105 212.454 180.938 214.494 183.906 215.604C186.338 216.513 186.8 216.896 186.8 218C186.8 219.733 184.403 220.314 181.845 219.201C181.284 218.956 181.138 219.017 181.275 219.436C181.62 220.494 184.471 221.202 185.806 220.56C188.887 219.079 188.523 216.177 185.112 215.033C182.744 214.239 181.829 213.368 182.186 212.246C182.52 211.192 184.183 210.743 185.671 211.304C186.551 211.636 186.8 211.615 186.8 211.208C186.8 210.019 183.363 209.816 181.994 210.924ZM209.522 212.1L209.4 214L207.354 213.868C205.527 213.75 205.217 213.852 204.454 214.822C202.245 217.631 204.821 222.03 207.864 220.644C208.429 220.386 209.231 220.283 209.646 220.415C210.358 220.641 210.4 220.366 210.4 215.427C210.4 210.393 209.782 208.051 209.522 212.1ZM152 212.52C152 212.916 151.784 213.456 151.52 213.72C151.147 214.093 151.147 214.307 151.52 214.68C151.784 214.944 152 216.191 152 217.451C152 219.595 152.619 221 153.562 221C154.315 221 154.323 220.422 153.579 219.9C152.33 219.025 152.586 214.859 153.9 214.672C155.02 214.513 155.093 213.8 153.99 213.8C153.494 213.8 153.033 213.412 152.8 212.8C152.354 211.627 152 211.503 152 212.52ZM190.502 213.053C190.187 213.888 190.158 214.547 190.415 215.027C190.627 215.423 190.8 216.581 190.8 217.6C190.8 218.619 190.986 219.801 191.214 220.226C191.64 221.022 193.2 221.315 193.2 220.6C193.2 220.38 192.949 220.2 192.643 220.2C191.927 220.2 191.6 219.323 191.6 217.4C191.6 215.477 191.927 214.6 192.643 214.6C192.949 214.6 193.2 214.42 193.2 214.2C193.2 213.98 192.933 213.8 192.608 213.8C192.282 213.8 191.902 213.35 191.764 212.8C191.43 211.468 191.074 211.539 190.502 213.053ZM7.29002 219.498L7.20001 226.597L109.3 226.698C165.455 226.754 214.775 226.747 218.9 226.683L226.4 226.566L226.31 219.483L226.22 212.4L226.101 219.283L225.981 226.165L218.691 226.283C214.681 226.347 165.549 226.354 109.509 226.298L7.61902 226.197L7.49902 219.298L7.38001 212.4L7.29002 219.498ZM129.9 214.087C128.759 214.259 128.078 220.6 129.2 220.6C129.421 220.6 129.6 219.554 129.6 218.262C129.6 215.811 130.305 214.6 131.731 214.6C132.099 214.6 132.4 214.42 132.4 214.2C132.4 213.798 131.94 213.778 129.9 214.087ZM135.382 214.782C132.654 217.51 136.43 222.796 139.4 220.406C140.167 219.789 140.145 219.773 138.884 220.017C137.418 220.3 135.6 219.4 135.6 218.391C135.6 217.935 136.151 217.8 138.013 217.8C140.771 217.8 141.207 217.348 140.244 215.485C139.222 213.509 136.979 213.185 135.382 214.782ZM143.446 215.018C141.456 217.383 142.757 220.754 145.625 220.664C146.381 220.641 147.495 220.609 148.1 220.594L149.2 220.568L149.198 217.284L149.195 214L146.843 213.888C144.642 213.783 144.425 213.855 143.446 215.018ZM160 214.129C160 215.55 162.554 220.6 163.272 220.6C163.985 220.6 165.642 217.619 166.59 214.631C167.234 212.601 165.86 214.121 164.871 216.532C163.636 219.543 163.054 219.575 161.839 216.695C160.907 214.489 160 213.222 160 214.129ZM169.61 214.59C167.09 217.11 169.39 221.549 172.825 220.795C174.618 220.401 174.707 219.742 172.929 220.021C171.71 220.213 171.218 220.09 170.5 219.415C169.094 218.093 169.403 217.8 172.2 217.8C174.667 217.8 174.8 217.752 174.8 216.854C174.8 214.275 171.406 212.794 169.61 214.59ZM195.9 214.03C194.26 215.69 196.5 221.465 198.523 220.788C199.005 220.626 199.895 220.492 200.5 220.49L201.6 220.485V217.343C201.6 215.514 201.433 214.2 201.2 214.2C200.98 214.2 200.8 215.076 200.8 216.146C200.8 221.463 196.811 221.605 196.4 216.303C196.29 214.886 196.065 213.863 195.9 214.03ZM213.2 217.176C213.2 219.192 213.364 220.6 213.6 220.6C213.833 220.6 214 219.275 214 217.424C214 215.677 213.82 214.136 213.6 214C213.345 213.843 213.2 214.996 213.2 217.176ZM216.83 214.768C215.422 216.267 215.582 218.47 217.203 219.919C220.383 222.76 224.445 217.809 221.418 214.782C220.099 213.463 218.062 213.457 216.83 214.768ZM156.8 217.4C156.8 219.267 156.967 220.6 157.2 220.6C157.433 220.6 157.6 219.267 157.6 217.4C157.6 215.533 157.433 214.2 157.2 214.2C156.967 214.2 156.8 215.533 156.8 217.4ZM139.204 215.408C139.824 216.567 139.378 217 137.564 217C136.514 217 135.896 216.795 135.743 216.395C135.119 214.769 138.367 213.843 139.204 215.408ZM147.493 215.1C149.394 217.53 147.087 221.267 144.666 219.68C143.03 218.608 142.971 215.967 144.56 214.906C145.264 214.436 147.067 214.555 147.493 215.1ZM173.12 215.08C173.384 215.344 173.6 215.884 173.6 216.28C173.6 217.219 170.108 217.347 169.753 216.421C169.226 215.048 171.988 213.948 173.12 215.08ZM209.051 216.043C209.692 217.622 208.709 219.928 207.309 220.127C206.177 220.288 204.4 218.565 204.4 217.307C204.4 214.492 208.022 213.507 209.051 216.043ZM220.977 215.489C222.83 218.134 219.82 221.62 217.6 219.4C216.622 218.422 216.551 216.338 217.462 215.331C218.387 214.31 220.209 214.391 220.977 215.489Z" fill="#7C7C7C"/>
</svg>
