<svg width="280" height="48" viewBox="0 0 280 48" fill="none" xmlns="http://www.w3.org/2000/svg">
<path fill-rule="evenodd" clip-rule="evenodd" d="M4.83801 20.9069C1.86901 22.6039 1.60001 23.3269 1.60001 29.5999C1.60001 35.8729 1.86901 36.5959 4.83801 38.2929C8.98801 40.6669 16.559 37.8149 16.121 34.0439C15.936 32.4469 12.79 32.2479 12.201 33.7959C11.221 36.3739 6.45801 36.2289 5.74901 33.5999C5.39101 32.2689 5.33501 27.6259 5.65801 26.0089C6.20601 23.2699 9.61901 22.5099 11.836 24.6339C13.123 25.8679 15.896 25.9119 16.126 24.7019C16.785 21.2239 8.91201 18.5769 4.83801 20.9069ZM46.884 20.4999C46.324 20.9189 44.766 24.6309 43.401 28.7999C43.221 29.3499 42.334 31.7679 41.431 34.1729C39.685 38.8189 39.712 39.1879 41.8 39.1879C43.103 39.1879 43.556 38.8559 44.243 37.3999C44.808 36.2019 44.816 36.1999 48.669 36.0859L52.529 35.9719L52.995 37.3859C53.708 39.5459 57.815 40.0359 57.186 37.8869C56.874 36.8209 53.265 26.9979 52.174 24.2469C51.748 23.1719 51.4 22.0579 51.4 21.7689C51.4 20.3729 48.241 19.4849 46.884 20.4999ZM63.51 20.8369C60.63 22.2629 60.2 23.4189 60.2 29.7329V35.1719L61.458 36.6049C65.41 41.1059 74.6 39.3699 74.6 34.1229C74.6 32.2609 71.577 32.2209 70.695 34.0719C69.712 36.1329 66.184 36.3769 64.745 34.4839C63.832 33.2829 64.016 25.5479 64.982 24.5109C66.532 22.8479 69.398 23.0689 70.978 24.9739C71.976 26.1759 74.6 25.8019 74.6 24.4579C74.6 20.8989 67.842 18.6929 63.51 20.8369ZM79.48 20.4799C78.8 21.1599 78.8 38.0399 79.48 38.7199C79.997 39.2369 81.348 39.3479 82.367 38.9569C82.867 38.7649 83.001 38.0719 83.006 35.6569C83.014 31.5609 83.034 31.5399 86.835 31.6819L90 31.7999L90.118 35.1869C90.242 38.7629 90.462 39.1829 92.22 39.1939C94.128 39.2049 94.2 38.8439 94.2 29.3279V20.4149L93.2 20.1639C90.745 19.5479 90.2 20.1319 90.2 23.3749C90.2 27.6609 90.252 27.5999 86.6 27.5999C82.951 27.5999 83 27.6569 83 23.4099C83 21.1119 82.864 20.4339 82.367 20.2429C81.348 19.8519 79.997 19.9629 79.48 20.4799ZM99.1 20.2649C97.947 20.7299 98.506 23.6009 99.8 23.8599L101 24.0999V29.5999V35.0999L99.8 35.3399C98.402 35.6199 97.955 38.4669 99.233 38.9569C100.055 39.2729 106.345 39.2729 107.167 38.9569C108.494 38.4479 107.989 35.6719 106.5 35.2859L105.2 34.9489V29.5999V24.2509L106.5 23.9139C107.989 23.5279 108.494 20.7519 107.167 20.2429C106.418 19.9549 99.822 19.9729 99.1 20.2649ZM112.5 20.2289C112.335 20.3969 112.2 24.6399 112.2 29.6589V38.7849L113.229 39.0429C115.786 39.6849 116.2 38.9219 116.2 33.5749C116.2 27.5989 116.293 27.5999 120.032 33.6319C123.025 38.4589 124.156 39.4989 125.928 39.0539L127 38.7849V29.6349C127 19.7179 127.065 19.9999 124.781 19.9999C123.334 19.9999 123 21.1279 123 26.0069C123 29.1429 122.866 30.4219 122.548 30.3159C122.197 30.1989 118.601 24.8049 116.252 20.8709C115.893 20.2699 112.956 19.7669 112.5 20.2289ZM134.838 20.9069C130.976 23.1149 129.727 33.0749 132.848 36.7839C137.418 42.2149 146.803 38.8049 146.516 31.8169L146.4 28.9999H142.8H139.2V30.3999C139.2 31.6799 139.309 31.8109 140.47 31.9229C143.043 32.1729 142.945 34.6329 140.321 35.6299C136.52 37.0749 133.77 30.6749 135.951 25.4559C137.02 22.8969 140.895 22.6459 142.46 25.0359C143.41 26.4849 146.6 26.4679 146.6 25.0139C146.6 21.1619 139.02 18.5149 134.838 20.9069ZM159.983 20.8249C158.018 21.7799 157 23.3859 157 25.5309C157 28.3499 158.678 29.6549 164.8 31.5949C166.944 32.2739 167.4 32.6959 167.4 33.9999C167.4 36.5449 162.308 36.4639 161.082 33.8999C160.036 31.7119 156.341 32.5029 156.993 34.7759C158.802 41.0819 170.44 40.7349 171.608 34.3389C172.177 31.2219 170.673 29.6089 165.697 28.0019C161.454 26.6309 160.327 25.4729 161.8 23.9999C163.018 22.7819 165.087 22.9489 166.739 24.3999C169.331 26.6759 172.018 25.9289 170.729 23.2909C169.261 20.2879 163.712 19.0139 159.983 20.8249ZM174.763 20.5519C173.939 22.6979 174.713 23.7929 177.2 23.9999L179.6 24.1999L179.709 31.4949L179.818 38.7889L180.809 39.0379C181.354 39.1749 182.246 39.1749 182.791 39.0379L183.782 38.7889L183.891 31.4949L184 24.1999L186.4 23.9999L188.8 23.7999V21.9999V20.1999L181.891 20.0909C176.2 19.9999 174.944 20.0819 174.763 20.5519ZM192.9 20.4319C192.051 20.9269 191.855 32.4509 192.655 34.8399C194.572 40.5609 204.087 40.8849 206.95 35.3259C207.233 34.7769 207.4 31.8479 207.4 27.4339V20.4149L206.441 20.1739C203.631 19.4689 203.621 19.4909 203.4 26.9999C203.184 34.3359 203.145 34.4979 201.35 35.4259C197.818 37.2519 196.6 35.2449 196.6 27.5999C196.6 20.1339 195.863 18.7059 192.9 20.4319ZM212.28 20.4799C211.936 20.8239 211.8 23.4129 211.8 29.5999C211.8 35.7869 211.936 38.3759 212.28 38.7199C213.409 39.8489 221.69 38.9509 223.979 37.4499C227.608 35.0729 227.723 24.5049 224.15 21.8869C221.984 20.3009 213.469 19.2909 212.28 20.4799ZM230.7 20.2649C229.5 20.7489 230.116 23.5549 231.5 23.9139L232.8 24.2509V29.5969V34.9419L231.634 35.2539C229.786 35.7479 229.205 37.3479 230.429 38.5709C231.072 39.2149 237.339 39.5049 238.767 38.9569C240.045 38.4669 239.598 35.6199 238.2 35.3399L237 35.0999V29.5999V24.0999L238.2 23.8599C239.598 23.5799 240.045 20.7329 238.767 20.2429C238.018 19.9549 231.422 19.9729 230.7 20.2649ZM221.771 25.0539C222.954 26.5579 222.967 31.9919 221.793 33.9189C221.006 35.2099 220.936 35.2349 218.494 35.1189L216 34.9999L215.887 30.0219C215.745 23.7709 215.644 23.9999 218.558 23.9999C220.657 23.9999 221.041 24.1259 221.771 25.0539ZM50.06 28.8299C51.097 31.9329 51.066 31.9999 48.576 31.9999C46.253 31.9999 46.173 31.7559 47.4 28.3999C47.84 27.1959 48.2 26.1489 48.2 26.0719C48.2 25.0759 49.399 26.8539 50.06 28.8299Z" fill="#090909"/>
<path fill-rule="evenodd" clip-rule="evenodd" d="M260.68 1.28004C259.827 2.13304 260.163 3.43705 262.04 6.56105L263.881 9.62305L269.123 9.51105L274.365 9.40004L276.034 6.56804C279.428 0.808039 279.418 0.800049 269.051 0.800049C263.447 0.800049 261.021 0.939045 260.68 1.28004ZM247.754 8.92705C238.986 12.209 239.368 24.386 248.333 27.357C249.244 27.659 249.005 28.558 247.969 28.722C242.786 29.545 239.735 37.828 242.735 42.931C245.743 48.049 253.945 49.005 258.078 44.719C262.865 39.756 261.375 31.9531 255.1 29.1281C254.165 28.7071 253.4 28.199 253.4 28C253.4 27.801 254.165 27.293 255.1 26.872C266.313 21.824 259.269 4.61705 247.754 8.92705ZM261 11.539C261 11.725 261.31 12.49 261.689 13.239C263.176 16.176 262.816 21.32 260.93 24.062C259.709 25.838 259.925 29.8361 261.4 32.7381C262.793 35.4781 263.056 39.61 262 42.138C261.67 42.928 261.4 43.67 261.4 43.787C261.4 44.262 278.438 44.002 278.92 43.5201C279.277 43.1631 279.4 39.107 279.4 27.743V12.4451L278.511 11.823C277.526 11.133 261 10.864 261 11.539ZM253.986 14.841C255.228 15.932 255.399 16.309 255.391 17.941C255.368 22.711 249.365 24.1871 247.18 19.9601C244.944 15.6371 250.302 11.607 253.986 14.841ZM24.4 20.9081C19.616 23.5851 19.573 35.3921 24.337 38.1841C27.838 40.2361 33.325 39.3111 35.466 36.3091C36.886 34.319 36.886 24.8811 35.466 22.8911C33.385 19.9731 27.846 18.9811 24.4 20.9081ZM31.609 24.653C32.755 26.167 32.407 33.779 31.146 34.771C29.828 35.808 27.781 35.8371 26.544 34.8351C25.059 33.6321 25.098 25.536 26.595 24.323C27.842 23.314 30.739 23.505 31.609 24.653ZM253.126 34.047C254.673 34.838 255.382 36.0941 255.391 38.0591C255.413 42.5421 249.273 44.008 247.207 40.013C245.267 36.261 249.37 32.126 253.126 34.047Z" fill="white"/>
<path fill-rule="evenodd" clip-rule="evenodd" d="M259.736 1.78004C259.342 2.64504 259.543 3.18905 261.432 6.38005L263.575 10L268.988 9.99704L274.4 9.99304L275.868 7.69705C278.823 3.07405 279.18 1.46005 277.379 0.860046C277 0.733046 277.047 0.904052 277.521 1.37805C278.393 2.25005 278.217 2.86404 276.034 6.56804L274.365 9.40004L269.123 9.51105L263.881 9.62305L262.04 6.56105C260.163 3.43705 259.827 2.13304 260.68 1.28004C261.053 0.907045 261.051 0.800049 260.671 0.800049C260.403 0.800049 259.982 1.24104 259.736 1.78004ZM247.4 8.52304C243.153 9.86204 239.271 17.863 241.312 21.071C241.477 21.33 241.609 20.056 241.606 18.241C241.595 12.064 245.053 8.60005 251.23 8.60005C253.042 8.60005 254.316 8.46805 254.062 8.30605C253.38 7.87205 249.014 8.01404 247.4 8.52304ZM255.2 9.20004C255.336 9.42004 255.67 9.60005 255.942 9.60005C256.773 9.60005 259.307 12.492 260.149 14.4C260.586 15.39 260.956 15.9421 260.972 15.6261C261.035 14.3481 259.214 11.4951 257.5 10.1861C255.731 8.83505 254.702 8.39404 255.2 9.20004ZM260.2 11.414C260.2 11.532 260.487 12.067 260.839 12.603C261.19 13.139 261.729 14.437 262.037 15.489C262.503 17.078 262.571 17.164 262.44 15.997C262.196 13.832 260.2 9.74705 260.2 11.414ZM248.905 14.226C245.067 16.309 246.637 22.4 251.012 22.4C253.205 22.4 255.4 20.686 255.366 19C255.352 18.32 255.29 18.349 254.954 19.192C253.58 22.633 248.889 22.948 247.528 19.69C245.516 14.873 252.359 11.7391 254.699 16.4061C255.249 17.5011 255.399 17.616 255.399 16.941C255.401 14.591 251.353 12.898 248.905 14.226ZM262.057 20.2C261.884 21.08 261.387 22.408 260.954 23.15C260.07 24.668 260.171 25.329 261.071 23.912C262.065 22.347 262.672 20.515 262.52 19.538C262.407 18.818 262.3 18.971 262.057 20.2ZM9.43299 19.347C9.52499 19.428 10.32 19.6041 11.2 19.7381C12.315 19.9071 12.558 19.871 12 19.619C11.232 19.271 9.08999 19.044 9.43299 19.347ZM26.034 19.6971C24.135 20.1991 21 23.174 21 24.474C21 25.138 21.233 24.909 21.9 23.586C24.216 18.999 32.391 18.5801 35.466 22.8911C36.886 24.8811 36.886 34.319 35.466 36.3091C34.074 38.2621 31.925 39.193 28.716 39.236C26.275 39.268 26.136 39.311 27.346 39.659C33.037 41.297 37 37.193 37 29.661C37 21.373 33.099 17.8291 26.034 19.6971ZM64.062 19.7831C61.485 20.7021 59.346 23.334 59.427 25.487C59.441 25.879 59.697 25.42 59.994 24.468C60.872 21.655 62.106 20.619 65.6 19.76C66.733 19.481 67.167 19.261 66.6 19.252C66.05 19.243 64.908 19.482 64.062 19.7831ZM68.4 19.3781C68.62 19.4761 69.557 19.751 70.482 19.989C71.407 20.227 72.757 20.905 73.482 21.496C74.592 22.402 74.674 22.4261 74.001 21.6451C72.955 20.431 71.541 19.7231 69.586 19.4341C68.714 19.3041 68.18 19.2791 68.4 19.3781ZM139.433 19.347C139.525 19.428 140.32 19.6041 141.2 19.7381C142.315 19.9071 142.558 19.871 142 19.619C141.232 19.271 139.09 19.044 139.433 19.347ZM161.2 19.494C160.238 19.737 158.646 20.8 159.244 20.8C159.477 20.8 159.799 20.665 159.961 20.5C160.123 20.335 161.008 19.993 161.928 19.739C163.526 19.299 162.862 19.076 161.2 19.494ZM166.074 19.771C167.214 20.047 168.654 20.583 169.274 20.961L170.4 21.647L169.468 20.834C168.49 19.98 166.159 19.182 164.8 19.236C164.36 19.254 164.933 19.494 166.074 19.771ZM46.332 19.91C45.828 20.231 44.068 24.401 44.328 24.661C44.414 24.747 44.806 23.959 45.198 22.909C46.198 20.235 46.407 20.058 48.733 19.894L50.8 19.748L48.8 19.68C47.7 19.643 46.589 19.746 46.332 19.91ZM78.68 20.08C78.33 20.43 78.224 22.995 78.289 29.58L78.377 38.6001L78.589 29.4L78.8 20.2L81 19.965L83.2 19.73L81.18 19.665C80.055 19.629 78.947 19.813 78.68 20.08ZM89.88 20.08C89.589 20.371 89.4 21.787 89.4 23.68V26.8H86.616H83.832L83.698 23.5L83.563 20.2L83.481 23.7L83.4 27.2H86.584H89.769L89.884 23.7L90 20.2H92.2H94.4V29.6001V39H92.2H90L89.884 35.5L89.769 32H86.6H83.431L83.316 35.5L83.2 39H80.937C79.693 39 78.758 39.135 78.861 39.3C79.164 39.788 82.798 39.642 83.32 39.12C83.611 38.829 83.8 37.4131 83.8 35.5201V32.4H86.6H89.4V35.5201C89.4 39.1851 89.685 39.6001 92.2 39.6001C93.212 39.6001 94.256 39.384 94.52 39.12C95.201 38.439 95.201 20.761 94.52 20.08C93.898 19.458 90.502 19.458 89.88 20.08ZM98.28 20.08C96.979 21.381 97.957 24.4 99.68 24.4C100.593 24.4 100.6 24.4411 100.6 29.6001C100.6 34.4591 100.55 34.8 99.833 34.8C98.158 34.8 97.8 35.223 97.8 37.2C97.8 39.595 97.867 39.6221 103.533 39.5201L108 39.439L103.2 39.22L98.4 39V37.204C98.4 35.521 98.476 35.395 99.6 35.2L100.8 34.9921V29.6001V24.208L99.6 24C98.476 23.805 98.4 23.679 98.4 21.996V20.2H103.2H108V22C108 23.666 107.918 23.809 106.9 23.927C106.169 24.011 105.811 24.2791 105.832 24.7271C105.851 25.1431 105.94 25.209 106.065 24.9C106.176 24.625 106.576 24.4 106.953 24.4C108.028 24.4 108.6 23.567 108.6 22C108.6 21.208 108.384 20.344 108.12 20.08C107.46 19.42 98.94 19.42 98.28 20.08ZM111.9 19.8651C111.625 19.9761 111.405 20.367 111.412 20.733C111.423 21.335 111.464 21.332 111.832 20.7C112.546 19.474 115.926 19.7361 116.996 21.1001C117.471 21.7051 117.729 21.9301 117.569 21.6001C116.684 19.7731 114.093 18.9801 111.9 19.8651ZM124.305 19.887C124.914 19.979 125.814 19.977 126.305 19.882C126.797 19.7871 126.3 19.7111 125.2 19.7141C124.1 19.7171 123.697 19.795 124.305 19.887ZM174.3 19.8651C174.025 19.9761 173.805 20.367 173.812 20.733C173.823 21.335 173.864 21.332 174.232 20.7C174.596 20.075 175.403 20 181.8 20C188.197 20 189.004 20.075 189.368 20.7C189.73 21.321 189.777 21.326 189.788 20.743C189.795 20.381 189.515 19.976 189.167 19.843C188.414 19.554 175.021 19.5741 174.3 19.8651ZM191.978 20.1131C191.87 20.3951 191.835 23.95 191.9 28.013L192.019 35.4L192.11 27.721L192.2 20.0421L194.3 19.8951L196.4 19.748L194.287 19.674C192.881 19.625 192.109 19.7711 191.978 20.1131ZM203.1 19.8651C202.725 20.0161 202.621 21.63 202.684 26.333L202.768 32.6001L202.984 26.4L203.2 20.2L205.287 20.08C207.949 19.926 207.939 19.89 207.738 28.91C207.653 32.7001 207.701 35.2601 207.845 34.6001C208.282 32.5891 208.235 21.212 207.786 20.374C207.381 19.616 204.493 19.3031 203.1 19.8651ZM211.48 20.08C211.13 20.43 211.024 22.995 211.089 29.58L211.177 38.6001L211.389 29.4L211.6 20.2L216.6 19.981L221.6 19.762L216.78 19.681C213.467 19.625 211.81 19.75 211.48 20.08ZM234.8 19.98L239.6 20.2V21.996C239.6 23.679 239.524 23.805 238.4 24L237.2 24.208V29.6001V34.9921L238.4 35.2C239.524 35.395 239.6 35.521 239.6 37.204V39L234.8 39.22L230 39.439L234.62 39.5201C239.795 39.6101 240.2 39.441 240.2 37.2C240.2 35.537 239.623 34.8 238.32 34.8C237.407 34.8 237.4 34.7591 237.4 29.6001C237.4 24.4411 237.407 24.4 238.32 24.4C239.623 24.4 240.2 23.663 240.2 22C240.2 19.759 239.795 19.59 234.62 19.68L230 19.761L234.8 19.98ZM3.657 20.759C2.503 21.52 1.006 23.461 1.004 24.2C1.004 24.42 1.38399 23.97 1.84999 23.2C2.31599 22.43 2.9 21.677 3.14799 21.527C3.975 21.029 5.203 20.026 5 20.015C4.89 20.01 4.285 20.345 3.657 20.759ZM13.6 20.5701C15.991 22.4451 17.111 24.449 16.406 25.59C15.874 26.451 12.792 26.056 11.8 25C11.283 24.45 10.577 24.011 10.23 24.025C9.777 24.044 9.825 24.1431 10.4 24.3781C10.84 24.5581 11.543 25.087 11.962 25.553C12.885 26.579 15.821 26.739 16.596 25.805C17.589 24.609 16.255 21.844 14.117 20.668C13.237 20.184 13.066 20.1511 13.6 20.5701ZM133.642 20.769C131.317 22.301 130.847 23.636 130.756 28.965L130.674 33.8L130.966 29C131.29 23.684 131.524 23.015 133.688 21.231C135.38 19.837 135.359 19.636 133.642 20.769ZM223 20.7791C226.127 22.4411 226.981 24.3341 226.981 29.6001C226.981 34.9911 226.06 36.939 222.8 38.444C221.92 38.85 221.434 39.186 221.72 39.191C223.515 39.222 226.505 36.376 227.023 34.1451C228.582 27.4261 225.828 19.8021 221.92 20.0181C221.744 20.0271 222.23 20.3701 223 20.7791ZM260.391 21C259.761 23.455 257.764 25.673 255.1 26.872C254.165 27.293 253.4 27.801 253.4 28C253.4 28.199 254.165 28.7071 255.1 29.1281C257.764 30.3271 259.761 32.545 260.391 35C260.56 35.66 260.782 35.9741 260.884 35.6971C261.452 34.1511 257.815 29.5821 255.325 28.7141C254.171 28.312 254.356 27.2 255.577 27.2C257.172 27.2 261.4 21.706 260.884 20.303C260.782 20.026 260.56 20.34 260.391 21ZM127.572 29.6001C127.572 34.7701 127.629 36.885 127.699 34.3C127.768 31.715 127.768 27.485 127.699 24.9C127.629 22.315 127.572 24.4301 127.572 29.6001ZM229.46 21.8201C229.396 23.5571 229.925 24.4 231.08 24.4C232.337 24.4 232.161 34.675 230.9 34.918C230.128 35.066 230.157 35.099 231.1 35.146L232.2 35.2V29.627V24.053L231.1 23.927C230.125 23.814 229.973 23.596 229.76 22L229.52 20.2L229.46 21.8201ZM145.485 21.89C146.579 23.239 147.24 25.2891 146.806 25.9901C146.508 26.4721 142.6 26.551 142.6 26.075C142.6 25.45 140.962 24 140.284 24.025C139.767 24.045 139.813 24.1371 140.477 24.4041C140.959 24.5981 141.655 25.217 142.023 25.778C142.826 27.004 146.109 27.273 147.011 26.187C147.729 25.322 146.928 22.834 145.526 21.576L144.438 20.6001L145.485 21.89ZM157.387 22.019C155.58 24.555 156.131 28.304 158.534 29.83C159.44 30.405 159.39 30.2851 158.2 29.0311C156.412 27.1461 156.212 24.2241 157.727 22.1001C158.237 21.3851 158.564 20.8 158.454 20.8C158.344 20.8 157.864 21.348 157.387 22.019ZM122.2 25.076C122.2 28.615 122.147 28.885 121.593 28.176C121.031 27.456 121.021 27.48 121.458 28.5C122.303 30.475 122.6 29.67 122.6 25.4C122.6 23.09 122.51 21.2 122.4 21.2C122.29 21.2 122.2 22.944 122.2 25.076ZM197.085 27.438C196.996 34.1991 197.25 35.213 199.031 35.194C199.344 35.191 199.15 34.961 198.6 34.683C197.609 34.182 197.598 34.1211 197.385 27.5891L197.17 21L197.085 27.438ZM241.824 22.121C241.739 23.276 245.137 26.647 247.521 27.774C247.893 27.949 247.893 28.051 247.521 28.226C245.157 29.343 241.277 33.21 241.898 33.831C241.99 33.924 242.501 33.332 243.033 32.515C244.056 30.944 246.681 28.927 247.969 28.722C249.005 28.558 249.244 27.659 248.333 27.357C245.616 26.457 243.907 25.093 242.324 22.562C242.061 22.143 241.836 21.945 241.824 22.121ZM118.594 23.9C119.059 24.725 119.812 25.85 120.267 26.4L121.095 27.4L120.395 26.235C120.011 25.594 119.341 24.469 118.908 23.735C117.825 21.898 117.548 22.044 118.594 23.9ZM171.363 24.4C171.139 26.323 167.916 26.76 166.777 25.021C166.409 24.459 165.947 24 165.751 24C165.555 24 165.875 24.54 166.463 25.2C168.651 27.656 172.376 26.611 171.699 23.732C171.597 23.299 171.46 23.573 171.363 24.4ZM26.7 24.1951C26.205 24.5531 25.8 25.0151 25.8 25.2231C25.8 25.4301 26.16 25.24 26.6 24.8C29.352 22.048 31.8 24.3081 31.8 29.6001C31.8 34.2331 31.282 35.2 28.8 35.2C27.933 35.2 27.095 34.895 26.6 34.4C26.16 33.96 25.8 33.7701 25.8 33.9771C25.8 35.5121 29.505 36.062 31.146 34.771C32.407 33.779 32.755 26.167 31.609 24.653C30.822 23.614 27.884 23.3401 26.7 24.1951ZM6.423 24.8891C5.529 26.1641 5.546 32.841 6.446 34.2141C7.544 35.889 10.658 35.648 11.8 33.8C12.695 32.351 15.727 31.7111 16.416 32.826C16.878 33.5731 16.202 35.933 15.139 37.288L14.109 38.6001L15.333 37.318C17.88 34.649 17.393 32 14.355 32C12.798 32 12.509 32.1521 11.704 33.3951C10.639 35.0391 7.779 35.4471 6.757 34.1001C5.289 32.1661 6.23799 24.742 8.00999 24.293C8.73199 24.11 8.725 24.0891 7.923 24.0461C7.431 24.0201 6.772 24.3901 6.423 24.8891ZM68.6 24.291C68.93 24.416 69.709 24.9421 70.331 25.4601C71.49 26.4241 73.863 26.728 74.934 26.049C75.247 25.851 74.661 25.788 73.516 25.898C71.842 26.059 71.387 25.938 70.324 25.043C69.642 24.469 68.84 24.014 68.542 24.032C68.141 24.055 68.156 24.122 68.6 24.291ZM136.862 24.731C136.498 25.134 136.211 25.7191 136.225 26.0311C136.239 26.3441 136.415 26.191 136.616 25.691C136.817 25.19 137.39 24.617 137.891 24.416C138.476 24.181 138.573 24.042 138.162 24.025C137.811 24.011 137.226 24.329 136.862 24.731ZM161.8 24.9901C161.8 25.9701 163.455 27.228 164.68 27.179C164.966 27.168 164.509 26.872 163.664 26.522C162.386 25.992 162.159 25.728 162.309 24.943C162.408 24.424 162.334 24 162.145 24C161.955 24 161.8 24.4451 161.8 24.9901ZM176.798 24.287L179 24.44V31.54C179 39.55 179.017 39.6001 181.8 39.6001C184.583 39.6001 184.6 39.55 184.6 31.54V24.44L186.9 24.284L189.2 24.1281L186.8 24.164L184.4 24.2L184.2 31.6001L184 39H181.8H179.6L179.4 31.6001L179.2 24.2L176.898 24.1671L174.596 24.134L176.798 24.287ZM216.375 24.522C216.264 24.809 216.225 27.284 216.287 30.022L216.4 35L217.903 35.0421L219.407 35.084L218.003 34.918L216.6 34.752V29.576V24.4H217.981C219.697 24.4 221.308 25.105 221.535 25.956C221.683 26.51 221.714 26.503 221.754 25.91C221.85 24.482 216.882 23.2 216.375 24.522ZM0.753998 29.6001C0.753998 32.3501 0.817996 33.4751 0.895996 32.1001C0.973996 30.7251 0.973996 28.4751 0.895996 27.1001C0.817996 25.7251 0.753998 26.8501 0.753998 29.6001ZM53.045 25.2C53.053 25.53 53.406 26.52 53.829 27.4C54.252 28.28 54.486 28.562 54.349 28.026C53.973 26.561 53.029 24.514 53.045 25.2ZM25.544 29.6001C25.544 31.6901 25.612 32.545 25.694 31.5C25.776 30.455 25.776 28.745 25.694 27.7C25.612 26.655 25.544 27.5101 25.544 29.6001ZM48.2 27C48.2 27.33 48.377 27.6001 48.592 27.6001C48.808 27.6001 49.1 28.058 49.24 28.619C49.381 29.179 49.581 29.5521 49.685 29.4491C49.959 29.1751 48.898 26.4 48.52 26.4C48.344 26.4 48.2 26.67 48.2 27ZM64.26 29.4C64.258 30.94 64.398 32.56 64.572 33C64.746 33.443 64.809 32.3731 64.712 30.6001C64.486 26.4421 64.264 25.854 64.26 29.4ZM221.934 29.6001C221.934 31.2501 222.005 31.9251 222.091 31.1001C222.178 30.2751 222.178 28.9251 222.091 28.1001C222.005 27.2751 221.934 27.9501 221.934 29.6001ZM42.477 29.077C42.1 30.093 41.858 30.9911 41.938 31.0721C42.019 31.1521 42.4 30.393 42.785 29.385C43.17 28.376 43.412 27.479 43.323 27.39C43.235 27.301 42.854 28.06 42.477 29.077ZM165.4 27.374C165.4 27.477 165.985 27.731 166.7 27.938C167.415 28.144 168.36 28.434 168.8 28.582C169.296 28.749 169.219 28.6341 168.6 28.2811C167.522 27.6661 165.4 27.065 165.4 27.374ZM139.136 28.306C138.881 28.468 140.501 28.6001 142.736 28.6001H146.8L146.789 32.1151C146.784 34.049 146.906 35.309 147.061 34.915C147.541 33.701 147.437 28.997 146.92 28.48C146.392 27.952 139.924 27.807 139.136 28.306ZM170.645 29.7811C171 30.2311 171.49 30.96 171.733 31.4C171.977 31.84 172.181 31.978 172.188 31.706C172.195 31.435 171.705 30.7061 171.1 30.0871C170.495 29.4681 170.29 29.3301 170.645 29.7811ZM54.645 29.6001C54.653 29.9301 55.006 30.92 55.429 31.8C55.852 32.68 56.086 32.962 55.949 32.426C55.573 30.961 54.629 28.9141 54.645 29.6001ZM138.293 30.4C138.293 31.17 138.375 31.4851 138.476 31.1001C138.576 30.7151 138.576 30.085 138.476 29.7C138.375 29.315 138.293 29.63 138.293 30.4ZM116.495 29.838C116.333 30.001 116.2 32.1731 116.2 34.6671V39.2H114.22C112.756 39.2 112.133 39.017 111.832 38.5C111.448 37.841 111.424 37.841 111.412 38.4921C111.398 39.32 112.672 39.705 114.838 39.528L116.4 39.4L116.506 35.4C116.65 29.977 116.778 29.771 118.4 32.343C120.079 35.005 120.626 35.5471 119.416 33.3481C118.157 31.0611 116.847 29.486 116.495 29.838ZM50.008 30.7C50.233 31.525 50.12 31.6001 48.64 31.6001C47.283 31.6001 47.061 31.488 47.25 30.9C47.434 30.329 47.399 30.3071 47.064 30.7811C46.445 31.6551 46.88 32 48.6 32C50.352 32 50.849 31.5351 50.203 30.5031C49.821 29.8941 49.795 29.92 50.008 30.7ZM160.331 30.8071C160.732 31.0641 162.262 31.6171 163.731 32.035C165.199 32.4541 166.625 33.1021 166.9 33.4751C167.175 33.8481 167.4 33.9611 167.4 33.7251C167.4 32.9861 166.36 32.39 163.738 31.624C162.342 31.217 160.84 30.761 160.4 30.612C159.656 30.359 159.651 30.3721 160.331 30.8071ZM260.214 31.114C260.206 31.397 260.487 32.067 260.839 32.603C261.19 33.139 261.714 34.437 262.003 35.489C262.383 36.87 262.538 37.109 262.564 36.349C262.6 35.301 261.937 33.4991 260.818 31.6001C260.494 31.0501 260.222 30.831 260.214 31.114ZM40.699 33.913C39.485 37.043 39.584 37.602 40.823 34.618C41.367 33.307 41.764 32.091 41.705 31.915C41.646 31.739 41.194 32.638 40.699 33.913ZM71.064 32.3521C70.769 32.5391 70.315 33.121 70.054 33.646C69.493 34.777 66.597 35.2061 65.47 34.3241C64.869 33.854 64.857 33.872 65.349 34.5C66.507 35.976 70.6 35.05 70.6 33.3111C70.6 32.0801 74.318 32.062 75.177 33.289C75.52 33.778 75.8 33.971 75.8 33.718C75.8 32.331 72.567 31.3991 71.064 32.3521ZM156.852 32.33C156.374 32.531 156.926 32.636 158.38 32.622C160.121 32.605 160.745 32.76 161.036 33.28C161.675 34.419 162.621 35.201 163.329 35.175C163.84 35.155 163.799 35.0681 163.159 34.8091C162.696 34.6221 161.969 33.9921 161.544 33.4081C160.719 32.2751 158.303 31.72 156.852 32.33ZM172.293 33.6001C172.293 34.3701 172.375 34.685 172.476 34.3C172.576 33.9151 172.576 33.285 172.476 32.9C172.375 32.515 172.293 32.8301 172.293 33.6001ZM136.225 33.2381C136.195 34.0071 137.441 35.21 138.231 35.175C138.544 35.161 138.391 34.985 137.891 34.784C137.39 34.583 136.817 34.01 136.616 33.509C136.381 32.924 136.242 32.8271 136.225 33.2381ZM141.367 33.584C141.26 34.216 140.843 34.666 140.2 34.844C139.318 35.088 139.3 35.125 140.051 35.16C141.096 35.209 141.923 34.286 141.7 33.319C141.573 32.765 141.497 32.825 141.367 33.584ZM221.432 33.239C221.414 33.59 220.995 34.073 220.5 34.312C220.005 34.551 219.791 34.758 220.024 34.773C220.794 34.822 221.914 33.74 221.687 33.165C221.511 32.72 221.456 32.736 221.432 33.239ZM59.436 33.713C59.38 34.825 60.395 36.919 61.419 37.8C62.282 38.543 62.274 38.5 61.308 37.2C60.736 36.43 60.089 35.17 59.87 34.4C59.651 33.63 59.456 33.321 59.436 33.713ZM202.116 33.8761C201.989 34.3641 201.485 34.809 200.946 34.912C200.091 35.074 200.082 35.096 200.851 35.146C201.814 35.207 202.76 34.281 202.508 33.524C202.414 33.243 202.241 33.3981 202.116 33.8761ZM21.018 34.511C20.997 35.78 24.097 39.2 25.268 39.2C25.653 39.2 25.129 38.675 24.078 38.009C23.045 37.354 22.197 36.769 22.194 36.709C22.135 35.65 21.032 33.588 21.018 34.511ZM56.219 33.8671C56.209 34.1241 56.56 35.174 57 36.2C58.211 39.025 58.131 39.2 55.62 39.2C53.966 39.2 53.341 39.031 53.032 38.5C52.808 38.115 52.619 37.989 52.612 38.22C52.586 39.123 53.651 39.6001 55.693 39.6001C58.399 39.6001 58.591 39.148 57.262 35.901C56.699 34.525 56.23 33.6101 56.219 33.8671ZM248.538 34.502C245.065 37.437 246.843 42.4 251.366 42.4C252.856 42.4 255.4 40.2931 255.399 39.0591C255.399 38.3861 255.247 38.5041 254.699 39.6001C252.788 43.4241 247.218 42.186 247.218 37.937C247.218 33.734 252.788 32.5941 254.699 36.4061C255.194 37.3921 255.396 37.566 255.39 37C255.362 34.209 250.836 32.559 248.538 34.502ZM241.243 35.0331C239.794 38.8081 243.663 47.2 246.852 47.2C247.265 47.2 246.793 46.7161 245.713 46.0311C242.782 44.1721 241.599 41.772 241.606 37.7C241.612 34.137 241.606 34.0871 241.243 35.0331ZM74.494 36.103L73.788 37.4L74.594 36.456C75.28 35.652 75.646 34.794 75.3 34.803C75.245 34.804 74.882 35.389 74.494 36.103ZM156.209 34.953C156.074 40.147 168.663 41.665 171.536 36.801C172.515 35.144 172.343 34.8691 171.299 36.4191C168.371 40.7641 159.664 40.5421 157.063 36.0571C156.598 35.2551 156.214 34.759 156.209 34.953ZM120.809 36.226C121.181 36.901 121.841 37.891 122.276 38.426L123.067 39.4L122.391 38.174C122.019 37.499 121.359 36.509 120.924 35.974L120.133 35L120.809 36.226ZM108.309 37.2C108.309 38.19 108.387 38.5951 108.482 38.1001C108.578 37.6051 108.578 36.795 108.482 36.3C108.387 35.805 108.309 36.21 108.309 37.2ZM192.221 35.8C192.216 36.44 193.499 37.84 194.8 38.614C195.821 39.221 195.777 39.135 194.507 38.04C193.685 37.332 192.836 36.4481 192.619 36.076C192.402 35.704 192.223 35.58 192.221 35.8ZM229.509 37.2C229.509 38.19 229.587 38.5951 229.682 38.1001C229.778 37.6051 229.778 36.795 229.682 36.3C229.587 35.805 229.509 36.21 229.509 37.2ZM44.611 37.579C43.868 39.036 43.658 39.17 41.903 39.31L40 39.4621L42 39.431C43.897 39.402 44.041 39.322 44.8 37.879L45.6 36.359L48.863 36.479C50.658 36.5461 52.042 36.465 51.94 36.3C51.837 36.135 50.327 36 48.585 36H45.416L44.611 37.579ZM131.857 36.8C132.206 37.35 133.101 38.124 133.846 38.521C134.591 38.918 134.845 39.008 134.412 38.721C133.979 38.434 133.084 37.66 132.424 37C131.381 35.958 131.307 35.932 131.857 36.8ZM145.941 36.611C145.498 37.764 142.306 39.253 139.51 39.611L136.8 39.957L139.484 39.826C141.502 39.7271 142.617 39.432 143.977 38.635C145.519 37.731 147.112 36 146.402 36C146.277 36 146.069 36.275 145.941 36.611ZM206.199 37.3C205.61 38.104 205.513 38.3841 205.945 38.0331C206.601 37.5 207.593 36 207.289 36C207.213 36 206.722 36.585 206.199 37.3ZM71.851 38.498C71.109 38.956 69.399 39.457 68.051 39.611L65.6 39.8911L67.6 39.9361C69.577 39.9821 72.613 38.9501 73.174 38.0421C73.521 37.4811 73.474 37.497 71.851 38.498ZM63.176 38.97C63.604 39.317 64.324 39.585 64.776 39.566C65.437 39.538 65.389 39.467 64.531 39.209C63.944 39.031 63.224 38.7631 62.931 38.6131C62.639 38.4631 62.749 38.624 63.176 38.97ZM204.055 38.857C203.646 39.095 202.026 39.425 200.455 39.591C197.874 39.862 197.792 39.896 199.6 39.943C201.759 40 204.425 39.4071 204.809 38.785C205.107 38.3031 204.989 38.315 204.055 38.857ZM211.752 39.314C211.926 39.486 214.122 39.575 216.634 39.512L221.2 39.396L216.318 39.198C213.634 39.089 211.579 39.141 211.752 39.314ZM261.879 40.6001C261.592 41.7001 261.256 43.005 261.132 43.5L260.907 44.4H269.521C278.171 44.4 279.4 44.285 279.4 43.4771C279.4 43.1851 279.241 43.1991 278.92 43.5201C278.451 43.9891 261.4 44.269 261.4 43.808C261.4 43.703 261.684 42.906 262.032 42.037C262.379 41.169 262.604 40.0411 262.532 39.5291C262.437 38.8611 262.253 39.1621 261.879 40.6001ZM6.249 39.6541C7.501 40.0051 10.62 40.015 11.483 39.672C11.858 39.522 10.621 39.397 8.73199 39.394C6.84299 39.39 5.726 39.5071 6.249 39.6541ZM124.305 39.487C124.914 39.579 125.814 39.577 126.305 39.482C126.797 39.387 126.3 39.311 125.2 39.314C124.1 39.317 123.697 39.395 124.305 39.487ZM260.212 41.366C259.655 43.052 256.835 46.4 255.973 46.4C255.684 46.4 255.336 46.58 255.2 46.8C254.702 47.606 255.731 47.165 257.5 45.814C259.299 44.44 261.235 41.302 260.9 40.303C260.807 40.026 260.497 40.505 260.212 41.366ZM248.6 47.6001C249.15 47.7761 250.32 47.92 251.2 47.92C252.08 47.92 253.25 47.7761 253.8 47.6001C254.458 47.3891 253.568 47.28 251.2 47.28C248.832 47.28 247.942 47.3891 248.6 47.6001Z" fill="#A1C2C3"/>
<path fill-rule="evenodd" clip-rule="evenodd" d="M7.6 19.616C6.682 19.837 7.002 19.916 8.967 19.953C10.378 19.979 11.458 19.936 11.367 19.857C10.948 19.499 8.685 19.354 7.6 19.616ZM66.4 19.61C65.439 19.846 65.672 19.915 67.567 19.953C68.868 19.979 69.858 19.935 69.767 19.856C69.331 19.481 67.477 19.345 66.4 19.61ZM137.6 19.616C136.682 19.837 137.002 19.916 138.967 19.953C140.378 19.979 141.458 19.936 141.367 19.857C140.948 19.499 138.685 19.354 137.6 19.616ZM162.6 19.616C161.867 19.839 162.232 19.931 163.967 19.96C165.268 19.982 166.258 19.936 166.167 19.857C165.742 19.494 163.499 19.342 162.6 19.616ZM3.919 20.925C-1.237 24.447 0.365004 39.265 5.894 39.193C6.172 39.19 5.697 38.785 4.838 38.293C1.869 36.596 1.6 35.873 1.6 29.6C1.6 23.327 1.869 22.604 4.838 20.907C5.697 20.415 6.13 20.021 5.8 20.031C5.47 20.041 4.624 20.444 3.919 20.925ZM12.8 20.648C13.46 20.986 14.495 21.827 15.1 22.516C16.167 23.733 16.667 23.621 15.687 22.385C14.963 21.472 12.755 19.998 12.138 20.016C11.842 20.025 12.14 20.309 12.8 20.648ZM50.423 20.567C51.261 21.18 51.64 21.113 51.216 20.427C51.071 20.192 50.659 20 50.3 20C49.754 20 49.774 20.093 50.423 20.567ZM62.747 20.767C61.461 21.551 60.195 23.058 60.207 23.789C60.21 24.015 60.579 23.63 61.025 22.933C61.472 22.235 62.594 21.291 63.519 20.833C64.443 20.375 64.93 20.001 64.6 20.002C64.27 20.002 63.436 20.347 62.747 20.767ZM71.6 20.826C72.48 21.263 73.511 22.021 73.891 22.51C74.271 23 74.586 23.206 74.591 22.97C74.609 22.1 71.692 19.981 70.526 20.016C70.237 20.025 70.72 20.389 71.6 20.826ZM78.78 20.509C78.241 21.914 78.808 38.936 79.4 39.117C79.884 39.265 79.904 39.198 79.5 38.77C78.802 38.03 78.784 21.176 79.48 20.48C79.853 20.107 79.851 20 79.467 20C79.197 20 78.887 20.229 78.78 20.509ZM82.482 20.318C82.77 20.502 83.019 21.904 83.101 23.812L83.239 27L83.32 23.5C83.391 20.401 83.32 20.001 82.7 20.006C82.223 20.01 82.153 20.11 82.482 20.318ZM89.969 20.537C89.855 20.833 89.825 22.408 89.902 24.037L90.041 27L90.121 23.733C90.173 21.558 90.367 20.399 90.7 20.265C91.092 20.107 91.089 20.056 90.687 20.032C90.406 20.014 90.082 20.242 89.969 20.537ZM93.79 20.263C94.426 20.579 94.34 38.091 93.7 38.77C93.296 39.198 93.316 39.265 93.8 39.117C94.623 38.865 94.711 20.33 93.89 20.163C93.609 20.107 93.565 20.151 93.79 20.263ZM98.359 20.562C97.996 21.509 98.37 23.732 98.91 23.839C99.191 23.895 99.236 23.849 99.01 23.737C98.424 23.446 98.5 20.507 99.1 20.265C99.492 20.107 99.489 20.056 99.087 20.032C98.806 20.014 98.478 20.253 98.359 20.562ZM107.39 20.263C107.615 20.375 107.8 21.157 107.8 22C107.8 22.843 107.615 23.625 107.39 23.737C107.165 23.849 107.21 23.894 107.49 23.837C107.809 23.772 108 23.084 108 22C108 20.916 107.809 20.228 107.49 20.163C107.21 20.107 107.165 20.151 107.39 20.263ZM111.814 20.774C110.641 22.966 111.435 39.21 112.714 39.194C113.073 39.189 113.065 39.102 112.685 38.861C112.284 38.607 112.196 36.486 112.285 29.267C112.348 24.17 112.361 19.999 112.314 20C112.267 20 112.042 20.348 111.814 20.774ZM115.412 20.235C115.749 20.34 117.245 22.399 118.736 24.812C121.208 28.813 122.692 30.781 121.215 28.1C118.919 23.933 116.28 20.196 115.583 20.125C115.127 20.079 115.056 20.125 115.412 20.235ZM122.843 20.633C122.709 20.981 122.6 23.141 122.6 25.433C122.6 28.099 122.447 29.6 122.176 29.6C121.943 29.6 121.864 29.78 122 30C122.712 31.153 123 29.995 123 25.974C123 23.539 123.186 21.199 123.414 20.774C123.652 20.329 123.67 20 123.457 20C123.253 20 122.976 20.285 122.843 20.633ZM126.5 20.265C126.88 20.418 127 22.668 127 29.6C127 36.532 126.88 38.782 126.5 38.935C126.201 39.056 126.282 39.15 126.7 39.168C127.348 39.198 127.4 38.488 127.4 29.6C127.4 20.712 127.348 20.002 126.7 20.032C126.282 20.05 126.201 20.144 126.5 20.265ZM133.207 21.731C132.213 22.684 131.407 23.809 131.416 24.231C131.427 24.786 131.579 24.666 131.961 23.8C132.557 22.451 133.44 21.596 135.2 20.666C135.993 20.247 136.165 20.027 135.707 20.016C135.326 20.007 134.201 20.779 133.207 21.731ZM168.2 20.916C169.393 21.502 170.236 22.272 170.699 23.2C171.189 24.181 171.395 24.361 171.387 23.8C171.365 22.392 168.566 19.979 167 20.018C166.67 20.026 167.21 20.431 168.2 20.916ZM174.187 20.823C173.753 21.635 174.01 24 174.532 24C174.679 24 174.8 23.1 174.8 22C174.8 19.726 174.788 19.702 174.187 20.823ZM188.8 22C188.8 24.221 189.197 24.633 189.595 22.823C189.799 21.894 189.323 20 188.886 20C188.839 20 188.8 20.9 188.8 22ZM196.186 20.774C196.419 21.209 196.6 24.193 196.6 27.6C196.6 30.929 196.779 33.986 196.997 34.394C197.54 35.409 199.955 36.182 200.887 35.639C201.464 35.303 201.287 35.222 199.962 35.212C197.188 35.192 197 34.701 197 27.501C197 21.298 196.852 20 196.143 20C195.93 20 195.948 20.329 196.186 20.774ZM203.209 20.5C203.118 20.775 202.988 23.897 202.921 27.439C202.83 32.287 202.657 34.066 202.222 34.639C201.664 35.374 201.67 35.376 202.422 34.687C203.119 34.048 203.221 33.248 203.4 26.986C203.593 20.249 203.568 19.417 203.209 20.5ZM211.58 20.509C211.041 21.914 211.608 38.936 212.2 39.117C212.684 39.265 212.704 39.198 212.3 38.77C211.602 38.03 211.584 21.176 212.28 20.48C212.653 20.107 212.651 20 212.267 20C211.997 20 211.687 20.229 211.58 20.509ZM220.94 20.586C223.538 21.214 224.972 22.21 225.899 24.028C226.284 24.783 226.599 25.099 226.599 24.731C226.601 22.887 222.575 19.97 220.116 20.034C219.002 20.063 219.128 20.147 220.94 20.586ZM229.878 21.869C229.951 22.982 230.206 23.778 230.51 23.839C230.791 23.894 230.836 23.849 230.61 23.737C230.024 23.446 230.1 20.507 230.7 20.265C230.991 20.148 230.898 20.05 230.478 20.032C229.864 20.005 229.774 20.28 229.878 21.869ZM238.99 20.263C239.216 20.375 239.4 21.157 239.4 22C239.4 22.843 239.216 23.625 238.99 23.737C238.764 23.849 238.81 23.894 239.09 23.837C239.409 23.772 239.6 23.084 239.6 22C239.6 20.916 239.409 20.228 239.09 20.163C238.81 20.107 238.764 20.151 238.99 20.263ZM145.022 22.296C145.78 23.118 146.445 23.868 146.5 23.962C146.555 24.056 146.6 23.937 146.6 23.697C146.6 23.082 144.62 20.8 144.086 20.8C143.842 20.8 144.263 21.473 145.022 22.296ZM157.784 22.023C157.305 22.696 157.022 23.356 157.156 23.49C157.29 23.624 157.4 23.548 157.4 23.321C157.4 23.095 157.875 22.435 158.455 21.855C159.035 21.275 159.317 20.8 159.082 20.8C158.847 20.8 158.263 21.35 157.784 22.023ZM207.563 27.2C207.563 30.83 207.623 32.315 207.698 30.5C207.772 28.685 207.772 25.715 207.698 23.9C207.623 22.085 207.563 23.57 207.563 27.2ZM51.412 22C51.412 22.33 51.587 22.87 51.8 23.2C52.145 23.733 52.188 23.733 52.188 23.2C52.188 22.87 52.013 22.33 51.8 22C51.455 21.467 51.412 21.467 51.412 22ZM7.8 23.583C7.353 23.885 7.666 23.989 9.03 23.994C10.469 23.999 11.065 24.218 11.817 25.018C13.188 26.478 16.349 26.33 16.496 24.8C16.591 23.815 16.586 23.813 16.209 24.7C15.654 26.003 13.211 25.952 11.807 24.607C10.63 23.479 8.69 22.983 7.8 23.583ZM66.236 23.636C65.044 24.113 64.229 25.145 64.213 26.2C64.205 26.761 64.411 26.581 64.901 25.6C65.854 23.691 68.369 23.398 70.245 24.976C72.33 26.731 76.02 26.24 75.102 24.33L74.654 23.4L74.627 24.5C74.595 25.804 71.952 26.147 70.978 24.974C69.739 23.481 67.913 22.966 66.236 23.636ZM137.342 23.807C135.441 24.84 134.588 31.27 135.993 33.987C137.181 36.284 140.587 36.413 142.026 34.216C142.868 32.931 142.304 32.101 140.47 31.923C139.309 31.811 139.2 31.68 139.2 30.4V29H142.8H146.4L146.639 31.8L146.878 34.6L146.839 31.6L146.8 28.6L143.601 28.481C139.018 28.311 138.6 28.471 138.6 30.394C138.6 32.066 139.324 32.8 140.974 32.8C141.901 32.8 142.106 33.934 141.32 34.72C140.558 35.482 137.629 35.316 136.862 34.469C135.844 33.344 135.899 25.596 136.931 24.662C138.473 23.267 142.6 24.311 142.6 26.096C142.6 27.005 146.799 26.213 146.853 25.294C146.897 24.54 146.876 24.523 146.725 25.194C146.458 26.385 143.222 26.363 142.582 25.166C141.714 23.544 139.082 22.861 137.342 23.807ZM161.8 24C161.36 24.44 161 24.967 161 25.171C161 26.104 165.464 28.469 166.074 27.859C166.195 27.738 165.778 27.515 165.147 27.363C162.956 26.837 161.8 26.028 161.8 25.022C161.8 23.189 165.585 23.202 166.788 25.038C167.419 26 170.652 26.487 171.143 25.693C171.247 25.524 170.628 25.452 169.767 25.535C168.468 25.658 167.96 25.472 166.787 24.442C165.086 22.949 163.033 22.767 161.8 24ZM44.4 24.8C44.25 25.273 44.217 25.75 44.327 25.86C44.437 25.97 44.65 25.673 44.8 25.2C44.95 24.727 44.983 24.25 44.873 24.14C44.763 24.03 44.55 24.327 44.4 24.8ZM105.267 24.267C104.832 24.701 104.956 34.726 105.4 35C105.659 35.16 105.8 33.271 105.8 29.624C105.8 26.531 105.74 24 105.667 24C105.593 24 105.413 24.12 105.267 24.267ZM156.701 25.4C156.705 26.28 156.787 26.593 156.883 26.095C156.979 25.598 156.975 24.878 156.875 24.495C156.775 24.113 156.696 24.52 156.701 25.4ZM179.4 31.505C179.55 37.078 179.727 38.96 180.11 39.037C180.39 39.094 180.436 39.049 180.21 38.937C179.953 38.809 179.8 36.07 179.8 31.59C179.8 27.662 179.665 24.363 179.5 24.261C179.335 24.159 179.29 27.418 179.4 31.505ZM184.067 24.267C183.92 24.413 183.8 27.728 183.8 31.633C183.8 36.083 183.647 38.809 183.39 38.937C183.165 39.049 183.21 39.094 183.49 39.037C183.88 38.959 184.753 23.993 184.367 23.999C184.348 24 184.213 24.12 184.067 24.267ZM216.067 24.267C215.698 24.636 215.729 34.709 216.1 34.938C216.265 35.04 216.4 32.621 216.4 29.562C216.4 26.503 216.385 24 216.367 24C216.348 24 216.213 24.12 216.067 24.267ZM220.675 24.616C221.961 25.314 222.426 27.528 222.083 31.315C221.945 32.839 221.998 33.532 222.225 33.173C223.647 30.926 222.163 23.971 220.271 24.016C219.816 24.027 219.946 24.22 220.675 24.616ZM232.2 29.6C232.2 33.263 232.341 35.16 232.6 35C232.833 34.856 233 32.604 233 29.6C233 26.596 232.833 24.344 232.6 24.2C232.341 24.04 232.2 25.937 232.2 29.6ZM59.65 25.65C59.309 27.354 59.406 32.771 59.8 34C59.998 34.618 60.135 32.975 60.16 29.7C60.201 24.291 60.093 23.435 59.65 25.65ZM131.15 29.8C131.151 32.22 131.216 33.158 131.296 31.885C131.376 30.612 131.375 28.632 131.294 27.485C131.214 26.338 131.149 27.38 131.15 29.8ZM48.411 26.306C48.637 26.468 49.03 27.05 49.284 27.6C49.538 28.15 49.758 28.363 49.773 28.074C49.815 27.263 49.028 25.999 48.486 26.006C48.172 26.01 48.146 26.116 48.411 26.306ZM53.059 26.4C53.059 26.73 53.393 27.72 53.8 28.6C54.207 29.48 54.541 29.93 54.541 29.6C54.541 29.27 54.207 28.28 53.8 27.4C53.393 26.52 53.059 26.07 53.059 26.4ZM226.744 29.6C226.744 31.69 226.812 32.545 226.894 31.5C226.976 30.455 226.976 28.745 226.894 27.7C226.812 26.655 226.744 27.51 226.744 29.6ZM5.54 29.6C5.54 31.47 5.609 32.235 5.693 31.3C5.777 30.365 5.777 28.835 5.693 27.9C5.609 26.965 5.54 27.73 5.54 29.6ZM47.6 27.6C47.45 28.073 47.417 28.55 47.527 28.66C47.637 28.77 47.85 28.473 48 28C48.15 27.527 48.183 27.05 48.073 26.94C47.963 26.83 47.75 27.127 47.6 27.6ZM84.9 27.493C85.835 27.577 87.365 27.577 88.3 27.493C89.235 27.409 88.47 27.34 86.6 27.34C84.73 27.34 83.965 27.409 84.9 27.493ZM157 27.491C157 28.529 161.799 31.734 162.422 31.112C162.53 31.004 161.809 30.607 160.82 30.229C159.832 29.851 158.568 29.002 158.011 28.341C157.455 27.679 157 27.297 157 27.491ZM168.429 28.969C172.72 30.921 172.869 36.172 168.696 38.375C167.873 38.809 167.38 39.172 167.6 39.181C169.44 39.255 172.196 35.885 172.199 33.559C172.201 31.08 169.325 28.027 167 28.042C166.67 28.044 167.313 28.461 168.429 28.969ZM42.415 30.215C42.03 31.224 41.798 32.132 41.9 32.233C42.001 32.335 42.4 31.593 42.785 30.585C43.17 29.576 43.402 28.668 43.3 28.567C43.199 28.465 42.8 29.207 42.415 30.215ZM49.812 29.2C49.812 29.53 49.987 30.07 50.2 30.4C50.545 30.933 50.588 30.933 50.588 30.4C50.588 30.07 50.413 29.53 50.2 29.2C49.855 28.667 49.812 28.667 49.812 29.2ZM116.2 29.39C116.2 29.752 116.374 29.94 116.586 29.809C116.954 29.581 117.418 30.229 121.386 36.5C122.325 37.985 123.363 39.2 123.691 39.2C124.125 39.2 124.056 39.008 123.439 38.5C122.972 38.115 121.377 35.834 119.895 33.431C117.291 29.209 116.2 28.016 116.2 29.39ZM46.8 30C46.65 30.473 46.617 30.95 46.727 31.06C46.837 31.17 47.05 30.873 47.2 30.4C47.35 29.927 47.383 29.45 47.273 29.34C47.163 29.23 46.95 29.527 46.8 30ZM54.85 31.2C55.225 32.705 56.134 34.684 56.138 34C56.139 33.67 55.794 32.68 55.371 31.8C54.948 30.92 54.714 30.65 54.85 31.2ZM163.6 31.6C164.796 32.114 165.795 32.114 165 31.6C164.67 31.387 164.04 31.222 163.6 31.234L162.8 31.256L163.6 31.6ZM86.685 31.892L89.769 32.032L89.885 35.484C89.974 38.144 90.138 38.973 90.6 39.098C91.026 39.214 91.06 39.161 90.718 38.918C90.424 38.709 90.189 37.249 90.118 35.187L90 31.8L86.8 31.776L83.6 31.752L86.685 31.892ZM12.473 32.68C12.364 32.856 13.103 33 14.116 33C15.734 33 15.995 33.121 16.258 34C16.537 34.934 16.552 34.92 16.478 33.8C16.4 32.605 13.094 31.68 12.473 32.68ZM64.213 33C64.245 35.115 66.855 36.406 69.156 35.444C69.95 35.112 70.6 34.624 70.6 34.358C70.6 34.054 70.32 34.129 69.841 34.563C68.454 35.818 65.745 35.289 64.901 33.6C64.411 32.619 64.205 32.439 64.213 33ZM71.1 32.655C70.825 32.772 70.6 33.068 70.6 33.313C70.6 33.624 70.746 33.614 71.08 33.28C71.344 33.016 72.244 32.8 73.08 32.8C75.933 32.8 74.654 37.052 71.395 38.402C70.724 38.68 70.258 38.992 70.361 39.094C71.508 40.242 76.062 34.743 75.158 33.301C74.723 32.607 72.174 32.202 71.1 32.655ZM83.079 35.467C83.027 37.642 82.833 38.801 82.5 38.935C82.108 39.093 82.111 39.144 82.513 39.168C83.291 39.216 83.451 38.403 83.298 35.163L83.159 32.2L83.079 35.467ZM156.9 32.676C155.222 33.114 156.963 36.982 159.473 38.393C160.342 38.881 161.156 39.178 161.282 39.052C161.408 38.926 160.991 38.625 160.355 38.385C158.676 37.748 157.454 36.458 157.01 34.852C156.549 33.183 156.567 33.158 158.496 32.784C159.818 32.527 159.855 32.492 158.8 32.492C158.14 32.493 157.285 32.575 156.9 32.676ZM40.464 35.507C39.212 38.698 39.163 39.202 40.1 39.194C40.61 39.189 40.662 39.1 40.291 38.865C39.894 38.613 40.008 37.943 40.807 35.82C41.37 34.323 41.763 33.03 41.68 32.947C41.597 32.863 41.049 34.016 40.464 35.507ZM161 33.915C161 34.505 162.464 35.463 163.908 35.818C165.29 36.158 167.404 35.328 167.388 34.451C167.377 33.88 167.326 33.886 166.968 34.5C166.334 35.588 162.883 35.471 161.816 34.325C161.367 33.843 161 33.659 161 33.915ZM192.232 34.706C192.214 35.223 192.758 36.175 193.5 36.924C194.215 37.646 194.417 37.779 193.95 37.219C193.482 36.658 192.912 35.66 192.681 35C192.323 33.971 192.259 33.929 192.232 34.706ZM220.4 34.614C219.399 35.073 219.341 35.167 220.051 35.182C220.519 35.192 221.126 34.93 221.4 34.6C221.983 33.897 221.966 33.897 220.4 34.614ZM225.69 35.38C224.875 37.089 223.557 37.979 220.874 38.629C219.291 39.013 219.084 39.138 220 39.157C222.464 39.209 226.6 36.334 226.6 34.569C226.6 33.702 226.409 33.872 225.69 35.38ZM131.412 35.114C131.394 35.901 132.613 37.581 133.557 38.068C134.28 38.442 134.251 38.34 133.354 37.352C132.778 36.718 132.108 35.84 131.866 35.4C131.623 34.96 131.419 34.831 131.412 35.114ZM145.6 36.146C145.16 36.836 143.997 37.805 143.015 38.3C142.034 38.795 141.478 39.2 141.78 39.2C142.778 39.2 145.619 37.285 146.182 36.234C146.983 34.737 146.541 34.67 145.6 36.146ZM207.032 35.069C206.976 35.9 204.933 38.024 203.647 38.588C202.961 38.889 202.634 39.149 202.92 39.167C204.491 39.266 207.724 36.234 207.263 35.094C207.121 34.744 207.054 34.737 207.032 35.069ZM8.1 35.612C8.637 35.828 9.363 35.828 9.9 35.612C10.635 35.317 10.47 35.251 9 35.251C7.53 35.251 7.365 35.317 8.1 35.612ZM15.061 36.463C14.544 37.1 13.464 37.968 12.661 38.393C11.857 38.817 11.47 39.159 11.8 39.153C12.743 39.135 14.658 37.875 15.541 36.692C16.641 35.218 16.23 35.022 15.061 36.463ZM60.2 35.424C60.2 36.604 63.367 39.25 64.68 39.167C64.966 39.149 64.643 38.89 63.963 38.592C63.283 38.293 62.158 37.402 61.463 36.611C60.768 35.819 60.2 35.286 60.2 35.424ZM98.359 35.762C97.996 36.709 98.37 38.932 98.91 39.039C99.191 39.095 99.236 39.049 99.01 38.937C98.424 38.646 98.5 35.707 99.1 35.465C99.492 35.307 99.489 35.256 99.087 35.232C98.806 35.214 98.478 35.453 98.359 35.762ZM107.3 35.465C107.578 35.577 107.8 36.348 107.8 37.2C107.8 38.052 107.578 38.823 107.3 38.935C107.001 39.056 107.082 39.15 107.5 39.168C108.078 39.194 108.2 38.85 108.2 37.2C108.2 35.55 108.078 35.206 107.5 35.232C107.082 35.25 107.001 35.344 107.3 35.465ZM238.99 35.463C239.216 35.575 239.4 36.357 239.4 37.2C239.4 38.043 239.216 38.825 238.99 38.937C238.764 39.049 238.81 39.094 239.09 39.037C239.409 38.972 239.6 38.284 239.6 37.2C239.6 36.116 239.409 35.428 239.09 35.363C238.81 35.307 238.764 35.351 238.99 35.463ZM44.68 36.48C44.416 36.744 44.2 37.181 44.2 37.451C44.2 37.722 43.917 38.226 43.571 38.571C43.226 38.917 43.132 39.2 43.363 39.2C43.595 39.2 44.151 38.48 44.6 37.6C45.457 35.921 45.473 35.687 44.68 36.48ZM52.6 37.6C53.049 38.48 53.638 39.186 53.908 39.168C54.279 39.145 54.283 39.089 53.922 38.943C53.66 38.836 53.241 38.13 52.991 37.374C52.742 36.618 52.368 36 52.161 36C51.953 36 52.151 36.72 52.6 37.6ZM57.167 37.667C57.312 38.335 57.212 38.809 56.899 38.935C56.602 39.055 56.683 39.15 57.1 39.168C57.887 39.204 58.028 38.139 57.362 37.2C57.031 36.735 56.987 36.84 57.167 37.667ZM7.9 39.487C8.505 39.578 9.495 39.578 10.1 39.487C10.705 39.395 10.21 39.32 9 39.32C7.79 39.32 7.295 39.395 7.9 39.487ZM66.507 39.49C67.226 39.579 68.306 39.577 68.907 39.486C69.508 39.395 68.92 39.322 67.6 39.324C66.28 39.326 65.788 39.401 66.507 39.49ZM137.707 39.49C138.426 39.579 139.506 39.577 140.107 39.486C140.708 39.395 140.12 39.322 138.8 39.324C137.48 39.326 136.988 39.401 137.707 39.49ZM163.307 39.49C164.026 39.579 165.106 39.577 165.707 39.486C166.308 39.395 165.72 39.322 164.4 39.324C163.08 39.326 162.588 39.401 163.307 39.49ZM198.5 39.489C199.215 39.578 200.385 39.578 201.1 39.489C201.815 39.401 201.23 39.328 199.8 39.328C198.37 39.328 197.785 39.401 198.5 39.489Z" fill="#7C7C7C"/>
</svg>
